<?xml version="1.0" encoding="utf-8"?>
<!-- Generator: Adobe Illustrator 27.0.0, SVG Export Plug-In . SVG Version: 6.00 Build 0)  -->
<svg version="1.1" id="Layer_1" xmlns="http://www.w3.org/2000/svg" xmlns:xlink="http://www.w3.org/1999/xlink" x="0px" y="0px"
	 width="150px" height="50px" viewBox="0 0 150 50" style="enable-background:new 0 0 150 50;" xml:space="preserve">
<style type="text/css">
	.st0{fill:#FFFFFF;}
	.st1{fill-rule:evenodd;clip-rule:evenodd;fill:#FFFFFF;}
</style>
<g>
	<path class="st0" d="M79.1,13.4c0,1.7-1.4,3-3,3c-1.7,0-3-1.4-3-3s1.3-3,3-3C77.7,10.4,79.1,11.7,79.1,13.4z M66.5,19.5
		c0,0.3,0,0.7,0,0.7S65,18.4,62,18.4c-5.1,0-9.1,3.9-9.1,9.3c0,5.3,3.9,9.3,9.1,9.3c3.1,0,4.5-1.9,4.5-1.9v0.8
		c0,0.4,0.3,0.7,0.7,0.7h3.8V18.8c0,0-3.5,0-3.8,0C66.8,18.8,66.5,19.2,66.5,19.5z M66.5,30.8c-0.7,1-2.1,1.9-3.8,1.9
		c-3,0-5.3-1.9-5.3-5.1s2.3-5.1,5.3-5.1c1.6,0,3.1,0.9,3.8,1.9V30.8z M73.8,18.8h4.5v17.6h-4.5V18.8z M141,18.4
		c-3.1,0-4.5,1.9-4.5,1.9v-9.9h-4.5v26.1c0,0,3.5,0,3.8,0c0.4,0,0.7-0.3,0.7-0.7V35l0,0c0,0,1.5,1.9,4.5,1.9c5.1,0,9.1-3.9,9.1-9.3
		C150,22.3,146,18.4,141,18.4z M140.2,32.7c-1.7,0-3.1-0.9-3.8-1.9v-6.3c0.7-0.9,2.2-1.9,3.8-1.9c3,0,5.3,1.9,5.3,5.1
		S143.2,32.7,140.2,32.7z M129.6,26v10.5h-4.5v-10c0-2.9-0.9-4.1-3.5-4.1c-1.4,0-2.8,0.7-3.7,1.7v12.3h-4.5V18.8h3.6
		c0.4,0,0.7,0.3,0.7,0.7v0.7c1.3-1.4,3-1.9,4.8-1.9c2,0,3.6,0.6,4.9,1.7C129,21.4,129.6,23.1,129.6,26z M102.5,18.4
		c-3.1,0-4.5,1.9-4.5,1.9v-9.9h-4.5v26.1c0,0,3.5,0,3.8,0c0.4,0,0.7-0.3,0.7-0.7V35l0,0c0,0,1.5,1.9,4.5,1.9c5.1,0,9.1-3.9,9.1-9.3
		C111.6,22.3,107.6,18.4,102.5,18.4z M101.8,32.7c-1.7,0-3.1-0.9-3.8-1.9v-6.3c0.7-0.9,2.2-1.9,3.8-1.9c3,0,5.3,1.9,5.3,5.1
		S104.8,32.7,101.8,32.7z M89.6,18.4c1.4,0,2.1,0.2,2.1,0.2v4.2c0,0-3.7-1.3-6.1,1.4v12.3h-4.5V18.8c0,0,3.5,0,3.8,0
		c0.4,0,0.7,0.3,0.7,0.7v0.7C86.4,19.3,88.2,18.4,89.6,18.4z M42.9,34.9c-0.2-0.6-0.5-1.2-0.7-1.7c-0.4-0.8-0.7-1.6-1.1-2.4l0,0
		c-3.2-7-6.7-14.2-10.4-21.2l-0.1-0.3c-0.4-0.7-0.7-1.5-1.1-2.2c-0.5-0.8-0.9-1.7-1.7-2.6c-1.5-1.9-3.7-2.9-6-2.9
		c-2.3,0-4.5,1-6,2.8c-0.7,0.8-1.2,1.7-1.7,2.6c-0.4,0.7-0.7,1.5-1.1,2.2l-0.1,0.3c-3.6,7-7.1,14.2-10.4,21.2l0,0.1
		c-0.3,0.7-0.7,1.5-1.1,2.4c-0.2,0.5-0.5,1.1-0.7,1.7c-0.6,1.7-0.8,3.4-0.6,5.1c0.5,3.5,2.9,6.5,6.1,7.8c1.2,0.5,2.5,0.7,3.8,0.7
		c0.4,0,0.8,0,1.2-0.1c1.5-0.2,3.1-0.7,4.7-1.6c1.9-1.1,3.7-2.6,5.8-4.9c2.1,2.2,3.9,3.8,5.8,4.9c1.5,0.9,3.1,1.4,4.7,1.6
		c0.4,0,0.8,0.1,1.2,0.1c1.3,0,2.6-0.2,3.8-0.7c3.3-1.3,5.6-4.3,6.1-7.8C43.7,38.2,43.5,36.6,42.9,34.9z M21.7,37.3
		c-2.5-3.2-4.2-6.2-4.7-8.7c-0.2-1.1-0.3-2-0.1-2.9c0.1-0.7,0.4-1.4,0.7-2c0.9-1.3,2.4-2.1,4.1-2.1c1.7,0,3.3,0.7,4.1,2.1
		c0.4,0.6,0.7,1.2,0.7,2c0.1,0.8,0.1,1.8-0.1,2.9C25.9,31.1,24.3,34.1,21.7,37.3z M40.4,39.5c-0.3,2.4-2,4.5-4.3,5.5
		c-1.1,0.5-2.3,0.6-3.6,0.5c-1.2-0.1-2.3-0.5-3.6-1.2c-1.7-0.9-3.4-2.4-5.3-4.5c3.1-3.8,5-7.3,5.7-10.4c0.3-1.5,0.4-2.8,0.2-4
		c-0.2-1.2-0.6-2.2-1.3-3.2c-1.5-2.1-3.9-3.3-6.6-3.3s-5.2,1.3-6.6,3.3c-0.7,0.9-1.1,2-1.3,3.2c-0.2,1.2-0.1,2.6,0.2,4
		c0.7,3.1,2.6,6.6,5.7,10.4c-1.9,2.2-3.7,3.6-5.3,4.5c-1.2,0.7-2.4,1.1-3.6,1.2c-1.3,0.1-2.5,0-3.6-0.5C5,44.1,3.4,42,3,39.5
		c-0.1-1.2,0-2.3,0.4-3.7c0.1-0.5,0.4-0.9,0.6-1.5c0.3-0.7,0.7-1.5,1.1-2.3l0-0.1c3.2-7,6.7-14.1,10.3-21l0.1-0.3
		c0.4-0.7,0.7-1.5,1.1-2.2c0.4-0.7,0.8-1.5,1.3-2.1c1-1.1,2.3-1.7,3.7-1.7s2.8,0.6,3.7,1.7c0.5,0.6,0.9,1.3,1.3,2.1
		c0.4,0.7,0.7,1.5,1.1,2.2l0.1,0.3c3.6,7,7,14.1,10.3,21.1v0c0.4,0.7,0.7,1.6,1.1,2.3c0.2,0.6,0.5,1,0.6,1.5
		C40.5,37.1,40.6,38.3,40.4,39.5z"/>
</g>
</svg>
