<?xml version="1.0" encoding="utf-8"?>
<!-- Generator: Adobe Illustrator 27.0.0, SVG Export Plug-In . SVG Version: 6.00 Build 0)  -->
<svg version="1.1" id="Layer_1" xmlns="http://www.w3.org/2000/svg" xmlns:xlink="http://www.w3.org/1999/xlink" x="0px" y="0px"
	 width="150px" height="50px" viewBox="0 0 150 50" style="enable-background:new 0 0 150 50;" xml:space="preserve">
<style type="text/css">
	.st0{fill:#FFFFFF;}
	.st1{fill-rule:evenodd;clip-rule:evenodd;fill:#FFFFFF;}
</style>
<g>
	<path class="st1" d="M61.5,19.6l3.1,10c-0.9,0.3-2,0.5-3.1,0.5c-1.2,0-2.2-0.2-3.2-0.6L61.5,19.6L61.5,19.6z"/>
	<path class="st1" d="M90.3,20.3c0,3.1-2.3,4.1-5.3,4.1h-2.2v-8H85C88,16.3,90.3,17.3,90.3,20.3z"/>
	<path class="st1" d="M24.5,0v50h51.1l50-50H24.5z M86,31.2h-3.2l0,8.8l-15.1,0l-1-3.8c-1.6,0.5-3.3,0.8-5.2,0.8
		c-1.9,0-3.7-0.3-5.3-0.8L54.6,40l-8.4,0l0.4-2c-0.1,0.1-0.2,0.2-0.4,0.3c-2.2,1.8-5.1,2.6-8.6,2.7l-0.9,0c-4,0-7.5-1-10.9-2.8
		l3.1-6.1c3.3,2,5.4,2.4,8.2,2.3c1.5,0,2.5-0.3,3.2-1c0.4-0.4,0.6-1,0.7-1.6c0-1.6-2.2-2.3-5-3.2c-2.2-0.7-4.8-1.6-6.8-3.1
		c-2.3-1.7-3.5-3.9-3.4-6.9c0-2.2,0.8-4.2,2.4-5.8c2.2-2.3,5.7-3.6,10-3.6h0c3.6,0,8.1,1,11.3,2.7L46,18c-3.5-1.7-5.3-1.9-7.3-2
		c-3-0.2-4.5,0.9-4.5,2.1c0,1.4,2.8,2.7,5.5,3.5c4.1,1.3,9.2,3,10,8L57.2,10h8.6l8.7,23.5l0-23.5h10c9.5,0,14,3.2,14,10.6
		C98.4,27.2,93.8,31.2,86,31.2z"/>
</g>
</svg>
