<?xml version="1.0" encoding="utf-8"?>
<!-- Generator: Adobe Illustrator 27.0.0, SVG Export Plug-In . SVG Version: 6.00 Build 0)  -->
<svg version="1.1" id="Layer_1" xmlns="http://www.w3.org/2000/svg" xmlns:xlink="http://www.w3.org/1999/xlink" x="0px" y="0px"
	 width="150px" height="50px" viewBox="0 0 150 50" style="enable-background:new 0 0 150 50;" xml:space="preserve">
<style type="text/css">
	.st0{fill:#FFFFFF;}
	.st1{fill-rule:evenodd;clip-rule:evenodd;fill:#FFFFFF;}
</style>
<g>
	<path class="st0" d="M51.1,30.6V19.4c0-0.7,0.6-1.2,1.2-1.2c0.7,0,1.2,0.6,1.2,1.2v11.1c0,0.7-0.6,1.2-1.2,1.2
		C51.7,31.8,51.1,31.2,51.1,30.6z M65.3,31l-5.4-8.6v8.1c0,0.7-0.6,1.2-1.2,1.2c-0.7,0-1.2-0.6-1.2-1.2V19.8c0-0.9,0.7-1.7,1.7-1.7
		h0.1c0.6,0,1.1,0.3,1.4,0.8l5.4,8.5v-8c0-0.7,0.6-1.2,1.2-1.2s1.2,0.6,1.2,1.2v10.8c0,0.9-0.7,1.7-1.7,1.7
		C66.1,31.8,65.6,31.5,65.3,31L65.3,31z M77.1,20.5v10.2c0,0.6-0.5,1.2-1.2,1.2h-0.2c-0.6,0-1.2-0.5-1.2-1.2V20.5h-2.9
		c-0.6,0-1.2-0.5-1.2-1.2c0-0.6,0.5-1.2,1.2-1.2H80c0.6,0,1.2,0.5,1.2,1.2c0,0.6-0.5,1.2-1.2,1.2H77.1z M83.1,30.7V19.3
		c0-0.6,0.5-1.1,1.1-1.1h7.5c0.6,0,1.1,0.5,1.1,1.1c0,0.6-0.5,1.1-1.1,1.1h-6.1v3.2h5.3c0.6,0,1.1,0.5,1.1,1.1
		c0,0.6-0.5,1.1-1.1,1.1h-5.3v3.7h6.1c0.6,0,1.1,0.5,1.1,1.1c0,0.6-0.5,1.1-1.1,1.1h-7.5C83.6,31.8,83.1,31.3,83.1,30.7L83.1,30.7z
		 M103.3,31.1l-2-4.4h-3v3.9c0,0.7-0.6,1.2-1.2,1.2h0c-0.7,0-1.2-0.6-1.2-1.2V19.4c0-0.7,0.6-1.2,1.2-1.2h4.5c3.3,0,4.8,2.1,4.8,4.2
		c0,1.8-1,3.3-2.5,3.8l1.7,3.9c0.3,0.8-0.2,1.7-1.1,1.7C103.9,31.8,103.5,31.5,103.3,31.1L103.3,31.1z M101.6,20.3h-3.3v4.1h3.3
		c1.4,0,2.2-0.7,2.2-2C103.8,21.3,103,20.3,101.6,20.3L101.6,20.3z M118.1,30.4c-1,1-2.4,1.6-3.9,1.6c-1.5,0-2.8-0.5-3.9-1.5
		c-1.5-1.5-1.7-3.3-1.7-5.5s0.2-4.1,1.7-5.5c1-1,2.4-1.5,3.9-1.5c1.5,0,2.9,0.6,3.9,1.6c0.3,0.4,0.6,0.8,0.9,1.2
		c0.4,0.8-0.2,1.7-1.1,1.7c-0.5,0-0.9-0.3-1.2-0.8c-0.1-0.3-0.3-0.5-0.4-0.7c-0.4-0.6-1.2-0.9-2.1-0.9c-0.8,0-1.5,0.3-2.1,0.9
		c-0.9,1-0.9,2.7-0.9,3.9c0,1.2,0,3,0.9,3.9c0.6,0.6,1.3,0.9,2.1,0.9c0.9,0,1.6-0.3,2.1-0.9c0.2-0.2,0.3-0.5,0.4-0.7
		c0.2-0.5,0.6-0.8,1.2-0.8c0.9,0,1.5,0.9,1.1,1.7C118.7,29.7,118.5,30.1,118.1,30.4z M131.4,30.5c-1,1-2.5,1.5-3.9,1.5
		c-1.5,0-2.9-0.5-3.9-1.5c-1.5-1.5-1.7-3.3-1.7-5.5s0.3-4.1,1.7-5.5c1-1,2.5-1.5,3.9-1.5s2.9,0.5,3.9,1.5c1.5,1.5,1.7,3.3,1.7,5.5
		C133.2,27.2,132.9,29.1,131.4,30.5z M129.7,21.1c-0.6-0.6-1.4-0.9-2.1-0.9s-1.6,0.3-2.1,0.9c-0.9,1-1,2.7-1,3.9c0,1.2,0,2.9,1,3.9
		c0.6,0.6,1.4,0.9,2.1,0.9s1.6-0.3,2.1-0.9c0.9-1,1-2.7,1-3.9C130.7,23.8,130.6,22,129.7,21.1L129.7,21.1z M147.6,30.6v-8.5
		l-3.2,8.7c-0.2,0.5-0.7,0.9-1.2,0.9s-1-0.3-1.2-0.9l-3.2-8.8v8.6c0,0.7-0.6,1.2-1.2,1.2c-0.7,0-1.2-0.6-1.2-1.2V20
		c0-1,0.9-1.9,1.9-1.9h0.2c0.8,0,1.5,0.5,1.8,1.2l3.1,8.5l3.2-8.5c0.3-0.7,1-1.2,1.8-1.2c1,0,1.9,0.9,1.9,1.9v10.6
		c0,0.7-0.6,1.2-1.2,1.2C148.1,31.8,147.6,31.3,147.6,30.6L147.6,30.6z M33.7,5.7H4.8C2.1,5.7,0,7.9,0,10.5v28.9
		c0,2.7,2.1,4.8,4.8,4.8h28.9c2.7,0,4.8-2.1,4.8-4.8V10.6C38.5,7.9,36.4,5.7,33.7,5.7z M24.4,12.8c0-0.7,0.6-1.3,1.3-1.3
		c0.7,0,1.3,0.6,1.3,1.3V30c0,0.7-0.6,1.3-1.3,1.3c-0.7,0-1.3-0.6-1.3-1.3V12.8z M18,12.2c0-0.7,0.6-1.3,1.3-1.3
		c0.7,0,1.3,0.6,1.3,1.3v18.6c0,0.7-0.6,1.3-1.3,1.3c-0.7,0-1.3-0.6-1.3-1.3V12.2z M11.6,12.8c0-0.7,0.6-1.3,1.3-1.3
		c0.7,0,1.3,0.6,1.3,1.3V30c0,0.7-0.6,1.3-1.3,1.3c-0.7,0-1.3-0.6-1.3-1.3V12.8z M5.1,15.4c0-0.7,0.6-1.3,1.3-1.3
		c0.7,0,1.3,0.6,1.3,1.3v11.6c0,0.7-0.6,1.3-1.3,1.3s-1.3-0.6-1.3-1.3V15.4z M33,35c-0.2,0.2-5,4.2-13.7,4.2S5.8,35.1,5.6,35
		C5,34.5,5,33.7,5.4,33.2c0.5-0.6,1.3-0.6,1.8-0.1c0.1,0,4.3,3.5,12,3.5c7.8,0,12-3.5,12-3.6c0.6-0.5,1.4-0.4,1.8,0.1
		C33.6,33.7,33.5,34.5,33,35L33,35z M33.4,26.9c0,0.7-0.6,1.3-1.3,1.3c-0.7,0-1.3-0.6-1.3-1.3V15.4c0-0.7,0.6-1.3,1.3-1.3
		c0.7,0,1.3,0.6,1.3,1.3V26.9z"/>
</g>
</svg>
