<?xml version="1.0" encoding="utf-8"?>
<!-- Generator: Adobe Illustrator 27.0.0, SVG Export Plug-In . SVG Version: 6.00 Build 0)  -->
<svg version="1.1" id="Layer_1" xmlns="http://www.w3.org/2000/svg" xmlns:xlink="http://www.w3.org/1999/xlink" x="0px" y="0px"
	 width="150px" height="50px" viewBox="0 0 150 50" style="enable-background:new 0 0 150 50;" xml:space="preserve">
<style type="text/css">
	.st0{fill:#FFFFFF;}
	.st1{fill-rule:evenodd;clip-rule:evenodd;fill:#FFFFFF;}
</style>
<g>
	<path class="st0" d="M70.9,21.9c-0.7-0.8-1.8-1-2.5-1h-0.1c-0.7,0-1.8,0.3-2.5,1c-0.7,0.8-1,1.7-1,2.4v0.1c0,0.7,0.2,1.6,1,2.4
		c0.7,0.8,1.8,1,2.5,1h0.1c0.7,0,1.8-0.3,2.5-1c0.7-0.8,1-1.7,1-2.4v-0.1C71.8,23.6,71.6,22.7,70.9,21.9z M70.9,21.9
		c-0.7-0.8-1.8-1-2.5-1h-0.1c-0.7,0-1.8,0.3-2.5,1c-0.7,0.8-1,1.7-1,2.4v0.1c0,0.7,0.2,1.6,1,2.4c0.7,0.8,1.8,1,2.5,1h0.1
		c0.7,0,1.8-0.3,2.5-1c0.7-0.8,1-1.7,1-2.4v-0.1C71.8,23.6,71.6,22.7,70.9,21.9z M70.9,21.9c-0.7-0.8-1.8-1-2.5-1h-0.1
		c-0.7,0-1.8,0.3-2.5,1c-0.7,0.8-1,1.7-1,2.4v0.1c0,0.7,0.2,1.6,1,2.4c0.7,0.8,1.8,1,2.5,1h0.1c0.7,0,1.8-0.3,2.5-1
		c0.7-0.8,1-1.7,1-2.4v-0.1C71.8,23.6,71.6,22.7,70.9,21.9z M94,21.4l-2.3,4h4.5L94,21.4z M94,21.4l-2.3,4h4.5L94,21.4z M70.9,21.9
		c-0.7-0.8-1.8-1-2.5-1h-0.1c-0.7,0-1.8,0.3-2.5,1c-0.7,0.8-1,1.7-1,2.4v0.1c0,0.7,0.2,1.6,1,2.4c0.7,0.8,1.8,1,2.5,1h0.1
		c0.7,0,1.8-0.3,2.5-1c0.7-0.8,1-1.7,1-2.4v-0.1C71.8,23.6,71.6,22.7,70.9,21.9z M70.9,21.9c-0.7-0.8-1.8-1-2.5-1h-0.1
		c-0.7,0-1.8,0.3-2.5,1c-0.7,0.8-1,1.7-1,2.4v0.1c0,0.7,0.2,1.6,1,2.4c0.7,0.8,1.8,1,2.5,1h0.1c0.7,0,1.8-0.3,2.5-1
		c0.7-0.8,1-1.7,1-2.4v-0.1C71.8,23.6,71.6,22.7,70.9,21.9z M94,21.4l-2.3,4h4.5L94,21.4z M94,21.4l-2.3,4h4.5L94,21.4z M70.9,21.9
		c-0.7-0.8-1.8-1-2.5-1h-0.1c-0.7,0-1.8,0.3-2.5,1c-0.7,0.8-1,1.7-1,2.4v0.1c0,0.7,0.2,1.6,1,2.4c0.7,0.8,1.8,1,2.5,1h0.1
		c0.7,0,1.8-0.3,2.5-1c0.7-0.8,1-1.7,1-2.4v-0.1C71.8,23.6,71.6,22.7,70.9,21.9z M0,16v18h150V16H0z M11,29c0,0.2-0.1,0.2-0.3,0
		c-0.2-0.2-1.1-1.1-2-1.4c-0.9-0.3-1-0.2-1.9-0.2c-0.9,0-1.7-0.1-1.8-0.1c-0.1-0.1-0.2-0.1-0.2-0.4l0.9-6.5c0-0.3,0-0.4,0.5-0.3
		c0.5,0.1,1.8,0.1,2,0.1c0.4,0,1.2,0.2,1.7,0.7c0.5,0.5,1.2,1.1,1.2,1.5L11,29z M17.1,27.2c-0.2,0-1.2,0.1-1.4,0.1
		c-0.2,0-1.8,0.1-3,0.7c-0.3,0.2-0.6,0.4-0.9,0.7c-0.2,0.2-0.3,0.2-0.3-0.1l0-6.2c0-0.5,0.5-0.9,0.7-1.1c0.5-0.5,1-0.8,1.7-1
		c0.6-0.2,1.2-0.1,1.6-0.2c0.8-0.1,0.8-0.1,1-0.2c0.2,0,0.2-0.1,0.3,0.2l0.8,6.3C17.5,27.2,17.4,27.1,17.1,27.2z M30.1,27.2
		c-0.5,0.7-1.1,1.1-1.9,1.2c-1,0.3-2.1,0.2-3.1-0.1c-0.9-0.2-1.6-0.4-2.2-0.1c-0.1,0.1-0.2,0-0.2-0.1c0-0.2-0.1-1.8-0.1-2
		c0-0.1,0.1-0.1,0.1,0c0.3,0.3,1.3,1,2.3,1.4c0.9,0.3,1.7,0.4,2.7,0.1c0.5-0.1,0.8-0.5,1-0.7c0.2-0.3,0.2-0.9-0.1-1.2
		c-0.2-0.2-0.4-0.5-2.5-0.8c-2.1-0.3-2.7-0.8-3.1-1.4c-0.5-0.8-0.4-1.6-0.1-2.2c0.4-0.7,1-1,1.5-1.2c0.7-0.3,1.7-0.3,2.8-0.2
		c1.1,0.2,1.5,0.5,2,0.3c0.2-0.1,0.2-0.1,0.3,0.1c0,0.3,0.1,1.7,0.2,1.8c0,0.1,0,0.2-0.1,0.1c-0.2-0.2-0.9-1-2-1.3
		c-0.8-0.2-1.5-0.2-2,0c-0.6,0.1-0.9,0.4-1.1,0.7c-0.3,0.4-0.2,1,0.1,1.3c0.4,0.4,1.1,0.5,1.8,0.6c0.7,0.1,1.9,0.3,2.5,0.5
		c0.5,0.2,1,0.6,1.3,1C30.5,25.6,30.5,26.6,30.1,27.2z M43.3,27.8c0,0.1,0,0.1-0.2,0.2c-0.2,0.1-0.8,0.3-1.2,0.4
		c-1.1,0.3-2.5,0.2-3.5-0.1c-1-0.3-2.1-0.9-2.9-2.1c-0.8-1.3-0.7-3,0.1-4.1c1-1.4,1.9-1.8,2.9-2.1c1-0.3,2.1-0.3,3.1-0.1
		c0.4,0.1,1.2,0.3,1.4,0.4c0.1,0.1,0.1,0.1,0.2,0.2c0,0,0.1,1.1,0.1,1.3c0,0.1-0.1,0.1-0.1,0.1c-0.4-0.5-1.2-0.9-1.7-1.1
		c-0.8-0.3-1.9-0.3-2.6,0c-0.5,0.2-1.2,0.6-1.7,1.4c-0.8,1.3-0.5,2.7-0.2,3.3c0.2,0.4,0.6,1.1,1.7,1.7c1.1,0.5,2.2,0.4,3,0
		c0.7-0.3,1.3-0.7,1.7-1.1c0.1-0.1,0.2-0.1,0.1,0.1C43.5,26.7,43.3,27.6,43.3,27.8z M58.5,28.4c0.1,0,0.1,0.1,0,0.1h-3
		c-0.1,0-0.1-0.1,0-0.1c0.7-0.3,0.8-0.9,0.8-1.3v-2.8h-5.6v2.8c0,0.3,0.1,1,0.8,1.3c0.1,0,0.1,0.1,0,0.1h-3c-0.1,0-0.1-0.1,0-0.1
		c0.7-0.3,0.8-0.9,0.8-1.3v-5.7c0-0.3-0.1-1-0.8-1.3c-0.1,0-0.1-0.1,0-0.1h3c0.1,0,0.1,0.1,0,0.1c-0.7,0.2-0.8,0.9-0.8,1.3v2.1h5.6
		v-2.1c0-0.3-0.1-1-0.8-1.3c-0.1,0-0.1-0.1,0-0.1h3c0.1,0,0.1,0.1,0,0.1c-0.7,0.2-0.8,0.9-0.8,1.3v5.7
		C57.7,27.4,57.8,28.1,58.5,28.4z M73.6,24.3c0,0.8-0.3,2.1-1.6,3.2c-1.3,1.1-3.1,1.2-3.6,1.2h-0.1c-0.5,0-2.3,0-3.6-1.2
		c-1.3-1.1-1.6-2.3-1.6-3.2v-0.1c0-0.9,0.3-2.1,1.6-3.2C66,20,67.8,20,68.3,20h0.1c0.5,0,2.3,0,3.6,1.2
		C73.3,22.2,73.6,23.4,73.6,24.3L73.6,24.3z M84.8,28.7c0,0.1-0.1,0.1-0.1,0.1c-0.3-0.2-0.8-0.3-1.2-0.3h-5.1c-0.1,0-0.1-0.1,0-0.1
		c0.7-0.3,0.8-1,0.8-1.3v-5.7c0-0.3-0.1-1-0.8-1.3c-0.1,0-0.1-0.1,0-0.1h3.1c0.1,0,0.1,0.1,0,0.1c-0.8,0.3-0.9,0.8-0.9,1.2v6.3
		c0,0,1.9,0,2.9,0c1,0,1.7-0.6,1.8-0.7c0.1-0.1,0.1,0,0.1,0.1C85.4,27.3,84.9,28.5,84.8,28.7z M99.9,28.5h-2.6c-0.1,0-0.1-0.1,0-0.1
		c0.1,0,0.4-0.2,0.2-0.7c-0.2-0.3-0.8-1.4-0.8-1.4h-5.3c0,0-0.7,1.2-0.8,1.4c-0.1,0.2-0.1,0.5,0.1,0.7c0.1,0,0.1,0.1,0,0.1h-1.9
		c-0.1,0-0.1-0.1,0-0.1c0.2-0.1,0.5-0.2,1-1c0.5-0.8,3.5-6.2,3.7-6.4c0.1-0.3,0.2-0.5-0.1-0.8l0-0.1h1.5c0,0,4,7,4.3,7.4
		c0.2,0.4,0.6,0.7,0.9,0.9C100,28.4,100,28.5,99.9,28.5z M111.4,27.2c-0.5,0.7-1.1,1-1.8,1.2c-1,0.3-2.1,0.2-3.1-0.1
		c-0.9-0.2-1.6-0.4-2.2-0.1c-0.1,0.1-0.2,0-0.2-0.1c0-0.2-0.1-1.7-0.1-2c0-0.1,0.1-0.1,0.1,0c0.3,0.3,1.3,1,2.3,1.4
		c0.9,0.3,1.7,0.4,2.7,0.1c0.5-0.1,0.8-0.5,1-0.7c0.2-0.3,0.2-0.9-0.1-1.2c-0.2-0.2-0.4-0.5-2.5-0.8c-2.1-0.3-2.7-0.8-3.1-1.4
		c-0.5-0.8-0.4-1.6,0-2.2c0.4-0.7,1-1,1.5-1.2c0.7-0.3,1.7-0.3,2.8-0.2c1.1,0.2,1.5,0.5,2,0.3c0.2-0.1,0.2-0.1,0.3,0.1
		c0,0.3,0.1,1.7,0.1,1.8s0,0.2-0.1,0.1c-0.2-0.2-1-1-2-1.3c-0.8-0.2-1.5-0.2-2-0.1c-0.6,0.2-0.9,0.4-1.1,0.7c-0.3,0.4-0.2,1,0.1,1.3
		c0.4,0.4,1.1,0.5,1.8,0.6c0.7,0.1,1.9,0.3,2.5,0.5c0.5,0.2,1,0.6,1.3,1C111.8,25.6,111.8,26.6,111.4,27.2z M124.9,19.9
		c-0.2,0.3-0.8,1-1,1.3c-0.1,0.1-0.1,0-0.2,0c-0.1-0.1-0.3-0.3-1-0.3H121v6.2c0,0.3,0.1,1,0.8,1.3c0.1,0,0.1,0.1,0,0.1h-3
		c-0.1,0-0.1-0.1,0-0.1c0.7-0.2,0.8-0.9,0.8-1.3V21h-2.2c-0.5,0-0.7,0-1.2,0.3c-0.1,0.1-0.2,0-0.1-0.1c0.3-0.3,0.8-1,1.1-1.4l0.1,0
		c0.1,0.1,0.5,0.3,1,0.3h5.2C123.8,20.1,124.3,20,124.9,19.9C124.9,19.8,125,19.8,124.9,19.9z M132.4,28.4
		C132.5,28.4,132.5,28.5,132.4,28.4l-3,0.1c-0.1,0-0.1-0.1,0-0.1c0.7-0.2,0.8-0.9,0.8-1.3v-5.7c0-0.3-0.1-1-0.8-1.3
		c-0.1,0-0.1-0.1,0-0.1h3c0.1,0,0.1,0.1,0,0.1c-0.7,0.3-0.8,0.9-0.8,1.3v5.7C131.6,27.5,131.7,28.1,132.4,28.4z M145.4,27.8
		c0,0.1-0.1,0.1-0.2,0.2c-0.2,0.1-0.8,0.3-1.2,0.4c-1.1,0.3-2.5,0.2-3.5-0.1c-1-0.3-2.1-0.9-2.9-2.1c-0.8-1.3-0.7-3,0.1-4.1
		c1-1.4,1.9-1.8,2.9-2.1c1-0.3,2.1-0.3,3.1-0.1c0.4,0.1,1.2,0.3,1.4,0.4c0.1,0.1,0.1,0.1,0.2,0.2c0,0,0.1,1.1,0.1,1.3
		c0,0.1-0.1,0.1-0.2,0.1c-0.4-0.5-1.1-0.9-1.7-1.1c-0.8-0.3-1.9-0.3-2.6,0c-0.5,0.2-1.2,0.6-1.7,1.4c-0.8,1.3-0.5,2.7-0.2,3.3
		c0.2,0.4,0.6,1.1,1.7,1.7c1.1,0.5,2.2,0.4,3,0c0.7-0.3,1.3-0.7,1.7-1.1c0.1-0.1,0.2-0.1,0.1,0.1C145.6,26.7,145.5,27.6,145.4,27.8z
		 M91.8,25.4h4.5l-2.2-4L91.8,25.4z M68.4,20.8L68.4,20.8c-0.8,0-1.9,0.3-2.6,1c-0.7,0.8-1,1.7-1,2.4v0.1c0,0.7,0.2,1.6,1,2.4
		c0.7,0.8,1.8,1,2.5,1h0.1c0.7,0,1.8-0.3,2.5-1c0.7-0.8,1-1.7,1-2.4v-0.1c0-0.7-0.2-1.6-1-2.4C70.1,21.1,69.1,20.8,68.4,20.8z
		 M70.9,21.9c-0.7-0.8-1.8-1-2.5-1h-0.1c-0.7,0-1.8,0.3-2.5,1c-0.7,0.8-1,1.7-1,2.4v0.1c0,0.7,0.2,1.6,1,2.4c0.7,0.8,1.8,1,2.5,1
		h0.1c0.7,0,1.8-0.3,2.5-1c0.7-0.8,1-1.7,1-2.4v-0.1C71.8,23.6,71.6,22.7,70.9,21.9z M94,21.4l-2.3,4h4.5L94,21.4z M94,21.4l-2.3,4
		h4.5L94,21.4z M70.9,21.9c-0.7-0.8-1.8-1-2.5-1h-0.1c-0.7,0-1.8,0.3-2.5,1c-0.7,0.8-1,1.7-1,2.4v0.1c0,0.7,0.2,1.6,1,2.4
		c0.7,0.8,1.8,1,2.5,1h0.1c0.7,0,1.8-0.3,2.5-1c0.7-0.8,1-1.7,1-2.4v-0.1C71.8,23.6,71.6,22.7,70.9,21.9z M70.9,21.9
		c-0.7-0.8-1.8-1-2.5-1h-0.1c-0.7,0-1.8,0.3-2.5,1c-0.7,0.8-1,1.7-1,2.4v0.1c0,0.7,0.2,1.6,1,2.4c0.7,0.8,1.8,1,2.5,1h0.1
		c0.7,0,1.8-0.3,2.5-1c0.7-0.8,1-1.7,1-2.4v-0.1C71.8,23.6,71.6,22.7,70.9,21.9z M94,21.4l-2.3,4h4.5L94,21.4z M94,21.4l-2.3,4h4.5
		L94,21.4z M70.9,21.9c-0.7-0.8-1.8-1-2.5-1h-0.1c-0.7,0-1.8,0.3-2.5,1c-0.7,0.8-1,1.7-1,2.4v0.1c0,0.7,0.2,1.6,1,2.4
		c0.7,0.8,1.8,1,2.5,1h0.1c0.7,0,1.8-0.3,2.5-1c0.7-0.8,1-1.7,1-2.4v-0.1C71.8,23.6,71.6,22.7,70.9,21.9z M70.9,21.9
		c-0.7-0.8-1.8-1-2.5-1h-0.1c-0.7,0-1.8,0.3-2.5,1c-0.7,0.8-1,1.7-1,2.4v0.1c0,0.7,0.2,1.6,1,2.4c0.7,0.8,1.8,1,2.5,1h0.1
		c0.7,0,1.8-0.3,2.5-1c0.7-0.8,1-1.7,1-2.4v-0.1C71.8,23.6,71.6,22.7,70.9,21.9z M70.9,21.9c-0.7-0.8-1.8-1-2.5-1h-0.1
		c-0.7,0-1.8,0.3-2.5,1c-0.7,0.8-1,1.7-1,2.4v0.1c0,0.7,0.2,1.6,1,2.4c0.7,0.8,1.8,1,2.5,1h0.1c0.7,0,1.8-0.3,2.5-1
		c0.7-0.8,1-1.7,1-2.4v-0.1C71.8,23.6,71.6,22.7,70.9,21.9z"/>
	<path class="st0" d="M71.8,24.3L71.8,24.3c0,0.7-0.2,1.7-1,2.4c-0.7,0.8-1.8,1-2.5,1h-0.1c-0.7,0-1.8-0.3-2.5-1
		c-0.7-0.8-1-1.7-1-2.4v-0.1c0-0.7,0.2-1.6,1-2.4c0.7-0.8,1.8-1,2.5-1h0.1c0.7,0,1.8,0.3,2.5,1C71.6,22.7,71.8,23.6,71.8,24.3z"/>
	<polygon class="st0" points="96.2,25.4 91.8,25.4 94,21.4 	"/>
	<path class="st0" d="M71.8,24.3L71.8,24.3c0,0.7-0.2,1.7-1,2.4c-0.7,0.8-1.8,1-2.5,1h-0.1c-0.7,0-1.8-0.3-2.5-1
		c-0.7-0.8-1-1.7-1-2.4v-0.1c0-0.7,0.2-1.6,1-2.4c0.7-0.8,1.8-1,2.5-1h0.1c0.7,0,1.8,0.3,2.5,1C71.6,22.7,71.8,23.6,71.8,24.3z"/>
	<polygon class="st0" points="96.2,25.4 91.8,25.4 94,21.4 	"/>
</g>
</svg>
