<?xml version="1.0" encoding="utf-8"?>
<!-- Generator: Adobe Illustrator 27.0.0, SVG Export Plug-In . SVG Version: 6.00 Build 0)  -->
<svg version="1.1" id="Layer_1" xmlns="http://www.w3.org/2000/svg" xmlns:xlink="http://www.w3.org/1999/xlink" x="0px" y="0px"
	 width="150px" height="50px" viewBox="0 0 150 50" style="enable-background:new 0 0 150 50;" xml:space="preserve">
<style type="text/css">
	.st0{fill:#FFFFFF;}
	.st1{fill-rule:evenodd;clip-rule:evenodd;fill:#FFFFFF;}
</style>
<g>
	<path class="st0" d="M26.2,8.6C26.2,8.6,26.2,8.6,26.2,8.6L26.2,8.6C26.2,8.6,26.2,8.6,26.2,8.6z"/>
	<path class="st0" d="M25.3,8.5c0,0-0.5,0.1-1.3,0.4c-0.1-0.4-0.3-1-0.6-1.5c-0.9-1.7-2.2-2.6-3.8-2.6c0,0,0,0,0,0
		c-0.1,0-0.2,0-0.3,0c0-0.1-0.1-0.1-0.1-0.2c-0.7-0.7-1.6-1.1-2.6-1.1c-2,0.1-4.1,1.5-5.7,4.1c-1.2,1.8-2,4.1-2.3,5.9
		c-2.3,0.7-4,1.2-4,1.2c-1.2,0.4-1.2,0.4-1.4,1.5C3.1,17.3,0,41.2,0,41.2l25.9,4.5V8.5C25.7,8.5,25.4,8.5,25.3,8.5z M19.4,10.4
		c-1.4,0.4-2.8,0.9-4.3,1.3c0.4-1.6,1.2-3.2,2.2-4.2c0.4-0.4,0.9-0.8,1.5-1.1C19.3,7.6,19.4,9.2,19.4,10.4z M16.6,5
		c0.5,0,0.9,0.1,1.2,0.3c-0.6,0.3-1.1,0.7-1.6,1.2c-1.3,1.4-2.3,3.5-2.7,5.6c-1.2,0.4-2.4,0.8-3.6,1.1C10.7,10,13.5,5.1,16.6,5z
		 M12.7,23.6c0.1,2.2,5.9,2.7,6.2,7.8c0.3,4-2.1,6.8-5.6,7c-4.1,0.3-6.4-2.2-6.4-2.2l0.9-3.7c0,0,2.3,1.7,4.1,1.6
		c1.2-0.1,1.6-1.1,1.6-1.7c-0.2-2.8-4.8-2.7-5.1-7.3c-0.3-3.9,2.3-7.9,8-8.3c2.2-0.1,3.3,0.4,3.3,0.4L18.4,22c0,0-1.5-0.7-3.2-0.6
		C12.7,21.6,12.6,23.2,12.7,23.6z M20.7,9.9c0-1-0.1-2.5-0.6-3.7c1.5,0.3,2.3,2,2.6,3.1C22.2,9.5,21.5,9.7,20.7,9.9z"/>
	<path class="st0" d="M37.9,42.9l-11.2,2.8V8.5c0.1,0,0.2,0,0.3,0.1c0,0,0,0,0,0c0,0,0,0,0,0c0,0,0,0,0.1,0.1
		c0.4,0.4,1.9,1.8,2.4,2.4c0,0,0,0,0.1,0.1c0,0,0,0,0.1,0.1c0,0,0.1,0,0.1,0.1c0,0,0,0,0,0s3,0,3.1,0.1c0,0,0.1,0,0.1,0
		c0,0,0.1,0,0.1,0.1c0,0,0.1,0.1,0.1,0.1s0,0.1,0,0.1C33.3,11.9,37.9,42.9,37.9,42.9z"/>
	<path class="st0" d="M51.9,27.4c-1.3-0.7-2-1.3-2-2.1c0-1,0.9-1.7,2.4-1.7c1.7,0,3.2,0.7,3.2,0.7l1.2-3.6c0,0-1.1-0.8-4.3-0.8
		c-4.4,0-7.5,2.5-7.5,6.1c0,2,1.4,3.6,3.4,4.7c1.5,0.9,2.1,1.5,2.1,2.4c0,1-0.8,1.7-2.2,1.7c-2.1,0-4.2-1.1-4.2-1.1l-1.3,3.6
		c0,0,1.9,1.3,5,1.3c4.6,0,7.8-2.2,7.8-6.3C55.5,30,53.9,28.5,51.9,27.4z"/>
	<path class="st0" d="M70.1,19.8c-2.2,0-4,1.1-5.4,2.7l-0.1,0l2-10.2h-5.1l-4.9,26h5.1l1.7-8.9c0.7-3.4,2.4-5.4,4-5.4
		c1.1,0,1.6,0.8,1.6,1.9c0,0.7-0.1,1.5-0.2,2.2l-1.9,10.2h5.1l2-10.5c0.2-1.1,0.4-2.4,0.4-3.3C74.2,21.5,72.7,19.8,70.1,19.8z"/>
	<path class="st0" d="M85.7,19.8c-6.1,0-10.2,5.5-10.2,11.7c0,3.9,2.4,7.1,7,7.1c6,0,10.1-5.4,10.1-11.7
		C92.6,23.2,90.5,19.8,85.7,19.8z M83.2,34.6c-1.7,0-2.5-1.5-2.5-3.3c0-2.9,1.5-7.7,4.3-7.7c1.8,0,2.4,1.5,2.4,3.1
		C87.4,29.9,85.9,34.6,83.2,34.6z"/>
	<path class="st0" d="M105.6,19.8c-3.4,0-5.4,3-5.4,3h-0.1l0.3-2.7H96c-0.2,1.8-0.6,4.6-1,6.7l-3.5,18.6h5.1l1.4-7.5H98
		c0,0,1,0.7,3,0.7c6,0,9.9-6.1,9.9-12.3C110.8,22.8,109.3,19.8,105.6,19.8z M100.7,34.7c-1.3,0-2.1-0.7-2.1-0.7l0.8-4.8
		c0.6-3.2,2.2-5.3,4-5.3c1.5,0,2,1.4,2,2.8C105.5,30,103.6,34.7,100.7,34.7z"/>
	<path class="st0" d="M118.1,12.5c-1.6,0-2.9,1.3-2.9,2.9c0,1.5,1,2.5,2.4,2.5h0.1c1.6,0,2.9-1.1,3-2.9
		C120.6,13.5,119.6,12.5,118.1,12.5z"/>
	<path class="st0" d="M111,38.2h5.1l3.5-18h-5.1L111,38.2z"/>
	<path class="st0" d="M132.5,20.1h-3.5l0.2-0.8c0.3-1.7,1.3-3.3,3-3.3c0.9,0,1.6,0.3,1.6,0.3l1-4c0,0-0.9-0.4-2.8-0.4
		c-1.8,0-3.6,0.5-5,1.7c-1.7,1.5-2.5,3.6-2.9,5.7l-0.1,0.8h-2.4l-0.7,3.8h2.4l-2.7,14.2h5.1l2.7-14.2h3.5L132.5,20.1z"/>
	<path class="st0" d="M144.7,20.2c0,0-3.2,8-4.6,12.4H140c-0.1-1.4-1.3-12.4-1.3-12.4h-5.3l3.1,16.5c0.1,0.4,0,0.6-0.1,0.8
		c-0.6,1.1-1.6,2.2-2.8,3.1c-1,0.7-2,1.1-2.9,1.4l1.4,4.3c1-0.2,3.2-1.1,5-2.8c2.3-2.2,4.5-5.5,6.7-10.1l6.2-13.3L144.7,20.2
		L144.7,20.2z"/>
</g>
</svg>
