<?xml version="1.0" encoding="utf-8"?>
<!-- Generator: Adobe Illustrator 27.1.0, SVG Export Plug-In . SVG Version: 6.00 Build 0)  -->
<svg version="1.1" id="Layer_1" xmlns="http://www.w3.org/2000/svg" xmlns:xlink="http://www.w3.org/1999/xlink" x="0px" y="0px"
	 width="50px" height="50px" viewBox="0 0 50 50" style="enable-background:new 0 0 50 50;" xml:space="preserve">
<style type="text/css">
	.st0{fill:#FFFFFF;}
</style>
<path id="Icon_ionic-logo-facebook" class="st0" d="M47.2,0H2.7C1.2,0-0.1,1.2-0.1,2.7v44.6c0,1.5,1.3,2.8,2.8,2.8H25V30.2h-6v-7.3
	h6v-5.4c0-6.5,4.5-10,10.3-10c2.8,0,5.8,0.2,6.4,0.3v6.8H37c-3.2,0-3.8,1.5-3.8,3.7v4.7h7.5l-1,7.3h-6.5V50h13.9
	c1.5,0,2.8-1.3,2.8-2.8V2.7C50,1.2,48.7,0,47.2,0z"/>
</svg>
