<?xml version="1.0" encoding="utf-8"?>
<!-- Generator: Adobe Illustrator 27.1.0, SVG Export Plug-In . SVG Version: 6.00 Build 0)  -->
<svg version="1.1" id="Layer_1" xmlns="http://www.w3.org/2000/svg" xmlns:xlink="http://www.w3.org/1999/xlink" x="0px" y="0px"
	 width="50px" height="50px" viewBox="0 0 50 50" style="enable-background:new 0 0 50 50;" xml:space="preserve">
<style type="text/css">
	.st0{fill:#FFFFFF;}
</style>
<path id="Exclusion_2" class="st0" d="M47.6,50H2.4C1.1,50,0,49,0,47.6V2.4C0,1.1,1.1,0,2.4,0h45.2c1.3,0,2.4,1,2.4,2.4v45.2
	C50,49,49,50,47.6,50z M18.1,8.4c-1.3,0-2.6,0.2-3.7,0.8c-2.4,1-4.2,2.9-5.2,5.2c-0.5,1.2-0.8,2.5-0.8,3.7V32c0,1.3,0.2,2.6,0.8,3.8
	c1,2.3,2.8,4.2,5.2,5.2c1.2,0.5,2.5,0.8,3.7,0.8H32c1.3,0,2.6-0.2,3.7-0.8c2.3-1,4.2-2.8,5.2-5.2c0.5-1.2,0.8-2.5,0.8-3.8V18.1
	c0-1.3-0.2-2.6-0.8-3.7c-1-2.4-2.8-4.2-5.2-5.2c-1.2-0.5-2.5-0.8-3.7-0.8L18.1,8.4z M32,39H18.1c-3.8,0-6.9-3.1-6.9-7V18.1
	c0-3.8,3.1-6.9,6.9-6.9H32c3.8,0,6.9,3.1,6.9,6.9V32C38.8,35.8,35.8,38.9,32,39z M25,16.7c-4.6,0-8.3,3.8-8.3,8.3
	c0,4.6,3.8,8.3,8.3,8.3c4.6,0,8.3-3.8,8.3-8.3c0-3.4-2-6.4-5-7.6C27.2,17,26.1,16.7,25,16.7z M34,14C32.9,14,32,14.9,32,16
	s0.9,2.1,2.1,2.1s2.1-1,2.1-2.1l0,0C36.1,14.9,35.2,14,34,14L34,14z M25,30.6c-3,0-5.5-2.5-5.5-5.6s2.5-5.5,5.5-5.5s5.5,2.5,5.5,5.5
	l0,0C30.6,28.1,28.1,30.6,25,30.6z"/>
</svg>
