<?xml version="1.0" encoding="utf-8"?>
<!-- Generator: Adobe Illustrator 27.1.0, SVG Export Plug-In . SVG Version: 6.00 Build 0)  -->
<svg version="1.1" id="Layer_1" xmlns="http://www.w3.org/2000/svg" xmlns:xlink="http://www.w3.org/1999/xlink" x="0px" y="0px"
	 width="159.4px" height="144.3px" viewBox="0 0 159.4 144.3" style="enable-background:new 0 0 159.4 144.3;" xml:space="preserve"
	>
<style type="text/css">
	.st0{fill:#FFFFFF;}
</style>
<g id="Layer_2_00000034063951731479812450000014208994823287652503_">
	<g id="Layer_1-2">
		<path class="st0" d="M154.9,4.5v100.3H4.5V4.5H154.9 M159.4,0H0v109.3h159.4V0z"/>
		<polygon class="st0" points="95.5,76 95.5,72.6 101.2,72.6 101.2,62.2 85.9,74.5 101.2,86.8 101.2,76 		"/>
		<polygon class="st0" points="58.9,48.5 75,35.5 58.9,22.4 		"/>
		<path class="st0" d="M120,22.7c-11.2-5.4-24.6-3.9-34.2,4L75,35.5l9.9,8h33.4v3.4H89l8.3,6.8h20.8V57h-16.6l36.8,29.8v-35
			C138.4,39.4,131.3,28,120,22.7z"/>
		<circle class="st0" cx="54.2" cy="35.4" r="4.5"/>
		<path class="st0" d="M4.6,135.7v8.3h-4v-21.3h7.6c1,0,2,0.1,2.9,0.5c0.8,0.3,1.5,0.7,2.1,1.3c0.6,0.6,1,1.3,1.3,2
			c0.3,0.8,0.4,1.7,0.4,2.5c0,0.9-0.2,1.9-0.5,2.7c-0.6,1.6-1.9,2.8-3.5,3.4c-0.9,0.3-1.8,0.5-2.7,0.5L4.6,135.7z M4.6,126.2v6h3.2
			c0.8,0.1,1.6-0.2,2.2-0.8c0.5-0.6,0.8-1.5,0.8-2.3c0-0.8-0.2-1.5-0.8-2.1c-0.6-0.5-1.4-0.8-2.2-0.8L4.6,126.2z"/>
		<path class="st0" d="M31.9,126.2h-5.3V144h-4v-17.8h-5.2v-3.6h14.5V126.2z"/>
		<path class="st0" d="M50.1,144h-4.1l-1.3-4.2h-7.8l-1.3,4.2h-3.9l6.9-21.3h4.6L50.1,144z M40.8,126.3c-0.1,0.4-0.1,0.7-0.2,1.1
			l-0.2,0.9c-0.1,0.3-0.1,0.6-0.2,0.9l-2.2,7.1h5.7l-2.1-7.1c-0.1-0.3-0.2-0.6-0.2-0.9s-0.1-0.7-0.2-0.9s-0.1-0.7-0.2-1L40.8,126.3z
			"/>
		<path class="st0" d="M57.2,135.1v8.9h-4v-21.3h8.9c1,0,1.9,0.1,2.8,0.5c0.7,0.3,1.4,0.7,2,1.3c0.5,0.5,1,1.2,1.2,1.9
			c0.3,0.8,0.4,1.6,0.4,2.4c0,0.6-0.1,1.2-0.2,1.8c-0.2,0.5-0.4,1.1-0.7,1.5c-0.3,0.5-0.7,0.9-1.1,1.2c-0.4,0.4-1,0.7-1.5,0.9
			l4.1,9.7h-4.2l-3.5-8.9H57.2z M57.2,126.2v5.3h4.4c0.8,0.1,1.6-0.2,2.1-0.8c0.5-0.6,0.7-1.3,0.7-2.1c0-0.7-0.2-1.3-0.6-1.8
			c-0.5-0.5-1.3-0.7-2-0.7H57.2z"/>
		<path class="st0" d="M86.8,144v-13.6c0-0.2,0-0.5,0-0.9s0-0.8,0.1-1.1s0-0.9,0.1-1.3h-0.1l-3.7,17h-3.4L76,127h-0.1
			c0,0.5,0,1,0.1,1.4c0,0.2,0,0.4,0,0.6s0,0.4,0,0.6s0,0.3,0,0.5s0,0.3,0,0.4V144h-3.3v-21.3h5.6l2.6,11.7c0,0.2,0.1,0.4,0.1,0.6
			s0.1,0.5,0.1,0.7s0.1,0.5,0.2,0.8s0.1,0.5,0.1,0.8c0.1,0.6,0.2,1.2,0.3,1.9h0.1c0.1-0.7,0.2-1.3,0.2-1.9c0-0.3,0.1-0.5,0.1-0.8
			s0.1-0.5,0.1-0.8s0.1-0.5,0.1-0.7s0.1-0.4,0.1-0.6l2.6-11.7h5.4V144H86.8z"/>
		<path class="st0" d="M98.9,144h-4v-21.3h4V144z"/>
		<path class="st0" d="M111.8,122.3c1,0,2.1,0.2,3.1,0.5c1,0.3,1.8,0.8,2.6,1.5c0.8,0.7,1.4,1.5,1.8,2.4c0.5,1.1,0.7,2.2,0.7,3.4h-4
			c0-0.7-0.1-1.3-0.3-1.9c-0.2-0.5-0.5-1-0.9-1.4c-0.4-0.4-0.8-0.7-1.3-0.8c-1.2-0.4-2.6-0.4-3.8,0.2c-0.6,0.3-1.1,0.8-1.5,1.3
			c-0.4,0.7-0.7,1.4-0.9,2.1c-0.2,0.9-0.3,1.9-0.3,2.9v1.6c0,1,0.1,1.9,0.3,2.9c0.2,0.8,0.5,1.5,0.9,2.1c0.4,0.6,0.9,1,1.5,1.3
			c0.7,0.3,1.4,0.5,2.2,0.5c0.6,0,1.2-0.1,1.7-0.4c0.5-0.2,0.9-0.6,1.3-1c0.4-0.5,0.7-1,0.9-1.6c0.2-0.7,0.3-1.4,0.3-2.1h-4.8v-3.4
			h8.8V144h-2.6l-0.7-2.4c-0.7,0.9-1.5,1.6-2.5,2.1c-1,0.5-2.1,0.7-3.2,0.7c-1.2,0-2.4-0.2-3.5-0.7c-1-0.4-1.9-1.1-2.6-2
			c-0.8-1-1.3-2.2-1.6-3.4c-0.4-1.6-0.6-3.2-0.6-4.9c0-1.7,0.2-3.3,0.6-4.9c0.3-1.3,0.9-2.4,1.8-3.4c0.8-0.9,1.7-1.6,2.8-2
			C109.2,122.6,110.5,122.3,111.8,122.3z"/>
		<path class="st0" d="M141,144h-4l-1.3-4.2h-7.8l-1.3,4.2h-3.8l6.9-21.3h4.6L141,144z M131.7,126.3c-0.1,0.4-0.1,0.7-0.2,1.1
			l-0.2,0.9c-0.1,0.3-0.1,0.6-0.2,0.9l-2.2,7.1h5.7l-2.1-7.1c-0.1-0.3-0.2-0.6-0.2-0.9s-0.1-0.7-0.2-0.9s-0.1-0.7-0.2-1L131.7,126.3
			z"/>
		<path class="st0" d="M155.3,144l-6.6-11.7c-0.1-0.1-0.1-0.3-0.2-0.5s-0.2-0.4-0.3-0.7l-0.4-0.8l-0.1,0.1c0,0.2,0,0.5,0,0.7
			s0,0.4,0,0.6s0,0.4,0,0.5V144h-3.5v-21.3h3.5l6.6,11.7l0.3,0.5l0.3,0.7l0.3,0.8l0.1-0.1c0-0.3,0-0.5,0-0.8s0-0.4,0-0.6v-12.3h3.6
			V144H155.3z"/>
		<path class="st0" d="M76.9,67.2H41.8v-3.4h30.9L64.3,57H41.8v-3.4h18.3L21.7,22.4v36.3c0,17.8,14.5,32.3,32.3,32.3
			c7.4,0,14.6-2.5,20.3-7.2l11.6-9.4L76.9,67.2z"/>
	</g>
</g>
</svg>
