<?xml version="1.0" encoding="utf-8"?>
<!-- Generator: Adobe Illustrator 27.1.0, SVG Export Plug-In . SVG Version: 6.00 Build 0)  -->
<svg version="1.1" id="Layer_1" xmlns="http://www.w3.org/2000/svg" xmlns:xlink="http://www.w3.org/1999/xlink" x="0px" y="0px"
	 width="159.4px" height="109.3px" viewBox="0 0 159.4 109.3" style="enable-background:new 0 0 159.4 109.3;" xml:space="preserve"
	>
<style type="text/css">
	.st0{fill:#FFFFFF;}
</style>
<g id="Layer_2_00000034063951731479812450000014208994823287652503_">
	<g id="Layer_1-2">
		<path class="st0" d="M154.9,4.5v100.3H4.5V4.5H154.9 M159.4,0H0v109.3h159.4V0z"/>
		<polygon class="st0" points="95.5,76 95.5,72.6 101.2,72.6 101.2,62.2 85.9,74.5 101.2,86.8 101.2,76 		"/>
		<polygon class="st0" points="58.9,48.5 75,35.5 58.9,22.4 		"/>
		<path class="st0" d="M120,22.7c-11.2-5.4-24.6-3.9-34.2,4L75,35.5l9.9,8h33.4v3.4H89l8.3,6.8h20.8V57h-16.6l36.8,29.8v-35
			C138.4,39.4,131.3,28,120,22.7z"/>
		<circle class="st0" cx="54.2" cy="35.4" r="4.5"/>
		<path class="st0" d="M76.9,67.2H41.8v-3.4h30.9L64.3,57H41.8v-3.4h18.3L21.7,22.4v36.3C21.7,76.5,36.2,91,54,91
			c7.4,0,14.6-2.5,20.3-7.2l11.6-9.4L76.9,67.2z"/>
	</g>
</g>
</svg>
