<?xml version="1.0" encoding="utf-8"?>
<!-- Generator: Adobe Illustrator 27.1.1, SVG Export Plug-In . SVG Version: 6.00 Build 0)  -->
<svg version="1.1" id="Layer_1" xmlns="http://www.w3.org/2000/svg" xmlns:xlink="http://www.w3.org/1999/xlink" x="0px" y="0px"
	 width="48px" height="48px" viewBox="0 0 48 48" style="enable-background:new 0 0 48 48;" xml:space="preserve">
<path d="M26.4,1.3l20.8,20.9c0.3,0.3,0.5,0.6,0.6,0.9S48,23.6,48,24s-0.1,0.7-0.2,0.9s-0.3,0.6-0.6,0.9l-20.9,21
	c-0.5,0.5-1.1,0.7-1.8,0.7s-1.3-0.3-1.8-0.8c-0.6-0.6-0.8-1.2-0.8-1.9s0.3-1.3,0.8-1.8l16.4-16.5H2.6c-0.8,0-1.4-0.2-1.9-0.7
	C0.2,25.4,0,24.8,0,24c0-0.8,0.2-1.4,0.7-1.9c0.5-0.5,1.1-0.7,1.9-0.7h36.5L22.6,4.9c-0.5-0.5-0.8-1-0.8-1.7c0-0.7,0.3-1.3,0.8-1.9
	c0.5-0.5,1.1-0.8,1.8-0.8C25.2,0.5,25.8,0.8,26.4,1.3z"/>
</svg>
