<?xml version="1.0" encoding="utf-8"?>
<!-- Generator: Adobe Illustrator 27.1.1, SVG Export Plug-In . SVG Version: 6.00 Build 0)  -->
<svg version="1.1" id="Layer_1" xmlns="http://www.w3.org/2000/svg" xmlns:xlink="http://www.w3.org/1999/xlink" x="0px" y="0px"
	 width="48px" height="48px" viewBox="0 0 48 48" style="enable-background:new 0 0 48 48;" xml:space="preserve">
<style type="text/css">
	.st0{fill:#FFFFFF;}
</style>
<path class="st0" d="M21.6,46.7L0.8,25.8c-0.3-0.3-0.5-0.6-0.6-0.9C0.1,24.7,0,24.4,0,24c0-0.4,0.1-0.7,0.2-0.9
	c0.1-0.3,0.3-0.6,0.6-0.9l20.9-21c0.5-0.5,1.1-0.7,1.8-0.7s1.3,0.3,1.8,0.8c0.6,0.6,0.8,1.2,0.8,1.9c0,0.7-0.3,1.3-0.8,1.8L8.9,21.4
	h36.5c0.8,0,1.4,0.2,1.9,0.7c0.5,0.5,0.7,1.1,0.7,1.9c0,0.8-0.2,1.4-0.7,1.9c-0.5,0.5-1.1,0.7-1.9,0.7H8.9l16.5,16.6
	c0.5,0.5,0.8,1,0.8,1.7c0,0.7-0.3,1.3-0.8,1.9c-0.5,0.5-1.1,0.8-1.8,0.8C22.8,47.5,22.2,47.2,21.6,46.7z"/>
</svg>
