<?xml version="1.0" encoding="utf-8"?>
<!-- Generator: Adobe Illustrator 27.1.0, SVG Export Plug-In . SVG Version: 6.00 Build 0)  -->
<svg version="1.1" id="Layer_1" xmlns="http://www.w3.org/2000/svg" xmlns:xlink="http://www.w3.org/1999/xlink" x="0px" y="0px"
	 width="50px" height="50px" viewBox="0 0 50 50" style="enable-background:new 0 0 50 50;" xml:space="preserve">
<path id="Icon_ionic-logo-linkedin" d="M46,0H4.2C2,0,0,1.6,0,3.9v41.8C0.1,48,2,49.9,4.2,50H46c2.3,0,4-2,4-4.3V3.9
	C50,1.6,48.3,0,46,0z M15.5,41.7H8.4V19.4h7.1V41.7z M12.1,16L12.1,16c-2.4,0-3.9-1.7-3.9-3.9s1.5-3.9,3.9-3.9s3.8,1.6,3.9,3.9
	C16,14.3,14.6,16,12.1,16L12.1,16z M41.7,41.7h-7.2V29.5c0-2.9-1-4.9-3.6-4.9c-2,0-3.1,1.4-3.6,2.6C27,27.8,27,28.4,27,29v12.7h-7.2
	V19.4h7.1v3.1c1-1.5,2.6-3.6,6.4-3.6c4.7,0,8.2,3.1,8.2,9.8L41.7,41.7L41.7,41.7z"/>
</svg>
