<?xml version="1.0" encoding="utf-8"?>
<!-- Generator: Adobe Illustrator 27.1.0, SVG Export Plug-In . SVG Version: 6.00 Build 0)  -->
<svg version="1.1" xmlns="http://www.w3.org/2000/svg" xmlns:xlink="http://www.w3.org/1999/xlink" x="0px" y="0px" width="1000px"
	 height="429.3px" viewBox="0 0 1000 429.3" style="enable-background:new 0 0 1000 429.3;" xml:space="preserve">
<style type="text/css">
	.st0{opacity:0.5;fill:#FFFFFF;}
	.st1{fill:#FFFFFF;}
	.st2{opacity:0.5;}
	.st3{fill:none;}
	.st4{fill:none;stroke:#FFFFFF;stroke-miterlimit:10;}
</style>
<g id="Layer_1">
	<g id="k6QBrR_00000057850349194960905770000015132630569565235891_">
		
			<image style="overflow:visible;" width="828" height="840" xlink:href="33A6B71EFF148D05.jpg"  transform="matrix(1 0 0 1 1315.2404 -2078.4558)">
		</image>
	</g>
	<g id="k6QBrR_00000049912071626494122540000012229942900694929042_">
		
			<image style="overflow:visible;" width="1588" height="1270" id="k6QBrR_00000152985341302422014310000008996142452449731975_" xlink:href="33A6B71EFF148D07.jpg"  transform="matrix(1 0 0 1 3091.5984 -2315.6917)">
		</image>
	</g>
</g>
<g id="Layer_2">
	<circle class="st0" cx="746.4" cy="-1636.6" r="386.3"/>
	<rect x="344.5" y="-1547.1" class="st0" width="790.3" height="9.4"/>
	<rect x="344.5" y="-1725" class="st0" width="790.3" height="9.4"/>
	<path class="st1" d="M464-1526.2"/>
	<g class="st2">
		<path class="st1" d="M746.4-1329.4c-82.1,0-159.2-32-217.2-90c-58-58-90-135.2-90-217.2s32-159.2,90-217.2
			c58-58,135.2-90,217.2-90c82.1,0,159.2,32,217.2,90c58,58,90,135.2,90,217.2s-32,159.2-90,217.2
			C905.6-1361.4,828.5-1329.4,746.4-1329.4z"/>
		<path d="M746.4-1938.8c166.9,0,302.2,135.3,302.2,302.2s-135.3,302.2-302.2,302.2s-302.2-135.3-302.2-302.2
			S579.5-1938.8,746.4-1938.8 M746.4-1948.8c-42.1,0-83,8.3-121.5,24.5c-37.2,15.7-70.6,38.2-99.2,66.9
			c-28.7,28.7-51.2,62.1-66.9,99.2c-16.3,38.5-24.5,79.4-24.5,121.5s8.3,83,24.5,121.5c15.7,37.2,38.2,70.6,66.9,99.2
			c28.7,28.7,62.1,51.2,99.2,66.9c38.5,16.3,79.4,24.5,121.5,24.5s83-8.3,121.5-24.5c37.2-15.7,70.6-38.2,99.2-66.9
			c28.7-28.7,51.2-62.1,66.9-99.2c16.3-38.5,24.5-79.4,24.5-121.5s-8.3-83-24.5-121.5c-15.7-37.2-38.2-70.6-66.9-99.2
			c-28.7-28.7-62.1-51.2-99.2-66.9C829.4-1940.6,788.5-1948.8,746.4-1948.8L746.4-1948.8z"/>
	</g>
	<g class="st2">
		<circle class="st1" cx="746.4" cy="-1634.4" r="163.2"/>
	</g>
	<line class="st1" x1="376.2" y1="-1526.2" x2="1116.3" y2="-1526.2"/>
	<path class="st1" d="M2088-1503.9v28.7c0,0.4-0.5,0.7-0.9,0.3c-35.2-36.1-41.9-13.8-41.9-13.8l14,35.5c1.1,2.7,1.3,5.6,0.8,8.4
		l-5.6,28.3c-0.1,0.4-0.7,0.5-0.9,0.2c-25.8-41.7-38.9-21.2-38.9-21.2l8,39.6c0.6,2.9,0.3,6-0.9,8.8l-10.1,24.2
		c-0.2,0.4-0.7,0.4-0.9,0c-21.4-47.4-34.3-25.8-34.3-25.8v38.5c0,2.8-0.8,5.6-2.3,8l-14.6,23.3c-0.2,0.4-0.8,0.3-0.9-0.2
		c-9-46.2-28.9-34.4-28.9-34.4l-6.5,39.3c-0.5,2.8-1.7,5.3-3.5,7.4l-20.4,23.2h0c1.7-49.2-21.2-41-21.2-41l-13.1,38
		c-0.9,2.7-2.6,5.1-4.8,6.8l-23.3,18.6c0,0,0,0,0,0c6.8-52-16.8-42.1-16.8-42.1l-17.4,33.2c-1.4,2.6-3.4,4.7-5.9,6.1l-25.2,14.2l0,0
		v0c13.5-51-9.8-44.9-9.8-44.9l-23.5,30.4c-1.8,2.3-4.2,4-7,5l-27.5,9.5l0,0v0c22.1-45.6-1.7-45.9-1.7-45.9l-28.9,26.1
		c-2.1,1.9-4.8,3.2-7.6,3.7l-27.8,4.6h0c29.9-43.6,5.8-44.7,5.8-44.7l-33.6,19.5c-2.3,1.3-4.9,2-7.5,2h-28.2c0,0,0,0,0,0
		c37.9-39.1,13.2-42.8,13.2-42.8l-36.4,14.2c-2.8,1.1-6,1.3-8.9,0.6l-27.3-6.5l0,0c47.4-30.7,20.6-39.6,20.6-39.6l-37.1,8.3
		c-3.1,0.7-6.4,0.4-9.3-0.9l-24.6-10.9c-0.4-0.2-0.4-0.7,0-0.9c46.9-20.8,27.6-33.6,27.6-33.6h-39.4c-2.8,0-5.5-0.8-7.9-2.3
		l-23.2-14.4c-0.4-0.2-0.3-0.8,0.1-0.9c51.2-13.3,30.8-30.3,30.8-30.3l-37.9-5.6c-3.1-0.4-5.9-1.8-8.2-4l-18.8-17.9
		c-0.3-0.3-0.1-0.8,0.3-0.9c51.1-3.5,36.1-23.3,36.1-23.3l-36.6-13.2c-2.8-1-5.2-2.8-7-5.2l-6.4-8.7c-0.2-0.3,0-0.8,0.4-0.8h71
		c1.4,3.7,2.9,7.4,4.4,11.1c15.7,37.2,38.2,70.6,66.9,99.2c28.7,28.7,62,51.2,99.2,66.9c38.5,16.3,79.4,24.5,121.5,24.5
		c42.1,0,83-8.2,121.5-24.5c37.2-15.7,70.6-38.2,99.2-66.9c28.7-28.7,51.2-62.1,66.9-99.2c1.6-3.7,3-7.4,4.5-11.1h48l8.4,15
		C2087.3-1509,2088-1506.5,2088-1503.9z"/>
	<polygon class="st0" points="1463.3,-1364.7 1463.3,-1364.7 1463.3,-1364.7 	"/>
	<polygon class="st0" points="1514.7,-1321.2 1514.7,-1321.2 1514.7,-1321.2 	"/>
	<rect x="1335.7" y="-1547.1" class="st1" width="790.3" height="9.4"/>
	<path class="st1" d="M2115.7-1715.7h-780.1v-9.4h778C2114.4-1721.9,2115.1-1718.8,2115.7-1715.7z"/>
	<path class="st0" d="M2126-1725v9.4h-10.2c-0.7-3.1-1.3-6.3-2.1-9.4H2126z"/>
	<path class="st1" d="M1455.1-1526.2L1455.1-1526.2z"/>
	<g>
		<path class="st1" d="M2019-1526.2c-44.1,112.3-153.5,191.8-281.4,191.8s-237.3-79.5-281.4-191.8h159.2c29.9,33.7,73.5,55,122.2,55
			s92.3-21.3,122.2-55H2019z"/>
	</g>
	<polyline class="st3" points="1574.1,-1286.6 1574.1,-1286.6 1574.1,-1286.6 	"/>
	<polyline class="st3" points="1703.6,-1251.9 1703.6,-1251.9 1703.7,-1251.9 	"/>
	<polyline class="st3" points="1771.5,-1251.9 1771.5,-1251.9 1771.6,-1251.9 	"/>
	<polyline class="st3" points="1836.9,-1263.3 1836.9,-1263.3 1836.9,-1263.3 	"/>
	<line class="st3" x1="2029.7" y1="-1526.2" x2="2029.7" y2="-1526.2"/>
	<line class="st3" x1="2107.5" y1="-1526.2" x2="2077.7" y2="-1526.2"/>
	<path class="st1" d="M1463.3-1364.7"/>
	<g>
		<g>
			<path class="st1" d="M3313.8-129.5c-308.7,0-617.4,0-926.1,0c0-309,0-618,0-926.9c308.7,0,617.4,0,926.1,0
				C3313.8-747.4,3313.8-438.4,3313.8-129.5z M2619.7-928.9c-0.8-2.6-2.7-3.8-5.9-3c1.5,1.5,3,2.9,4.5,4.4c0,5.3,1.4,10.2,4.2,15.3
				c-2.7,0-4.7,0-8.1,0c2.1,3.2,3.6,5.5,5.4,8.3c-2.1,0.3-3.5,0.5-4.6,0.7c-0.9,3.5-0.2,5.6,3.2,7.4c2.5,1.3,5.5,3.7,4.1,7.8
				c-0.2,0.6,0.2,1.7,0.7,2.2c3.4,3.5,1.9,7.1-0.1,11.5c-7.8-3.5-15.5-7-23.2-10.5c-0.3,0.3-0.5,0.5-0.8,0.8
				c3.3,3.4,6.6,6.7,9.9,10.1c-3,1.6-5.5,2.9-8.2,4.3c4.1,4.3,8,8.4,11.9,12.6c-0.3,0.3-0.5,0.5-0.8,0.8c-1.8,0-3.5,0-6.2,0
				c4.5,5.3,7.1,10.7,7.7,17.4c-1.2-0.3-1.9-0.6-2.7-0.8c-4.1-1.1-8.1-2.7-12.2-3.3c-2.8-0.4-4.6-1-4.3-4.2c-2,0-3.7,0-5.7,0
				c0.5-2.3,1-4.4,1.8-7.7c-5.3,3.4-9.5,6-13.7,8.7c-0.5-0.5-0.9-1-1.4-1.5c2.2-3.3,4.5-6.6,6.6-9.8c-1.4-1.2-4.1-2.6-4-3.3
				c0.9-3.2,0-7,3.6-9.4c3.3-2.2,6.3-5,9.2-7.8c0.7-0.6,0.7-2,1-3.1c-1,0-2-0.2-2.9,0.1c-4.7,1.7-9.2-1.6-8.6-6.4
				c0.1-0.9-0.4-1.9-0.3-2.7c0.2-1.7,0.4-3.5,1.2-5c1.1-2,2.7-3.7,4.1-5.5c-0.3-0.3-0.6-0.6-0.8-1c-4,1.8-7.9,3.6-11.9,5.4
				c-3.5,1.5-7-0.4-6-3.9c1-3.6-0.7-6.4-2.1-8.4c-2.3-3.2-1.6-6.4-2-9.6c-0.1-0.7,0-1.4-0.3-2c-0.9-2.2-2.4-4.2-2.9-6.4
				c-0.5-2.3-0.1-4.8-0.1-7.2c-1,2.9-1.6,6-2.5,8.8c-1.3,3.9-3.2,7.5-4.2,11.4c-0.5,1.8,0.5,4,0.7,5.3c-1.5,1.4-3.5,2.5-3.4,3.3
				c0.3,3,1.1,5.9,2.2,8.7c1.1,2.8,0.5,4.1-2.5,4.3c-1.3,0.1-2.6,0-3.8,0c2.4,3.4,4.8,6.1,6.5,9.2c1.7,3.1,0.6,4.6-3,4.5
				c-3.6-0.2-7.2-0.9-10.7-1.4c-1.8-0.3-3.7-0.6-5.8-1c4.3,6,8.2,11.4,12.3,17.1c-3.6,0.3-6.5,0.6-9.9,0.9c1.6,3.1,4.5,5.3-0.1,7
				c-4.3,1.6-4.3,2-1,5.7c2.3,2.6,3.4,5.7,1.8,8.9c-1.8,3.4-5.6,2.9-7.9,1.5c-3-1.8-7.2-5-7.2-7.7c-0.1-3.1-1.7-4.9-2.5-7.3
				c-1-2.9-2.2-5.8-3.2-8.7c-0.5-1.3-0.8-2.6-1.2-3.8c-5.1,8.1-4.3,18.4-11.1,24.7c0.4,1.3,1.4,2.7,1,3.4c-1.1,2.2-2.5,4.4-4.1,6.3
				c-2.3,2.7-4.8,5.2-7.2,7.8c0.1,0.3,0.3,0.7,0.4,1c3.1-0.5,6.1-0.9,10-1.5c-1.5,1.8-3.4,3.5-3.1,4c2.2,4.1-2.1,4.6-3.8,6.9
				c2.2,0.2,4,0.3,6.4,0.5c-3.1,7.5-10,10.5-16.5,15.6c3.6,0,6,0,9.4,0c-2.1,2.6-3.6,4.4-5.2,6.3c1.1,0.5,2.1,0.9,4,1.7
				c-4.1,4.1-7.7,7.9-11.5,11.8c1.7,0.5,2.9,0.8,4.4,1.2c-1.1,1.7-1.9,3-2.7,4.3c0.1,0.3,0.3,0.6,0.4,1c3.4-0.9,6.9-1.9,10.9-3
				c-2.3,7.5-8.3,11.6-12.4,17c0.2,0.3,0.5,0.5,0.7,0.8c2.9-1.2,5.8-2.4,10-4.2c-1,3.8-1.6,6.4-2.4,9.3c0.1,1.3,0.2,3,0.3,5
				c1.1,0.2,2.6,0.4,4.9,0.8c-2.1,2.5-3.6,4.4-5.2,6.4c-0.7,0.9-2.2,2.2-2,2.8c1,2.8-1.2,3.6-2.6,4.8c-3.7,3.2-7.4,6.3-11.2,9.5
				c0.2,0.4,0.3,0.7,0.5,1.1c3.7-0.6,7.4-1.1,11.1-1.7c0.2,0.2,0.3,0.5,0.5,0.7c-2.5,2.7-5,5.3-7.5,8c1.3,0.6,2.3,1.1,3.2,1.6
				c0,0.4,0,0.8,0.1,1.2c-1.7,0.3-3.3,0.7-5,0.7c-21.5,0.1-43.1,0-64.6,0c-5.7,0-5.8,0.1-5.8,5.5c0,4.8,0,9.7,0,14.5
				c0,5,0.4,5.4,5.6,5.4c136,0,272.1,0,408.1,0c130.8,0,261.6,0,392.4,0c24.6,0,49.3,0,73.9,0c5,0,5.3-0.4,5.3-5.3
				c0-4.8,0-9.7,0-14.5c0-5.7,0-5.7-5.6-5.7c-21,0-42,0.1-63,0c-5.2,0-9.4-3.2-11.1-8.4c2-0.2,3.9-0.3,6.1-0.5
				c-2.2-2-1.7-2.7,0.7-3.2c3.4-0.7,6.8-1.6,10.1-2.4c0-0.4,0-0.7-0.1-1.1c-3.3-1.9-6.5-3.8-9.8-5.7c-0.1-0.4-0.2-0.8-0.3-1.2
				c1-0.4,2.1-0.7,3.1-1.1c-0.1-0.4-0.3-0.8-0.4-1.2c-2.4-1.3-4.8-2.6-7.2-3.9c0.3-0.1,0.6-0.3,0.9-0.4c-1.2-2.6-2.4-5.2-3.7-8.1
				c2.4-0.2,4.7-0.3,6.5-0.5c0-1.5,0-2.7,0-4.3c-5.4-2.7-13.2-3.8-14.6-13.1c3.6,0.5,7.6,1.2,8.8-4.2c-1.8-1.4-3.9-2.9-5.3-4
				c1.7-7.9,9.3-3.9,13.6-7.5c-5.2-3.7-12.4-3.4-15.9-9.5c0.8-0.5,1.3-0.8,1.8-1.1c0.6-0.4,1.1-0.9,2.2-1.8
				c-6.1-3.1-13.1-4.3-15.4-11.6c1.5-0.6,2.7-1.1,3.9-1.6c-0.2-1.3-0.4-2.3-0.6-3.3c1.5-0.6,2.8-1,4.2-1.5c-1.6-2.4-3.1-4.5-5-7.2
				c3.2-0.5,5.2-0.9,7.9-1.3c-2.6-2.3-4.5-4.1-6.8-6.2c2.1-0.8,3.4-1.2,4.6-1.7c-6.2-2-10.9-4.9-12.9-11.7c1.8,0,2.9,0,3.6,0
				c0.2-1.8,0.4-3.3,0.5-4.7c-1.2-1.4-3.2-2.7-3.6-4.4c-1.3-5.4-2-11-3-16.7c-1.6,5-3.2,9.6-4.4,14.2c-0.8,3.2-2.3,7.7-0.8,9.5
				c2.6,3.2,0.2,4.3-0.7,6.3c-0.3,0.6-0.5,1.2-0.8,1.8c-1.1,2.4-1.9,5.1-3.4,7.3c-1.2,1.8-3.2,3-5.1,4.8c2.2,0.4,3.7,0.6,6.5,1.1
				c-2.7,2.4-4.6,4.1-6.4,5.8c4,3.1-1.5,4.7-1.7,7.6c3.2-0.4,6.1-0.8,10.2-1.4c-1.6,2.5-2.5,4-3.5,5.5c0.7,1.4,1.2,2.9,0.6,3.6
				c-1.9,2.4-4.1,4.7-6.5,6.6c-1,0.8-3.3,1.1-4.3,0.5c-3.6-2-6.9-4.5-10.6-7.1c5-3.9,2-7.9,1.1-12.1c1.9,0,3.4,0,5.8,0
				c-2.5-2.3-4.3-4.1-6.2-5.9c1-2.3,1.9-4.6,3.1-7.4c-1.9-2.1-4.4-4.9-7.4-8.1c1.9-0.6,2.9-0.9,3.9-1.2c0.2-2.5,0.4-5,0.6-7.7
				c1.8-0.7,3.8-1.4,6.9-2.5c-6.2-2.5-11.5-4.4-14.6-9.7c1.3-0.8,2.3-1.4,3-1.9c-1.5-6.7-0.4-13.3-4.8-19.4
				c-2.8-3.9-2.7-10-3.9-15.2c-1.1,1.7-1.4,3.2-1.9,4.7c-2.3,8-4.2,16.2-7.2,24c-1.7,4.4-5.1,8.1-7.6,12.1c0.5,1.2,1.6,2.6,1.6,4
				c0,0.9-2.1,2.8-2.3,2.7c-2.9-1.8-4.5,0.4-6.4,1.8c-2.4,1.9-4.8,2-7.9,0.3c1.7-2.6,3.2-5,4.8-7.5c-0.2-0.4-0.4-0.8-0.6-1.2
				c-3.1,3.1-6.4,4.9-10.6,1.5c0.8-4.5,1.7-9.2,2.6-13.9c-0.9,0.4-2.1,0.8-3.3,1.3c-0.4-0.2-0.8-0.4-1.2-0.6
				c2.5-7.2,4.9-14.3,7.4-21.4c-2.5,0-5.1,0.5-7.5-0.1c-4.7-1.1-1.1-4-0.6-6.6c-1.9,0-3.5,0-5.1,0c1-5.1,1.8-9.8,2.9-14.4
				c1-3.8,2.5-7.4,3.7-11.1c1-3.1-0.3-4.1-3.6-3.8c-1.7,0.2-3.7-0.4-5.2-1.3c-0.5-0.3,0.1-2.6,0.3-3.9c0.3-1.8,0.8-3.6,1.3-5.3
				c-0.3,0-0.5-0.1-0.8-0.1c-1.4,1.5-2.8,3.1-4.7,5.1c-0.6-1.6-1-2.2-1-2.8c0-4.5,2-8.7-1.5-13.4c-2.1-2.8-1-8.1-1.2-12.3
				c-0.1-4.3,0-8.6,0-13c-1.5,5.1-3.3,10-4.2,15c-0.4,2.7-1,4.1-4,3.8c0.9,2.9,2.4,5.6-1,7.4c-0.3,0.2-0.5,0.9-0.5,1.4
				c0,3.7,0,7.4,0,11.1c0.4,0.9-0.9,2.1-0.7,2.8c1,3.2-0.7,4.6-3.3,5.4c-2.1,0.7-4.2,1-6.8,1.6c0.4,0.8,0.8,2.1,1.5,3.3
				c1.5,2.6,3.2,5,4.5,7.6c0.5,0.9,0.2,3.2-0.4,3.5c-2.6,1.2-5.4,1.8-8.7,2.9c-1.1,5.9-4.8,1.1-7.5,0.6c2.2,5.7,4.3,11.3,6.6,17.1
				c-2.1,0.3-3.9,0.6-6.3,1c1.6,2.4,2.8,4.2,4.2,6.2c-3.8,0.8-5.4,3.7-3.5,5.4c3.1,2.8,6.1,4.9,6.8,10c0.5,3.3,1.2,5.9-0.3,8.8
				c-7.7-1-12.1-4-12.4-8.7c1.5-0.3,3-0.5,5.4-0.9c-2.5-2.3-4.5-4-6.3-5.9c-1.9-2-4.4-3.9-5.4-6.4c-1.5-3.6-3.8-8.6-2.4-11.2
				c2.4-4.4-0.4-6.2-1.8-9c-1.3-2.5-2.3-5,1.4-6.5c-2.2-4.4-4.2-8.5-6.3-12.5c-1.6-3-2.7-5.7,1.6-7.6c-1.6-3-3.4-5.8-0.4-8.8
				c0.3-0.3-0.1-1.5-0.3-2.3c-1.8-6.9-3.7-13.8-5.1-18.9c-1.6,4.6-3.2,11.5-6.5,17.5c-3.1,5.5-2.7,11.2-2.8,16.6
				c-0.1,4.6-2,7.2-4.7,9.9c-2,2-3.9,4.1-6.3,6.7c2.6,0,4.2,0,5.8,0c-0.4,2-0.3,4.4-1.3,5.9c-2.9,4-5.8,8.1-9.6,11.2
				c-2.1,1.8-3.2,3.9-2.4,5.6c2.2,4.6-1.3,5.8-3.8,7.7c-1.2,0.9-2.3,1.8-3.5,2.7c2.9,0.3,5.5-0.4,8.2-1c1.1-0.3,2.2-0.5,3.2-0.7
				c0.1,1.3,0.5,2.6,0.2,3.8c-1.9,6.9-9.6,11.8-18.4,11.7c0-7.2,0-14.3,0-21.6c-3.7,3.2-7.7,6.8-11.8,10.3c-0.6-0.3-1.1-0.6-1.7-0.9
				c0.8-7.4,1.6-14.7,2.4-22.2c-3-1-4.1-3.9-1.7-7.3c2.3-3.3,0.7-4.6-2.6-6.4c-0.7,3.4-0.3,7.3-4.3,7.6c1.1,3.1,2,5.7,3,8.7
				c-2.1,0-3.2,0-3.7,0c-0.2,2.3-0.3,4.2-0.6,7.3c0.7,2.2,2.1,5.6,3,9c0.6,2.4,0,4.3-3.1,2.7c-3-1.5-5.9-3.1-8.8-4.6
				c-0.9-0.5-1.9-0.7-2.9-1c3.9,7.5,4.7,16,10.6,22.1c0.8,0.8,0.4,2.9,0.5,4.4c-1.7,0.2-3.8,1-5.2,0.4c-2.9-1.5-5.4-3.7-8.2-5.7
				c0.7-1.3,1.3-2.6,2-3.9c-0.4-0.4-0.7-0.8-1.1-1.2c-4.7,3.4-9.6,6.6-14,10.4c-1.9,1.6-3.1,3.4-6.5,2.4c2.7-4.4,5.2-8.4,7.7-12.4
				c-0.4-0.4-0.9-0.8-1.3-1.3c-2.7,1.5-5.3,3.2-8.1,4.5c-2.2,1-4.6,1.5-6.9,2.2c-0.1-2.2-0.3-4.3-0.4-6.7c-2.4,0.6-5.4,1.4-9.2,2.4
				c3.7-7.7,7-14.4,10.5-21.6c-3-0.2-5.7-0.4-9.6-0.8c2.1-2.3,3.4-4,5-5.4c2.8-2.7,6-5,8.6-7.9c1.6-1.8,3.4-4.5,3.2-6.6
				c-0.4-4.3,2-6.4,4.7-8.7c1.9-1.5,3.9-2.9,5.7-4.5c1-0.9,1.7-2.3,2.5-3.4c-6.4,0.7-11.2,5.5-16.9,4.9c-0.3-2.9-0.6-5-0.9-7.8
				c4.6-4.2,9.8-9.1,15-13.9c-2.6,0.3-4.7,1.6-6.9,2.4c-1,0.4-2.4-0.3-3.6-0.5c0.3-1.1,0.3-2.3,0.9-3.2c1.3-1.7,2.8-3.2,4.3-4.7
				c-0.3-0.3-0.6-0.7-0.9-1c-1.5,0.8-3,1.6-4.4,2.5c-5.6,3.6-10.8,8-17.7,9.1c-1.3,0.2-2.8,0-4.2-0.1c0.2-1.3,0.1-2.9,0.8-3.9
				c2.7-3.9,5.7-7.7,8.7-11.7c-4.9-0.9-8.6,5-14.7,1.9c4.2-5.5,8.3-10.7,12.3-15.9c-0.2-0.2-0.5-0.5-0.7-0.7
				c-2.7,1.4-5.3,2.7-8.3,4.2c-0.5-1.4-0.8-2.6-1.3-4.1c-3.2,1.4-6.2,2.7-9.1,4c-0.4-0.4-0.7-0.8-1.1-1.2
				c4.4-5.8,8.9-11.6,13.3-17.5c-4-2.9-3.9-2.9-2.2-6.5c0.5-1,0.6-3.1,0-3.7c-1.8-1.5-1.8-2.6-0.6-4.4c1.4-2.1,0.9-3.5-1.7-4.1
				c-0.7-0.1-1.3-0.7-2.4-1.3c2.3-3.1,4.3-5.9,6.4-8.7c-1.9-0.3-3.3,0-4.5,0.6c-2.7,1.6-5.1,3.5-7.8,5c-1.9,1-4.1,1.4-6.1,2.1
				c0.6-2.1,1.1-4.2,2-6.2c0.8-1.9,2-3.7,3.1-5.5c-2-0.5-4-1-6.5-1.6c0.1-0.9,0.3-2,0.5-3.1c0.3-2.4,0.9-4.8,1-7.2
				c0.1-2.6-1.4-2.5-3.1-1.3c-1.1,0.8-2.2,1.6-3.6,2.6c-0.7-2-1.2-3.3-1.9-5.3c-3.3,3.3-7.1,5.8-9,9.3c-1.6,3.1-3.4,3.6-6.6,3.1
				c0.7,1.1,1.2,1.6,1.3,2.2c0.4,1.8,0.7,3.6,1,5.4c-1.9,0.2-3.8,0.5-5.7,0.6c-1.3,0.1-2.6-0.2-3.9-0.2c-2.3-0.1-4.6-0.2-6.9-0.4
				c-1.7-0.1-3.3-0.3-5-0.5c-0.1,0.5-0.3,0.9-0.4,1.4c1.9,1.6,4.3,2.8,5.5,4.8c1.3,2.2,1.4,5,2.1,7.8c-0.9,0.6-1.9,1.2-3.2,2.1
				c4.8,3.1,9.2,6,14.3,9.3c-2.2,1-3.2,1.5-4.5,2.2c1.8,4.9,3.5,9.6,5.1,14.3c-0.4,0.2-0.8,0.4-1.2,0.6c-2.3-1.1-4.5-2.1-6.8-3.2
				c-0.3,0.3-0.5,0.6-0.8,0.8c1.5,2.3,3,4.6,4.4,7c0.7,1.2,1,2.6,1.6,3.9c-1.5,0-3.1,0.4-4.5,0.1c-4.6-1.2-9.2-2.6-13.8-3.9
				c-0.1,0.2-0.2,0.4-0.3,0.7c3.6,2.4,7.1,4.8,10.7,7.3c-0.2,0.4-0.4,0.9-0.7,1.3c-5.8-1.2-11.7-2.3-17.5-3.5
				c-0.2,0.5-0.4,1.1-0.6,1.6c4.3,2.2,8.7,4.5,13,6.7c0,0.4,0,0.9,0,1.3c-3.6,0.7-7.2,1.4-10.8,2.1c-0.1,0.3-0.3,0.7-0.4,1
				c4.6,3.6,9.3,7.1,13.9,10.7c-0.2,0.3-0.4,0.7-0.6,1c-2.4-0.4-4.9-0.8-8.4-1.3c3,2,5,3.3,7,4.6c-1.2,2-2,3.6-3.1,5.5
				c-6.2-2.3-12.5-4.6-19.7-7.3c1.2,3.5,2.2,6.4,3.2,9.3c-0.7,0.3-0.9,0.5-1.2,0.5c-8.5-0.7-15,2.6-20.3,9.2
				c-3.9,4.8-11.2,5.6-16.3,1.4c4.9-4.6,9.6-9.1,14.4-13.6c-0.2-0.1-0.3-0.3-0.5-0.4c-2.6,0.8-5.2,1.6-8.4,2.6
				c0.5-2.2,1.2-3.6,0.9-4.5c-1.2-3.4,0.2-5.7,2.3-8c1.9-2,3.9-4.1,5.7-6.3c0.7-0.8,1-2,1.4-3c-1.1-0.3-2.2-0.8-3.3-0.9
				c-0.9-0.1-1.9,0.3-2.7,0.7c-3.6,1.8-5.5-2.5-8.6-2.3c0,0-0.5-1.6-0.2-2.2c1-1.7,2.2-3.2,3.5-4.7c0.9-1,2-1.9,4-3.7
				c-4.2-0.2-8.3,0.3-6.7-4.9c0.1-0.2-0.5-0.5-0.8-0.8c-0.8-1.2-1.9-2.4-2.3-3.8c-0.6-2.4-0.8-4.9-1.1-7.3c-0.2,0-0.3,0-0.5,0
				c-0.4,4.5-0.9,8.9-1.4,13.9c-3-0.7-5.6-1.2-9.6-2.1c4.3,6.2,5.2,11.9,3,17.9c-0.9,0.2-1.9,0.4-3.8,0.9c4.3,6.8,2.2,13.5,0.4,20.5
				c-1.2,0-2.5,0-4.3,0c0.5,1.7,0.9,3.1,1.3,4.5c0.8,2.4,1.7,4.8,2.4,7.3c0.2,0.6-0.1,1.6-0.6,2.1c-0.2,0.3-1.3,0.1-1.8-0.1
				c-3.2-1.9-6.2-4-9.4-5.9c-1.4-0.9-2.9-1.7-5.2-2.9c3,10.2,13.8,14.4,15.6,25.3c-2.1-0.9-3.3-1.6-4.7-1.9
				c-1.5-0.3-3.4-0.7-4.5-0.1c-3,1.6-4.2,0.2-5.1-2.3c-0.8-2.5-2-4.5-5-4.5c-5,0.1-9.8-0.3-13.2-5.2c-1.8,6,0.7,9.5,4.8,12.1
				c2.5,1.6,5,3.1,7.4,4.8c0.8,0.6,1.9,2,1.7,2.7c-0.9,3.1,1.1,3.3,3.2,3.9c4.6,1.3,8.8,6.3,8.6,10.9c-4.1-1.4-8-2.7-12.4-4.1
				c0.2,2,0.4,3.3,0.6,5.1c-7.3,0-14.4,0-21.9,0c1.9,5.1,5.7,6.7,9.3,8.5c4.1,2,6.9,4.8,7.7,9.6c0.2,1.3,1.5,3.1,2.7,3.6
				c4.8,1.9,7,6.1,9.4,10.1c0.7,1.1,0.5,2.7,0.8,4.1c-1.4,0-3,0.3-4.2-0.1c-2.8-1.1-5.4-2.6-8.1-3.9c-2.2,3.9-2.3,3.8-6.4,2.5
				c-4.8-1.6-9.6-2.9-15.6-4.7c4.8,7.5,13.2,10.4,16,18.2c-6.7,2.3-12.1-0.5-17.6-3c0.4,1.4,1.1,2.2,1.9,2.9
				c6.3,5.3,12.7,10.5,19,15.8c2,1.7,1.6,3-0.9,4.1c-4.7,2-8.6,0.2-12.5-2.1c-1-0.6-2.4-0.4-3.6-0.5c0.1,1.3-0.4,2.9,0.3,3.7
				c1.7,2.1,3.8,3.9,5.9,5.7c1.6,1.4,3.4,2.5,5,3.7c-0.3,0.5-0.6,1.1-0.9,1.6c-3.4-1.2-6.8-2.3-10.3-3.5c0.2,0.8,0.7,1.1,1,1.5
				c1.2,1.3,2.4,2.6,3.5,3.9c-1.7,0.5-3.4,1.3-5.1,1.4c-1.7,0.1-3.5-0.1-5.2-0.6c-2.4-0.7-4.6-1.8-7.8-3.2c2.3-1.5,3.3-2.2,4.3-2.8
				c-4.1-2.9-8-5.7-12.7-9c4.2-1.2,7.4-2.1,11.8-3.4c-6-3.5-9.4-7.5-7.4-13.7c-0.8-1.9-1.7-4.2-2.7-6.3c-0.6-1.2-1.5-2.3-2.3-3.5
				c1.5-0.4,2.9-0.9,4.4-1.3c0.5-0.1,0.9-0.3,2.3-0.8c-6.5-3.3-2.6-8.1-2.5-12.7c2.2-0.1,4.7-0.2,7.4-0.4c-4.6-1.8-9.1-3.6-13.9-5.5
				c1.3-1.5,1.9-2.3,2.6-3.1c-2.1-1.4-3.9-2.7-6-4.1c1.3-1.1,2-1.7,2.3-2c-1.2-2.3-2.1-4.4-3.2-6.4c-2.4-4.3-2.5-4.2,1.9-5.4
				c-6.5-7.3-6.8-8.2-3.8-10.4c-1.3-4.6-2.5-9-3.9-13.7c1.9,0.1,3.1,0.1,4.5,0.2c-7.5-11.1-9-16.2-9.4-25.9c-1,2.7-2.7,7-4.3,11.3
				c-0.2,0.7,0.1,1.6,0.3,2.4c1.2,4.3,3,8.5,0.8,13.1c-1.1,2.4-3.1,5.5-2.4,7.5c1.9,5.8-0.3,9.6-4.3,13.2c-2.3,2.1-4.3,2.3-7.2,0.2
				c2-3.1,3.9-6.1,5.8-9.1c-0.2-0.3-0.5-0.7-0.7-1c-3.8,2.4-7.5,5.9-12.9,1.8c1.1-5.4,2.4-11.4,3.6-17.5c-1.4,0.7-2.9,1.6-4.4,2.4
				c-0.4-0.3-0.9-0.5-1.3-0.8c3-8.6,6.1-17.3,9.3-26.5c-4.2,1-8.8,4.2-11.6-1.2c0.5-2.2,0.9-4.2,1.3-6.2c-1.9,0-3.8,0-5.8,0
				c0-0.1-0.3-0.4-0.3-0.8c0-5.4,6-9.5,3.2-15.5c2.8-3.1,2.2-7.1,3.4-10.7c2.4-7.5,2.7-7.4-4.8-7.7c-5.1-0.2-5.8-1.5-3.8-6
				c1-2.2,1.4-4.5,2.1-6.8c-0.4-0.2-0.8-0.3-1.2-0.5c-1.8,2-3.5,4.1-5.3,6.1c-0.6-0.2-1.1-0.4-1.7-0.6c0.3-3.5,0.6-6.9,0.8-10.4
				c0.1-1.4,0.5-3.9-0.1-4.2c-4.4-2.3-2.6-5.8-2.2-9.1c0.1-1.1-0.4-2.3-0.6-3.5c-0.3-1.6-0.9-3.2-1-4.9c-0.1-6.3,0-12.6,0-19.5
				c-2.3,8.8-4.4,16.9-6.6,25.4c-1,0-2.2,0-4.4,0c2.7,3.9,3.4,7.2-1,9.5c-0.2,0.1-0.3,0.5-0.2,0.7c0.7,4.6-3.3,9.8,3,13.8
				c-3.8,1-4.6,2.5-3.4,5.3c0.4,0.9-0.8,3.4-1.7,3.7c-3.4,0.9-6.2,5.9-10.4,1.8c0,0-0.2,0.2-0.7,0.6c0.5,0.9,0.9,2,1.5,2.9
				c2.1,3.6,4.2,7.2,6.2,10.8c1.4,2.5,0.8,4-2.2,4.6c-1.5,0.3-2.8,1.2-4.8,2.1c-0.7-0.2-2.2-0.7-2.9-0.9
				C2622.7-932.6,2621.2-930.8,2619.7-928.9z M2903.3-147.2c1.3-0.3,2.1-0.3,2.8-0.6c16.8-7.9,33.6-15.7,50.3-23.8
				c1.3-0.6,2.6-2.5,2.8-3.9c0.7-6,1.5-12.1,1.4-18.1c-0.1-5.7,1.7-10.6,6.4-13.1c7.5-4,15.7-6.8,23.6-9.9c0.6-0.2,2.3,0.6,2.5,1.3
				c1,3.5,2.5,7,0.8,10.9c-1.4,3.2-2.6,6.9-2.6,10.3c-0.1,5.7,0.9,11.5,1.5,17.3c0.3,3,0.7,5.9,1.2,9.7c2-1.4,3.2-2.3,4.5-3.3
				c13.4-10.4,26.6-21,40.1-31.3c3.1-2.4,4.2-4.9,3.6-8.6c-0.9-5.3-1.4-10.7-2.7-15.9c-1.9-7.7,1.5-13.3,6.9-17.7
				c5-4,10.8-7,16.3-10.5c2.1-1.3,3.4-0.7,4.5,1.4c1.9,3.5,2.6,7.1,2.1,11.2c-0.5,3.6-0.3,7.5,0.7,11c1.6,6.2,4,12.3,6.1,18.4
				c0.5,1.4,1.3,2.7,2.1,4.3c1.1-1,1.7-1.4,2.2-2c11.6-14.2,23.2-28.3,34.6-42.6c1.1-1.3,1.3-4.1,0.7-5.8c-2-5.7-4.2-11.3-6.8-16.8
				c-1.9-4.1-2-7.9-0.4-12.1c3.5-9.1,11.9-14,18-20.8c0.4-0.4,2.3-0.3,2.7,0.2c2.7,2.9,5.9,5.7,5.5,10.3c-0.4,4.9,1.1,9.2,3.9,13.2
				c2,2.8,3.6,6,5.5,9c2.1,3.4,4.2,6.7,6.8,11c8.7-17.8,16.9-34.5,25-51.3c1.6-3.3,1.3-6.7-1.2-9.8c-3-3.8-5.5-8-8.5-11.7
				c-5-6-4.6-12.7-1.8-19c2.7-6.1,6.9-11.5,10.7-17c0.5-0.8,2.8-1.5,3.2-1.1c2.6,2.5,6.1,5,7.2,8.2c1.8,5.4,4.3,10,8.6,13.8
				c2.6,2.3,4.8,5.1,7.2,7.6c2.3,2.3,4.6,4.6,7.2,7.1c0.6-1.3,0.9-1.7,1.1-2.2c4.4-18.3,8.8-36.6,13-54.9c0.3-1.4-0.8-3.4-1.9-4.8
				c-1.8-2.3-4.1-4.3-7-7.3c2.7-0.3,4.1-0.6,5.4-0.6c4.2-0.1,8.3,0,12.5,0c19,0,37.9-0.1,56.9,0c3.6,0,5.2-1,5-4.9
				c-0.3-3.5,0-7-0.1-10.5c-0.1-10.8,1.6-10-9.8-10c-113.2,0-226.3,0.1-339.5,0.1c-67.8,0-135.6,0-203.4,0c-108,0-216.1,0-324.1,0
				c-1.6,0-3.2,0-4.8,0c-2.5,0-3.6,1.2-3.6,3.7c0.1,5.4,0,10.8,0,16.1c0,5.2,0.2,5.4,5.5,5.4c19.9,0,39.8,0.1,59.7,0
				c3.3,0,5.5,1.2,7.5,3.8c6.7,8.9,13.6,17.7,20.6,26.4c1.1,1.4,3.6,2.5,5.4,2.4c5.9-0.5,11.8-1.3,17.5-2.7
				c7.6-1.9,13.4,1.3,17.9,6.6c4.3,5.1,7.5,11.2,11.1,16.8c1.1,1.8,1,3.3-1.1,4.3c-3.5,1.7-6.9,3.5-11.1,2.3
				c-2.4-0.6-5.2-1.1-7.5-0.5c-7.9,2.2-15.6,4.9-23.4,7.4c-1.2,0.4-2.2,1.1-3.3,1.7c0.4,0.8,0.5,1.1,0.7,1.2
				c14.8,12.1,29.5,24.2,44.5,36.1c1,0.8,3.3,0.9,4.7,0.4c5.8-2.1,11.7-4.2,17.2-6.8c6.8-3.2,12.9-1.5,18.1,2.6
				c5.2,4,9.5,9.1,14.2,13.8c1.7,1.6,1.7,3-0.2,4.7c-3.4,2.8-6.9,5-11.6,4.7c-1.8-0.1-4-0.1-5.5,0.8c-8.4,4.7-16.6,9.8-25.3,14.9
				c1.2,0.8,1.8,1.3,2.5,1.6c16.8,8.3,33.5,16.6,50.3,24.7c1.4,0.7,4,0.3,5.5-0.5c5.5-3.4,10.4-7.7,16-10.8c3.1-1.7,7-2.9,10.5-2.6
				c9.8,0.6,16.3,8.2,24.4,12.6c0.6,0.3,0.7,2.5,0.2,3.3c-2.3,3.8-5.1,6.8-9.9,7.5c-1.8,0.2-4,0.7-5.3,1.8
				c-7.2,6.6-14.2,13.4-21.6,20.5c1.2,0.5,1.7,0.8,2.2,0.9c18.2,4.3,36.3,8.8,54.5,12.9c1.7,0.4,4.3-0.6,5.6-1.9
				c4.3-4.2,8.6-8.5,12.3-13.3c4.6-6,10.7-6.8,17-5.5c6.6,1.4,13,4.2,19.4,6.7c0.9,0.3,2,2.4,1.7,3.2c-1.3,3.7-2.8,7.1-6.8,9
				c-2.8,1.3-5.8,3.2-7.6,5.7c-4.6,6.3-8.7,13-12.9,19.5c-0.5,0.8-0.9,1.8-1.4,3c1.2,0.3,1.9,0.6,2.7,0.6
				c18.4,0.3,36.9,0.6,55.3,0.6c1.6,0,3.8-1.4,4.7-2.8c3.4-5.2,6.5-10.5,9.3-16.1c2.2-4.3,5.4-6.9,9.9-8.2c9-2.6,17.8,0.7,26.7,1.3
				c0.6,0,1.7,2,1.6,3c-0.4,4.1-1.6,7.8-5.2,10.4c-1.8,1.3-3.9,2.9-4.7,4.8c-3.5,8.7-6.5,17.6-9.7,26.5c-0.1,0.1,0.3,0.4,0.5,0.8
				c0.9-0.1,1.8,0,2.7-0.2c18-4,36-7.9,53.9-12.1c1.4-0.3,3.1-2.1,3.6-3.6c2-5.8,3.9-11.7,5.4-17.8c1.7-7.1,7-10.7,13.2-12.2
				c6.5-1.6,13.3-1.8,20-2.4c1-0.1,3,1.1,3,1.7c-0.1,3.3,0.4,7.2-1.2,9.6c-3.5,5.2-5.7,10.5-6.2,16.7
				C2905.1-160.8,2904.1-154.2,2903.3-147.2z M2883.7-1021.3c0.7,0.1,1.4,0.2,2.1,0.4c0.6-5,1.3-10,1.9-15c-0.4-0.1-0.8-0.1-1.2-0.2
				C2885.6-1031.2,2884.6-1026.3,2883.7-1021.3z"/>
			<path d="M2619.7-928.9c1.5-1.9,3-3.7,4.8-6.1c0.7,0.2,2.2,0.7,2.9,0.9c2-0.9,3.4-1.8,4.8-2.1c3-0.6,3.6-2.1,2.2-4.6
				c-2-3.6-4.2-7.2-6.2-10.8c-0.6-1-1-2-1.5-2.9c0.5-0.4,0.6-0.6,0.7-0.6c4.2,4.1,7-0.8,10.4-1.8c0.9-0.3,2.1-2.8,1.7-3.7
				c-1.2-2.8-0.4-4.2,3.4-5.3c-6.3-4-2.3-9.2-3-13.8c0-0.2,0.1-0.7,0.2-0.7c4.4-2.2,3.7-5.6,1-9.5c2.2,0,3.4,0,4.4,0
				c2.2-8.5,4.3-16.6,6.6-25.4c0,6.9-0.1,13.2,0,19.5c0,1.6,0.6,3.2,1,4.9c0.2,1.2,0.7,2.3,0.6,3.5c-0.4,3.3-2.2,6.8,2.2,9.1
				c0.6,0.3,0.2,2.7,0.1,4.2c-0.2,3.5-0.5,6.9-0.8,10.4c0.6,0.2,1.1,0.4,1.7,0.6c1.8-2,3.5-4.1,5.3-6.1c0.4,0.2,0.8,0.3,1.2,0.5
				c-0.7,2.3-1.1,4.7-2.1,6.8c-2,4.4-1.2,5.8,3.8,6c7.5,0.3,7.3,0.2,4.8,7.7c-1.1,3.5-0.6,7.6-3.4,10.7c2.7,6-3.2,10.1-3.2,15.5
				c0,0.4,0.3,0.7,0.3,0.8c2.1,0,3.9,0,5.8,0c-0.4,2-0.8,4-1.3,6.2c2.8,5.4,7.4,2.2,11.6,1.2c-3.2,9.2-6.3,17.8-9.3,26.5
				c0.4,0.3,0.9,0.5,1.3,0.8c1.5-0.8,3.1-1.6,4.4-2.4c-1.3,6.1-2.5,12.1-3.6,17.5c5.4,4,9.1,0.6,12.9-1.8c0.2,0.3,0.5,0.7,0.7,1
				c-1.9,3-3.8,6-5.8,9.1c2.8,2.1,4.9,2,7.2-0.2c3.9-3.7,6.2-7.4,4.3-13.2c-0.7-2,1.3-5.1,2.4-7.5c2.1-4.6,0.3-8.8-0.8-13.1
				c-0.2-0.8-0.6-1.7-0.3-2.4c1.5-4.3,3.2-8.6,4.3-11.3c0.4,9.7,1.9,14.7,9.4,25.9c-1.4-0.1-2.6-0.1-4.5-0.2
				c1.3,4.8,2.6,9.1,3.9,13.7c-2.9,2.1-2.6,3.1,3.8,10.4c-4.3,1.2-4.3,1.2-1.9,5.4c1.1,2,2.1,4.1,3.2,6.4c-0.3,0.2-1.1,0.9-2.3,2
				c2.1,1.5,3.9,2.7,6,4.1c-0.7,0.9-1.4,1.6-2.6,3.1c4.8,1.9,9.3,3.7,13.9,5.5c-2.6,0.1-5.1,0.3-7.4,0.4c-0.1,4.6-4,9.3,2.5,12.7
				c-1.4,0.5-1.8,0.7-2.3,0.8c-1.5,0.4-2.9,0.9-4.4,1.3c0.8,1.2,1.7,2.2,2.3,3.5c1.1,2.1,1.9,4.3,2.7,6.3
				c-1.9,6.3,1.4,10.2,7.4,13.7c-4.4,1.3-7.6,2.2-11.8,3.4c4.7,3.3,8.6,6.1,12.7,9c-0.9,0.6-2,1.3-4.3,2.8c3.2,1.3,5.5,2.5,7.8,3.2
				c1.6,0.5,3.5,0.7,5.2,0.6c1.7-0.1,3.4-0.9,5.1-1.4c-1.2-1.3-2.3-2.6-3.5-3.9c-0.4-0.4-0.8-0.7-1-1.5c3.4,1.2,6.8,2.3,10.3,3.5
				c0.3-0.5,0.6-1.1,0.9-1.6c-1.7-1.2-3.5-2.4-5-3.7c-2.1-1.8-4.2-3.6-5.9-5.7c-0.6-0.8-0.2-2.5-0.3-3.7c1.2,0.2,2.6,0,3.6,0.5
				c3.9,2.3,7.8,4.2,12.5,2.1c2.5-1.1,2.9-2.4,0.9-4.1c-6.3-5.3-12.7-10.5-19-15.8c-0.8-0.7-1.5-1.6-1.9-2.9
				c5.6,2.5,10.9,5.3,17.6,3c-2.8-7.8-11.2-10.7-16-18.2c6,1.8,10.8,3.1,15.6,4.7c4.1,1.4,4.2,1.5,6.4-2.5c2.7,1.3,5.3,2.8,8.1,3.9
				c1.2,0.5,2.8,0.1,4.2,0.1c-0.2-1.4-0.1-3-0.8-4.1c-2.4-4-4.6-8.2-9.4-10.1c-1.2-0.5-2.5-2.2-2.7-3.6c-0.8-4.8-3.6-7.6-7.7-9.6
				c-3.6-1.8-7.4-3.3-9.3-8.5c7.5,0,14.6,0,21.9,0c-0.2-1.7-0.4-3.1-0.6-5.1c4.3,1.5,8.3,2.8,12.4,4.1c0.2-4.6-4-9.6-8.6-10.9
				c-2.1-0.6-4-0.9-3.2-3.9c0.2-0.7-0.9-2.1-1.7-2.7c-2.4-1.7-4.9-3.2-7.4-4.8c-4.1-2.7-6.6-6.1-4.8-12.1c3.4,5,8.2,5.3,13.2,5.2
				c2.9,0,4.1,2.1,5,4.5c0.8,2.5,2,3.9,5.1,2.3c1.2-0.6,3-0.2,4.5,0.1c1.3,0.3,2.6,1,4.7,1.9c-1.8-10.9-12.6-15.2-15.6-25.3
				c2.3,1.3,3.7,2.1,5.2,2.9c3.1,2,6.2,4,9.4,5.9c0.5,0.3,1.6,0.4,1.8,0.1c0.4-0.6,0.7-1.5,0.6-2.1c-0.7-2.5-1.6-4.8-2.4-7.3
				c-0.4-1.3-0.8-2.7-1.3-4.5c1.8,0,3.1,0,4.3,0c1.8-7,3.9-13.6-0.4-20.5c1.9-0.4,2.9-0.7,3.8-0.9c2.2-6,1.3-11.6-3-17.9
				c4,0.9,6.6,1.5,9.6,2.1c0.5-4.9,0.9-9.4,1.4-13.9c0.2,0,0.3,0,0.5,0c0.3,2.4,0.5,4.9,1.1,7.3c0.4,1.4,1.5,2.5,2.3,3.8
				c0.2,0.3,0.8,0.7,0.8,0.8c-1.6,5.2,2.5,4.7,6.7,4.9c-2,1.8-3.1,2.7-4,3.7c-1.3,1.5-2.5,3.1-3.5,4.7c-0.3,0.5,0.1,2.2,0.2,2.2
				c3.1-0.2,5,4.1,8.6,2.3c0.8-0.4,1.8-0.7,2.7-0.7c1.1,0.1,2.2,0.6,3.3,0.9c-0.5,1-0.7,2.1-1.4,3c-1.8,2.2-3.8,4.2-5.7,6.3
				c-2.2,2.3-3.6,4.6-2.3,8c0.3,0.9-0.4,2.3-0.9,4.5c3.1-1,5.8-1.8,8.4-2.6c0.2,0.1,0.3,0.3,0.5,0.4c-4.8,4.5-9.6,9-14.4,13.6
				c5.1,4.2,12.3,3.5,16.3-1.4c5.3-6.6,11.8-9.9,20.3-9.2c0.2,0,0.5-0.2,1.2-0.5c-1-2.8-2-5.7-3.2-9.3c7.1,2.6,13.4,5,19.7,7.3
				c1.1-1.9,2-3.5,3.1-5.5c-2-1.3-4-2.6-7-4.6c3.6,0.6,6,1,8.4,1.3c0.2-0.3,0.4-0.7,0.6-1c-4.6-3.6-9.3-7.1-13.9-10.7
				c0.1-0.3,0.3-0.7,0.4-1c3.6-0.7,7.2-1.4,10.8-2.1c0-0.4,0-0.9,0-1.3c-4.3-2.2-8.7-4.5-13-6.7c0.2-0.5,0.4-1.1,0.6-1.6
				c5.8,1.2,11.7,2.3,17.5,3.5c0.2-0.4,0.4-0.9,0.7-1.3c-3.6-2.4-7.1-4.8-10.7-7.3c0.1-0.2,0.2-0.4,0.3-0.7
				c4.6,1.3,9.1,2.8,13.8,3.9c1.4,0.4,3,0,4.5-0.1c-0.5-1.3-0.9-2.7-1.6-3.9c-1.4-2.4-2.9-4.7-4.4-7c0.3-0.3,0.5-0.6,0.8-0.8
				c2.3,1.1,4.5,2.1,6.8,3.2c0.4-0.2,0.8-0.4,1.2-0.6c-1.7-4.7-3.4-9.4-5.1-14.3c1.4-0.6,2.4-1.1,4.5-2.2c-5.1-3.3-9.6-6.2-14.3-9.3
				c1.3-0.9,2.3-1.5,3.2-2.1c-0.7-2.7-0.8-5.6-2.1-7.8c-1.2-2-3.6-3.2-5.5-4.8c0.1-0.5,0.3-0.9,0.4-1.4c1.7,0.2,3.3,0.4,5,0.5
				c2.3,0.2,4.6,0.2,6.9,0.4c1.3,0.1,2.6,0.3,3.9,0.2c1.9-0.1,3.8-0.4,5.7-0.6c-0.3-1.8-0.6-3.6-1-5.4c-0.1-0.6-0.7-1.1-1.3-2.2
				c3.2,0.6,4.9,0,6.6-3.1c1.9-3.5,5.7-6,9-9.3c0.7,2,1.2,3.3,1.9,5.3c1.4-1,2.5-1.8,3.6-2.6c1.7-1.2,3.2-1.3,3.1,1.3
				c-0.1,2.4-0.6,4.8-1,7.2c-0.2,1.1-0.3,2.3-0.5,3.1c2.5,0.6,4.5,1.1,6.5,1.6c-1,1.8-2.2,3.6-3.1,5.5c-0.9,2-1.3,4.1-2,6.2
				c2-0.7,4.2-1.1,6.1-2.1c2.7-1.4,5.2-3.4,7.8-5c1.2-0.7,2.6-0.9,4.5-0.6c-2.1,2.8-4.1,5.6-6.4,8.7c1.1,0.6,1.7,1.2,2.4,1.3
				c2.6,0.5,3.1,2,1.7,4.1c-1.2,1.8-1.1,3,0.6,4.4c0.6,0.5,0.5,2.6,0,3.7c-1.7,3.6-1.8,3.7,2.2,6.5c-4.4,5.8-8.9,11.6-13.3,17.5
				c0.4,0.4,0.7,0.8,1.1,1.2c2.9-1.3,5.8-2.6,9.1-4c0.5,1.5,0.8,2.7,1.3,4.1c2.9-1.5,5.6-2.8,8.3-4.2c0.2,0.2,0.5,0.5,0.7,0.7
				c-4,5.2-8.1,10.4-12.3,15.9c6.1,3.1,9.8-2.7,14.7-1.9c-3,4-6,7.8-8.7,11.7c-0.7,1-0.5,2.6-0.8,3.9c1.4,0,2.8,0.3,4.2,0.1
				c6.8-1.2,12.1-5.5,17.7-9.1c1.4-0.9,2.9-1.7,4.4-2.5c0.3,0.3,0.6,0.7,0.9,1c-1.4,1.6-3,3-4.3,4.7c-0.6,0.8-0.6,2.1-0.9,3.2
				c1.2,0.2,2.6,0.8,3.6,0.5c2.2-0.8,4.3-2.1,6.9-2.4c-5.2,4.8-10.4,9.7-15,13.9c0.3,2.9,0.6,5,0.9,7.8c5.7,0.7,10.5-4.1,16.9-4.9
				c-0.8,1.1-1.5,2.5-2.5,3.4c-1.8,1.6-3.8,3-5.7,4.5c-2.7,2.2-5,4.4-4.7,8.7c0.2,2.1-1.6,4.8-3.2,6.6c-2.6,2.9-5.7,5.2-8.6,7.9
				c-1.5,1.5-2.9,3.1-5,5.4c4,0.3,6.7,0.5,9.6,0.8c-3.5,7.1-6.8,13.9-10.5,21.6c3.8-1,6.8-1.7,9.2-2.4c0.1,2.4,0.3,4.5,0.4,6.7
				c2.3-0.7,4.7-1.2,6.9-2.2c2.8-1.3,5.4-3,8.1-4.5c0.4,0.4,0.9,0.8,1.3,1.3c-2.5,4-5,8.1-7.7,12.4c3.4,1,4.7-0.8,6.5-2.4
				c4.4-3.8,9.3-7,14-10.4c0.4,0.4,0.7,0.8,1.1,1.2c-0.7,1.3-1.3,2.6-2,3.9c2.8,2,5.3,4.2,8.2,5.7c1.3,0.7,3.4-0.2,5.2-0.4
				c-0.2-1.5,0.3-3.5-0.5-4.4c-5.8-6.1-6.7-14.5-10.6-22.1c1,0.3,2,0.5,2.9,1c3,1.5,5.9,3.1,8.8,4.6c3.2,1.6,3.7-0.3,3.1-2.7
				c-0.9-3.5-2.2-6.8-3-9c0.2-3,0.4-5,0.6-7.3c0.5,0,1.6,0,3.7,0c-1-2.9-1.9-5.5-3-8.7c4.1-0.3,3.7-4.2,4.3-7.6
				c3.2,1.7,4.9,3,2.6,6.4c-2.4,3.5-1.3,6.3,1.7,7.3c-0.8,7.4-1.6,14.8-2.4,22.2c0.6,0.3,1.1,0.6,1.7,0.9c4.1-3.6,8.1-7.1,11.8-10.3
				c0,7.3,0,14.4,0,21.6c8.9,0,16.5-4.8,18.4-11.7c0.3-1.2-0.1-2.5-0.2-3.8c-1.1,0.2-2.2,0.4-3.2,0.7c-2.6,0.6-5.3,1.3-8.2,1
				c1.2-0.9,2.3-1.8,3.5-2.7c2.5-1.9,6-3,3.8-7.7c-0.8-1.6,0.3-3.8,2.4-5.6c3.7-3.1,6.7-7.2,9.6-11.2c1.1-1.5,0.9-3.9,1.3-5.9
				c-1.6,0-3.2,0-5.8,0c2.4-2.6,4.3-4.7,6.3-6.7c2.7-2.8,4.6-5.3,4.7-9.9c0.1-5.4-0.3-11.1,2.8-16.6c3.4-6,4.9-13,6.5-17.5
				c1.4,5.1,3.3,12,5.1,18.9c0.2,0.8,0.7,2,0.3,2.3c-3,3-1.2,5.8,0.4,8.8c-4.4,1.9-3.2,4.6-1.6,7.6c2.2,4,4.1,8.1,6.3,12.5
				c-3.6,1.5-2.6,4-1.4,6.5c1.4,2.8,4.2,4.5,1.8,9c-1.4,2.6,0.9,7.6,2.4,11.2c1,2.4,3.4,4.4,5.4,6.4c1.8,1.9,3.8,3.6,6.3,5.9
				c-2.4,0.4-3.9,0.7-5.4,0.9c0.3,4.6,4.7,7.7,12.4,8.7c1.4-2.9,0.7-5.6,0.3-8.8c-0.7-5-3.7-7.1-6.8-10c-1.9-1.7-0.2-4.6,3.5-5.4
				c-1.4-2-2.6-3.9-4.2-6.2c2.5-0.4,4.2-0.7,6.3-1c-2.2-5.8-4.4-11.4-6.6-17.1c2.7,0.5,6.5,5.3,7.5-0.6c3.3-1,6.1-1.7,8.7-2.9
				c0.6-0.3,0.8-2.5,0.4-3.5c-1.3-2.6-3-5.1-4.5-7.6c-0.7-1.2-1.1-2.4-1.5-3.3c2.6-0.6,4.8-0.9,6.8-1.6c2.5-0.8,4.3-2.2,3.3-5.4
				c-0.2-0.7,1.1-1.9,0.7-2.8c0-3.7,0-7.4,0-11.1c0-0.5,0.2-1.2,0.5-1.4c3.4-1.8,1.9-4.5,1-7.4c3,0.2,3.6-1.2,4-3.8
				c0.8-5,2.7-9.9,4.2-15c0,4.4-0.1,8.7,0,13c0.1,4.2-0.9,9.4,1.2,12.3c3.5,4.7,1.5,8.9,1.5,13.4c0,0.6,0.4,1.2,1,2.8
				c1.9-2.1,3.3-3.6,4.7-5.1c0.3,0,0.5,0.1,0.8,0.1c-0.4,1.8-0.9,3.5-1.3,5.3c-0.3,1.3-0.8,3.6-0.3,3.9c1.5,0.9,3.5,1.5,5.2,1.3
				c3.3-0.4,4.6,0.7,3.6,3.8c-1.2,3.7-2.7,7.4-3.7,11.1c-1.2,4.6-1.9,9.3-2.9,14.4c1.6,0,3.2,0,5.1,0c-0.4,2.5-4.1,5.4,0.6,6.6
				c2.4,0.6,5,0.1,7.5,0.1c-2.4,7-4.9,14.2-7.4,21.4c0.4,0.2,0.8,0.4,1.2,0.6c1.2-0.5,2.4-0.9,3.3-1.3c-0.9,4.6-1.7,9.4-2.6,13.9
				c4.2,3.4,7.5,1.6,10.6-1.5c0.2,0.4,0.4,0.8,0.6,1.2c-1.6,2.4-3.1,4.9-4.8,7.5c3.1,1.8,5.5,1.6,7.9-0.3c1.8-1.4,3.5-3.6,6.4-1.8
				c0.2,0.1,2.3-1.7,2.3-2.7c0-1.4-1.1-2.8-1.6-4c2.6-4,6-7.7,7.6-12.1c3-7.8,4.9-16,7.2-24c0.4-1.5,0.7-3.1,1.9-4.7
				c1.2,5.1,1,11.2,3.9,15.2c4.4,6.1,3.3,12.7,4.8,19.4c-0.7,0.4-1.7,1-3,1.9c3.1,5.3,8.4,7.2,14.6,9.7c-3.1,1.1-5.1,1.9-6.9,2.5
				c-0.2,2.7-0.4,5.2-0.6,7.7c-1,0.3-2,0.6-3.9,1.2c2.9,3.2,5.4,6,7.4,8.1c-1.2,2.8-2.1,5-3.1,7.4c2,1.9,3.8,3.6,6.2,5.9
				c-2.4,0-3.9,0-5.8,0c1,4.1,4,8.1-1.1,12.1c3.8,2.6,7.1,5.1,10.6,7.1c1.1,0.6,3.3,0.3,4.3-0.5c2.4-1.9,4.5-4.2,6.5-6.6
				c0.6-0.7,0.1-2.3-0.6-3.6c1-1.5,1.9-3,3.5-5.5c-4,0.5-7,0.9-10.2,1.4c0.2-3,5.7-4.5,1.7-7.6c1.8-1.7,3.7-3.4,6.4-5.8
				c-2.8-0.5-4.3-0.7-6.5-1.1c2-1.8,4-3,5.1-4.8c1.5-2.2,2.3-4.8,3.4-7.3c0.3-0.6,0.5-1.2,0.8-1.8c0.9-2,3.4-3.1,0.7-6.3
				c-1.5-1.8,0.1-6.4,0.8-9.5c1.1-4.7,2.8-9.2,4.4-14.2c1,5.7,1.7,11.3,3,16.7c0.4,1.7,2.4,3,3.6,4.4c-0.2,1.4-0.3,2.9-0.5,4.7
				c-0.7,0-1.8,0-3.6,0c2,6.8,6.7,9.7,12.9,11.7c-1.3,0.5-2.5,0.9-4.6,1.7c2.3,2,4.2,3.8,6.8,6.2c-2.6,0.4-4.7,0.8-7.9,1.3
				c1.8,2.7,3.3,4.8,5,7.2c-1.4,0.5-2.7,1-4.2,1.5c0.2,1.1,0.4,2.1,0.6,3.3c-1.2,0.5-2.4,1-3.9,1.6c2.3,7.4,9.3,8.6,15.4,11.6
				c-1,0.8-1.6,1.3-2.2,1.8c-0.5,0.4-1.1,0.7-1.8,1.1c3.5,6.2,10.7,5.8,15.9,9.5c-4.3,3.6-11.8-0.3-13.6,7.5c1.5,1.1,3.5,2.6,5.3,4
				c-1.2,5.4-5.2,4.7-8.8,4.2c1.4,9.3,9.3,10.4,14.6,13.1c0,1.6,0,2.8,0,4.3c-1.8,0.1-4.1,0.3-6.5,0.5c1.4,3,2.6,5.6,3.7,8.1
				c-0.3,0.1-0.6,0.3-0.9,0.4c2.4,1.3,4.8,2.6,7.2,3.9c0.1,0.4,0.3,0.8,0.4,1.2c-1,0.4-2.1,0.7-3.1,1.1c0.1,0.4,0.2,0.8,0.3,1.2
				c3.3,1.9,6.5,3.8,9.8,5.7c0,0.4,0,0.7,0.1,1.1c-3.4,0.8-6.7,1.7-10.1,2.4c-2.4,0.5-2.8,1.2-0.7,3.2c-2.2,0.2-4.1,0.3-6.1,0.5
				c1.7,5.2,5.9,8.4,11.1,8.4c21,0,42,0,63,0c5.6,0,5.6,0,5.6,5.7c0,4.8,0,9.7,0,14.5c0,4.9-0.3,5.3-5.3,5.3c-24.6,0-49.3,0-73.9,0
				c-130.8,0-261.6,0-392.4,0c-136,0-272.1,0-408.1,0c-5.2,0-5.6-0.4-5.6-5.4c0-4.8,0-9.7,0-14.5c0-5.4,0.1-5.5,5.8-5.5
				c21.5,0,43.1,0,64.6,0c1.7,0,3.3-0.5,5-0.7c0-0.4,0-0.8-0.1-1.2c-1-0.5-2-1-3.2-1.6c2.5-2.7,5-5.4,7.5-8
				c-0.2-0.2-0.3-0.5-0.5-0.7c-3.7,0.6-7.4,1.1-11.1,1.7c-0.2-0.4-0.3-0.7-0.5-1.1c3.7-3.2,7.5-6.3,11.2-9.5
				c1.4-1.2,3.6-2.1,2.6-4.8c-0.2-0.6,1.2-1.9,2-2.8c1.5-1.9,3.1-3.9,5.2-6.4c-2.4-0.4-3.8-0.6-4.9-0.8c-0.1-2-0.2-3.7-0.3-5
				c0.7-2.9,1.4-5.5,2.4-9.3c-4.2,1.8-7.1,3-10,4.2c-0.2-0.3-0.5-0.5-0.7-0.8c4.2-5.4,10.2-9.5,12.4-17c-4,1.1-7.5,2.1-10.9,3
				c-0.1-0.3-0.3-0.6-0.4-1c0.8-1.3,1.6-2.6,2.7-4.3c-1.5-0.4-2.7-0.7-4.4-1.2c3.8-3.9,7.5-7.7,11.5-11.8c-1.9-0.8-2.9-1.3-4-1.7
				c1.6-1.9,3.1-3.7,5.2-6.3c-3.4,0-5.7,0-9.4,0c6.5-5.1,13.4-8.1,16.5-15.6c-2.4-0.2-4.2-0.3-6.4-0.5c1.7-2.3,6-2.8,3.8-6.9
				c-0.3-0.5,1.6-2.2,3.1-4c-3.9,0.6-6.9,1-10,1.5c-0.1-0.3-0.3-0.7-0.4-1c2.4-2.6,5-5.1,7.2-7.8c1.6-1.9,3-4,4.1-6.3
				c0.4-0.7-0.6-2.1-1-3.4c6.8-6.3,6-16.6,11.1-24.7c0.4,1.3,0.8,2.6,1.2,3.8c1,2.9,2.2,5.8,3.2,8.7c0.8,2.4,2.4,4.2,2.5,7.3
				c0.1,2.7,4.2,5.9,7.2,7.7c2.3,1.4,6.1,1.9,7.9-1.5c1.6-3.2,0.6-6.3-1.8-8.9c-3.2-3.7-3.3-4.1,1-5.7c4.6-1.7,1.7-4,0.1-7
				c3.5-0.3,6.4-0.6,9.9-0.9c-4.1-5.7-7.9-11.1-12.3-17.1c2.1,0.4,4,0.7,5.8,1c3.6,0.5,7.1,1.3,10.7,1.4c3.5,0.2,4.6-1.4,3-4.5
				c-1.7-3.1-4.1-5.8-6.5-9.2c1.1,0,2.5,0,3.8,0c3-0.1,3.6-1.5,2.5-4.3c-1.1-2.8-1.9-5.8-2.2-8.7c-0.1-0.8,1.9-1.9,3.4-3.3
				c-0.2-1.3-1.2-3.5-0.7-5.3c1-3.9,2.9-7.6,4.2-11.4c0.9-2.9,1.5-5.9,2.5-8.8c0,2.4-0.4,4.9,0.1,7.2c0.5,2.2,1.9,4.3,2.9,6.4
				c0.3,0.6,0.2,1.3,0.3,2c0.4,3.2-0.4,6.4,2,9.6c1.4,1.9,3.2,4.8,2.1,8.4c-1,3.5,2.4,5.4,6,3.9c4-1.7,7.9-3.6,11.9-5.4
				c0.3,0.3,0.6,0.6,0.8,1c-1.4,1.8-3,3.5-4.1,5.5c-0.8,1.5-0.9,3.3-1.2,5c-0.1,0.9,0.4,1.8,0.3,2.7c-0.6,4.8,3.9,8.1,8.6,6.4
				c0.9-0.3,1.9-0.1,2.9-0.1c-0.3,1-0.3,2.4-1,3.1c-3,2.7-5.9,5.6-9.2,7.8c-3.6,2.4-2.7,6.2-3.6,9.4c-0.2,0.7,2.5,2.1,4,3.3
				c-2.1,3.1-4.3,6.4-6.6,9.8c0.5,0.5,0.9,1,1.4,1.5c4.2-2.7,8.4-5.4,13.7-8.7c-0.8,3.3-1.3,5.4-1.8,7.7c2,0,3.7,0,5.7,0
				c-0.2,3.2,1.5,3.8,4.3,4.2c4.1,0.6,8.1,2.1,12.2,3.3c0.7,0.2,1.5,0.4,2.7,0.8c-0.6-6.7-3.2-12.1-7.7-17.4c2.7,0,4.5,0,6.2,0
				c0.3-0.3,0.5-0.5,0.8-0.8c-3.9-4.1-7.9-8.3-11.9-12.6c2.7-1.4,5.2-2.8,8.2-4.3c-3.3-3.4-6.6-6.7-9.9-10.1
				c0.3-0.3,0.5-0.5,0.8-0.8c7.7,3.5,15.4,7,23.2,10.5c2-4.5,3.5-8,0.1-11.5c-0.5-0.5-0.9-1.6-0.7-2.2c1.4-4.1-1.7-6.5-4.1-7.8
				c-3.4-1.8-4-3.9-3.2-7.4c1.1-0.2,2.5-0.4,4.6-0.7c-1.8-2.8-3.3-5.1-5.4-8.3c3.3,0,5.4,0,8.1,0c-2.8-5.1-4.3-10-4.3-15.3
				C2618.8-928,2619.3-928.4,2619.7-928.9z M2818.4-867.5c0,0.4,0.1,0.7,0.1,1.1c-4.1,1.9-8.3,3.6-12.2,5.7c-2.3,1.3-4.7,2.9-6,5.1
				c-1,1.8-0.4,4.5-0.5,6.8c1.8-0.3,3.7-0.2,5.2-1c4.4-2.4,9-3.2,14-2.5c1.9,0.2,3.8-0.3,6.2-0.5c-0.9-1.6-1.5-2.6-2.7-4.6
				c6.3,2.6,10.1-0.4,14-3.1c0.6-0.4,1.5-0.5,2.2-0.9c1.5-0.9,3-1.9,4.5-2.9c-1.3-1.3-2.5-2.7-3.9-3.8c-1.3-0.9-3-1.3-4.4-2
				c-0.7-0.4-1-1.2-2.1-2.5c3.6,0.3,6.2,0.5,8.8,0.7c0.2-0.4,0.4-0.8,0.6-1.2c-1.7-1.6-3.2-3.5-5.1-4.6c-4.7-2.5-9.8-4.4-14.5-6.9
				c-2.7-1.4-5-1.2-7.5,0.4c-3.1,2.1-6.4,3.9-9.5,6c-0.9,0.6-1.5,1.9-2.2,2.9c1.1,0.5,2.3,1.5,3.4,1.5c3.1,0,6.2-0.4,10-0.8
				c-1.4,2.1-2.5,3.6-3.7,5.4C2815.2-868.5,2816.8-868,2818.4-867.5z M3114.2-790.2c9.9-0.8,21.3-18.4,17.1-25.2
				c-1.4,0.7-2.7,1.3-4.3,2.1c1-1.7,1.9-3.2,3-4.8c-5.2-1.1-8.1,2.2-7.6,7.5c0.1,1-0.4,2.3-1,3.1c-3.4,3.9-6.9,7.6-11,12
				c3.3,0,5.6,0,8.3,0C3117.1-793.7,3115.9-792.3,3114.2-790.2z M2964.3-824.5c0.1-0.6,0.4-1,0.2-1.3c-2.4-5-4.9-10-7.3-15
				c-0.5-0.9-1.2-1.7-1.6-2.7c-0.4-1.1-0.7-2.2-1-3.4c-1.2,0.6-2.6,0.9-3.7,1.7c-1.6,1.2-2.8,2.6-1.8,5.1c0.5,1.1,0,3.1-0.8,4.1
				c-2,2.4-1,4.3,0.9,5.4c4.2,2.4,8.7,4.3,13.1,6.3C2962.9-824.1,2963.7-824.4,2964.3-824.5z M2617.4-807.9c0.2-0.3,0.5-0.7,0.7-1
				c-4.4-3.7-8.7-7.5-13.2-11.2c-0.3-0.3-1.9,0.3-2.3,0.9c-2.6,4-5.1,8.1-7.5,12c4.9,4.4,10.1,2.1,13.4,0c2.6-1.7,3.9-1.4,6.2-0.7
				C2615.6-807.7,2616.6-807.9,2617.4-807.9z M2606.5-826.6c-2.6-3.5-4.3-6.1-6.4-8.5c-0.5-0.6-2.9-0.8-3.2-0.3
				c-2.4,3.6-4.6,7.4-6.8,11.1c0.3,0.4,0.5,0.8,0.8,1.2c1.6-0.9,3.4-1.6,4.8-2.7c2.1-1.7,3.8-4.1,6.6-0.8
				C2602.9-826.1,2604.5-826.6,2606.5-826.6z"/>
			<path d="M2903.3-147.2c0.9-7.1,1.9-13.7,2.4-20.3c0.5-6.2,2.6-11.5,6.2-16.7c1.6-2.4,1.2-6.4,1.2-9.6c0-0.6-2-1.8-3-1.7
				c-6.7,0.6-13.5,0.8-20,2.4c-6.2,1.5-11.4,5.1-13.2,12.2c-1.5,6-3.3,11.9-5.4,17.8c-0.5,1.5-2.2,3.3-3.6,3.6
				c-17.9,4.2-35.9,8.1-53.9,12.1c-0.9,0.2-1.8,0.1-2.7,0.2c-0.2-0.4-0.5-0.6-0.5-0.8c3.2-8.8,6.2-17.8,9.7-26.5
				c0.8-1.9,2.9-3.5,4.7-4.8c3.7-2.6,4.8-6.3,5.2-10.4c0.1-1-1-3-1.6-3c-8.9-0.5-17.7-3.8-26.7-1.3c-4.5,1.3-7.7,3.9-9.9,8.2
				c-2.8,5.5-5.9,10.9-9.3,16.1c-0.9,1.4-3.1,2.8-4.7,2.8c-18.4-0.1-36.9-0.4-55.3-0.6c-0.7,0-1.5-0.3-2.7-0.6
				c0.6-1.2,0.9-2.2,1.4-3c4.2-6.5,8.3-13.2,12.9-19.5c1.8-2.5,4.8-4.4,7.6-5.7c4-1.9,5.5-5.4,6.8-9c0.3-0.8-0.8-2.8-1.7-3.2
				c-6.4-2.5-12.8-5.3-19.4-6.7c-6.3-1.4-12.5-0.5-17,5.5c-3.7,4.8-7.9,9.1-12.3,13.3c-1.3,1.3-3.9,2.2-5.6,1.9
				c-18.2-4.1-36.4-8.5-54.5-12.9c-0.5-0.1-1-0.4-2.2-0.9c7.4-7.1,14.4-13.9,21.6-20.5c1.3-1.2,3.4-1.6,5.3-1.8
				c4.8-0.6,7.7-3.7,9.9-7.5c0.5-0.8,0.3-3-0.2-3.3c-8-4.4-14.6-12-24.4-12.6c-3.5-0.2-7.4,0.9-10.5,2.6c-5.6,3.2-10.6,7.4-16,10.8
				c-1.4,0.9-4,1.2-5.5,0.5c-16.9-8.1-33.6-16.4-50.3-24.7c-0.7-0.3-1.3-0.8-2.5-1.6c8.7-5.2,17-10.2,25.3-14.9
				c1.5-0.9,3.7-0.9,5.5-0.8c4.7,0.4,8.2-1.8,11.6-4.7c2-1.6,1.9-3,0.2-4.7c-4.7-4.6-9-9.7-14.2-13.8c-5.2-4.1-11.4-5.8-18.1-2.6
				c-5.6,2.6-11.4,4.8-17.2,6.8c-1.4,0.5-3.7,0.5-4.7-0.4c-14.9-11.9-29.7-24.1-44.5-36.1c-0.2-0.2-0.3-0.5-0.7-1.2
				c1.1-0.6,2.1-1.3,3.3-1.7c7.8-2.6,15.5-5.2,23.4-7.4c2.3-0.6,5.1-0.1,7.5,0.5c4.2,1.1,7.6-0.6,11.1-2.3c2.1-1,2.2-2.6,1.1-4.3
				c-3.6-5.7-6.9-11.7-11.1-16.8c-4.4-5.4-10.2-8.5-17.9-6.6c-5.7,1.4-11.6,2.2-17.5,2.7c-1.7,0.2-4.2-1-5.4-2.4
				c-7.1-8.7-13.9-17.5-20.6-26.4c-2-2.6-4.2-3.8-7.5-3.8c-19.9,0.1-39.8,0.1-59.7,0c-5.3,0-5.5-0.2-5.5-5.4c0-5.4,0.1-10.8,0-16.1
				c0-2.5,1.1-3.7,3.6-3.7c1.6,0,3.2,0,4.8,0c108,0,216.1,0,324.1,0c67.8,0,135.6,0.1,203.4,0c113.2,0,226.3-0.1,339.5-0.1
				c11.5,0,9.7-0.8,9.8,10c0,3.5-0.2,7,0.1,10.5c0.3,3.8-1.4,4.9-5,4.9c-19-0.1-37.9,0-56.9,0c-4.2,0-8.3,0-12.5,0
				c-1.4,0-2.8,0.3-5.4,0.6c2.9,3,5.1,5,7,7.3c1,1.3,2.2,3.4,1.9,4.8c-4.2,18.3-8.6,36.6-13,54.9c-0.1,0.5-0.4,0.9-1.1,2.2
				c-2.6-2.5-5-4.8-7.2-7.1c-2.4-2.5-4.6-5.3-7.2-7.6c-4.2-3.8-6.8-8.3-8.6-13.8c-1.1-3.2-4.5-5.6-7.2-8.2c-0.4-0.4-2.7,0.3-3.2,1.1
				c-3.7,5.6-7.9,11-10.7,17c-2.8,6.3-3.2,13,1.8,19c3.1,3.7,5.6,7.9,8.5,11.7c2.4,3.1,2.8,6.5,1.2,9.8c-8.1,16.8-16.3,33.5-25,51.3
				c-2.6-4.3-4.7-7.6-6.8-11c-1.8-3-3.4-6.1-5.5-9c-2.9-4-4.3-8.3-3.9-13.2c0.4-4.6-2.8-7.4-5.5-10.3c-0.5-0.5-2.3-0.6-2.7-0.2
				c-6.1,6.8-14.5,11.7-18,20.8c-1.6,4.1-1.5,8,0.4,12.1c2.6,5.5,4.9,11.1,6.8,16.8c0.6,1.7,0.4,4.5-0.7,5.8
				c-11.4,14.3-23,28.4-34.6,42.6c-0.5,0.6-1.2,1.1-2.2,2c-0.8-1.6-1.6-2.9-2.1-4.3c-2.1-6.1-4.5-12.1-6.1-18.4
				c-0.9-3.5-1.1-7.4-0.7-11c0.6-4.1-0.1-7.7-2.1-11.2c-1.1-2.1-2.5-2.7-4.5-1.4c-5.4,3.5-11.3,6.5-16.3,10.5
				c-5.4,4.3-8.9,10-6.9,17.7c1.3,5.2,1.8,10.6,2.7,15.9c0.6,3.7-0.5,6.2-3.6,8.6c-13.5,10.3-26.7,20.8-40.1,31.3
				c-1.2,1-2.5,1.8-4.5,3.3c-0.5-3.8-0.9-6.7-1.2-9.7c-0.6-5.7-1.5-11.5-1.5-17.3c0-3.5,1.2-7.1,2.6-10.3c1.7-3.9,0.3-7.4-0.8-10.9
				c-0.2-0.6-1.9-1.5-2.5-1.3c-7.9,3.1-16.1,5.9-23.6,9.9c-4.7,2.5-6.5,7.4-6.4,13.1c0.1,6-0.7,12.1-1.4,18.1
				c-0.2,1.4-1.5,3.3-2.8,3.9c-16.7,8-33.5,15.9-50.3,23.8C2905.4-147.5,2904.6-147.5,2903.3-147.2z M3122.5-365.1
				c-0.3-0.4-0.6-0.7-0.8-1.1c-0.8,0.8-1.7,1.5-2.4,2.3c-6.8,7.8-13,16.2-20.4,23.5c-11,10.9-22.2,21.6-34.1,31.3
				c-30.7,24.9-65,43.5-102.5,55.8c-31.2,10.3-63.3,16.1-96.1,16.8c-24.1,0.5-48-1.3-71.7-6.1c-26.9-5.4-52.8-13.7-77.6-25.4
				c-31.4-14.8-59.9-33.9-84.9-57.9c-12-11.5-22.6-24.4-33.8-36.7c-1.5-1.6-3.2-3-4.9-4.5c-0.3,0.3-0.5,0.7-0.8,1
				c38.9,55,89.8,94.8,153.1,118.5c63.3,23.7,128.5,27.2,193.4,10.2C3015.1-257.3,3077-300,3122.5-365.1z M3068.8-342.3
				c-60.6,52.1-130.3,80.8-210.6,80.9c-80.5,0-150.7-28.1-211.2-81.2c14.3,17.1,31.6,30.6,50,42.6c57.3,37.4,120.6,52.6,188.3,46.5
				C2957.3-260,3018.8-289.9,3068.8-342.3z"/>
			<path d="M2883.7-1021.3c0.9-5,1.9-9.9,2.8-14.9c0.4,0.1,0.8,0.1,1.2,0.2c-0.6,5-1.3,10-1.9,15
				C2885.1-1021.1,2884.4-1021.2,2883.7-1021.3z"/>
			<path d="M2619.7-928.9c-0.5,0.4-0.9,0.9-1.4,1.3c-1.5-1.5-3-2.9-4.5-4.4C2617.1-932.6,2618.9-931.5,2619.7-928.9z"/>
			<path class="st1" d="M2818.4-867.5c-1.6-0.5-3.2-1-5.1-1.6c1.2-1.8,2.3-3.4,3.7-5.4c-3.8,0.3-6.9,0.7-10,0.8
				c-1.1,0-2.3-1-3.4-1.5c0.7-1,1.3-2.2,2.2-2.9c3.1-2.1,6.4-4,9.5-6c2.5-1.7,4.7-1.9,7.5-0.4c4.8,2.5,9.8,4.4,14.5,6.9
				c2,1,3.4,3,5.1,4.6c-0.2,0.4-0.4,0.8-0.6,1.2c-2.6-0.2-5.3-0.4-8.8-0.7c1.1,1.3,1.5,2.1,2.1,2.5c1.4,0.8,3.1,1.1,4.4,2
				c1.5,1,2.6,2.5,3.9,3.8c-1.5,1-2.9,2-4.5,2.9c-0.7,0.4-1.6,0.5-2.2,0.9c-3.9,2.7-7.8,5.8-14,3.1c1.2,2.1,1.7,3,2.7,4.6
				c-2.4,0.2-4.4,0.7-6.2,0.5c-5-0.7-9.6,0.1-14,2.5c-1.5,0.8-3.5,0.7-5.2,1c0.1-2.3-0.5-5,0.5-6.8c1.2-2.1,3.7-3.8,6-5.1
				c3.9-2.2,8.1-3.9,12.2-5.7C2818.4-866.8,2818.4-867.2,2818.4-867.5z"/>
			<path class="st1" d="M3114.2-790.2c1.7-2.1,2.9-3.4,4.4-5.2c-2.7,0-5,0-8.3,0c4.1-4.5,7.6-8.2,11-12c0.7-0.8,1.1-2.1,1-3.1
				c-0.5-5.3,2.5-8.6,7.6-7.5c-1,1.6-1.9,3.1-3,4.8c1.6-0.8,3-1.5,4.3-2.1C3135.5-808.7,3124.1-791,3114.2-790.2z"/>
			<path class="st1" d="M2964.3-824.5c-0.6,0.1-1.4,0.5-1.9,0.2c-4.4-2-8.9-4-13.1-6.3c-1.9-1.1-2.9-3-0.9-5.4c0.8-1,1.2-3,0.8-4.1
				c-1-2.5,0.2-3.9,1.8-5.1c1.1-0.8,2.5-1.2,3.7-1.7c0.3,1.1,0.6,2.3,1,3.4c0.4,0.9,1.1,1.8,1.6,2.7c2.5,5,4.9,10,7.3,15
				C2964.7-825.6,2964.4-825.1,2964.3-824.5z"/>
			<path class="st1" d="M2617.4-807.9c-0.9,0-1.8,0.2-2.6,0c-2.2-0.7-3.5-1-6.2,0.7c-3.4,2.2-8.5,4.5-13.4,0c2.4-3.9,4.9-8,7.5-12
				c0.4-0.6,1.9-1.2,2.3-0.9c4.5,3.6,8.8,7.4,13.2,11.2C2617.9-808.6,2617.7-808.2,2617.4-807.9z"/>
			<path class="st1" d="M2606.5-826.6c-2,0-3.6,0.5-4.1-0.1c-2.8-3.3-4.5-0.9-6.6,0.8c-1.4,1.1-3.2,1.8-4.8,2.7
				c-0.3-0.4-0.5-0.8-0.8-1.2c2.2-3.7,4.4-7.5,6.8-11.1c0.3-0.4,2.6-0.3,3.2,0.3C2602.2-832.7,2604-830.1,2606.5-826.6z"/>
			<path class="st1" d="M3122.5-365.1c-45.4,65.1-107.3,107.8-183.6,127.7c-64.9,17-130.1,13.5-193.4-10.2
				c-63.3-23.6-114.1-63.4-153.1-118.5c0.3-0.3,0.5-0.7,0.8-1c1.6,1.5,3.4,2.9,4.9,4.5c11.3,12.2,21.8,25.2,33.8,36.7
				c25,24,53.6,43.1,84.9,57.9c24.8,11.7,50.7,20,77.6,25.4c23.7,4.8,47.7,6.6,71.7,6.1c32.8-0.7,64.9-6.5,96.1-16.8
				c37.6-12.4,71.9-30.9,102.5-55.8c12-9.7,23.2-20.4,34.1-31.3c7.3-7.3,13.6-15.6,20.4-23.5c0.7-0.8,1.6-1.5,2.4-2.3
				C3121.9-365.8,3122.2-365.4,3122.5-365.1z"/>
			<path class="st1" d="M3068.8-342.3c-50,52.5-111.5,82.3-183.4,88.8c-67.7,6.1-130.9-9.1-188.3-46.5c-18.4-12-35.7-25.5-50-42.6
				c60.5,53,130.6,81.2,211.2,81.2C2938.5-261.5,3008.2-290.3,3068.8-342.3z"/>
		</g>
	</g>
	
		<image style="overflow:visible;" width="1147" height="1148" xlink:href="33A6B71EFF148D02.jpg"  transform="matrix(0.8074 0 0 0.8074 75.124 -1056.3889)">
	</image>
	
		<image style="overflow:visible;" width="1147" height="1148" xlink:href="33A6B71EFF148D03.jpg"  transform="matrix(0.8074 0 0 0.8074 1266.178 36.5338)">
	</image>
	<g>
		<path class="st1" d="M969.9,419.5c3.9-0.3,6.8-0.6,10.2-0.8c-1-1.5-1.7-2.6-2.6-4.1c7.7-1.2,14.7-2.2,22.5-3.4
			c-6.9-3.2-13-6.1-20.2-9.4c3.3-1.2,5.2-1.9,7.6-2.8c-4.6-2.6-8.5-4.9-12.6-7.2c1.1-1.3,1.9-2.3,2.5-3.1c-2.6-2.2-4.9-4.2-7.9-6.8
			c4.8-0.3,8.4-0.6,13-0.9c-1.9-1.7-2.8-2.6-3.8-3.6c0.9-0.7,1.5-1.3,2.4-2.1c-8.3-4.5-18.9-5.4-21.1-16.2
			c5.8-1.4,11.8-2.9,18.7-4.6c-5.7-2.9-10.5-5.4-16.5-8.5c2.8-1,4.2-1.5,5.5-2c-0.3-1.3-0.5-2.3-0.6-2.8c5.4-1.1,10.4-2.1,15.4-3.1
			c-6.7-6.4-16.5-5.8-21.6-13.4c2.2-1.3,4.1-2.4,6.8-3.9c-8.4-4.4-18.2-5.3-21.8-15c2.3-0.6,4.4-1.2,6.8-1.8c-1.2-1.9-2-3.1-3-4.6
			c2.6-0.8,4.9-1.5,7.1-2.1c-2.7-3.2-5-5.9-7.4-8.7c4.3-1,7.5-1.7,11.9-2.7c-4.4-3.1-7.4-5.3-10.6-7.6c2.9-1.2,5-2.2,7.1-3.1
			c-8.6-2.3-14.9-6-18.3-14.4h6.6c-0.9-1.7-1.6-3-2.3-4.3c1.1-0.8,2-1.5,3-2.2c-2.5-1.9-4.6-3.6-7.1-5.6c1.2-1,2.1-1.6,3.3-2.5
			c-7.2-6.6-4.7-16.1-7.4-23.6c-3,10.3-5.9,20.7-8.9,31c0.1,0,1.1,0.3,2.5,0.7c-1.8,2.1-3.1,3.6-4.8,5.6c2.1-0.2,3.7-0.4,6.8-0.7
			c-2.5,3.4-4.2,5.9-6,8.4c2.8,3.9-0.6,6.5-2.9,9c-2.4,2.6-5.5,4.7-9,7.6c3.3,0.7,5.7,1.2,9.5,1.9c-4,3-7.2,5.3-10.9,8.1
			c2.2,0.3,3.7,0.6,5.3,0.8c0.3,0.5,0.7,1.1,1,1.6c-2.5,2-5.1,4-7.6,6c0.1,0.4,0.3,0.7,0.4,1.1c4.5-0.6,9.1-1.1,14.6-1.8
			c-2.2,3.1-4,5.5-5.9,8.3c1.7,0.2,2.7,0.3,3.8,0.5c0.5,0.6,1.1,1.3,1.6,1.9c-3.7,3-7.3,6-11.1,8.8c-0.9,0.6-2.6,1.3-3.3,0.9
			c-5-2.9-9.8-6.1-14.6-9.2c0.2-0.4,0.5-0.8,0.7-1.2c1.5-0.1,3-0.2,3.5-0.2c-0.2-2.9-0.3-5.4-0.5-8.8c-0.6-0.9-1.9-2.6-3.6-5h9.8
			c-3.7-3.3-6.6-5.8-9.8-8.6c1.2-0.8,2.2-1.4,3.1-2c-0.7-1.6-1.3-2.9-2.1-4.6c1.9-0.2,3.6-0.5,5.7-0.7c-4.1-4.4-7.7-8.2-12-12.8
			c3-0.2,4.8-0.4,7.6-0.6c-1.7-2.3-5.7-4.7-0.1-5.8c-1-1.7-1.8-3.1-2.6-4.6c3.6-1.1,6.8-2.2,11.5-3.6c-8.2-4-16.1-5.8-20.4-13.1
			c2-0.6,3.8-1.2,5.7-1.7c-3.4-4.5-4.1-13.4-1.7-17c-2.2-2.6-5.3-4.9-6.2-7.8c-2.6-8.4-4.2-17.1-6.2-25.7c-1.1,0.8-1.4,1.4-1.4,2
			c-0.6,14.2-8.4,26.3-11.3,40c-1.4,6.6-7.7,12.1-11.8,18.2c0.6,0.1,2.1-0.2,2.5,0.3c1,1.2,1.7,2.8,2,4.3c0.1,0.4-2,1.9-2.1,1.8
			c-4.9-4.3-6.8,1.5-10.1,2.7c-2.4,0.9-5.2,0.9-9,1.5c3.2-5.1,5.3-8.6,7.5-12.1c-0.4-0.3-0.8-0.7-1.2-1c-4.5,1-7.9,7.9-14.1,1.9
			c1.3-5.8,2.8-12.7,4.5-20.2c-2.3,1.5-4,2.7-5.8,3.8c-0.4-0.3-0.8-0.5-1.2-0.8c3.6-9.7,7.1-19.3,11-29.8c-3,1-5.3,2.4-7.7,2.4
			c-2.2,0-4.3-1.6-5.5-2c0.5-3.4,0.9-5.6,1.2-7.8h-7c0-5.7,5.3-10.3,4.3-17.2c-0.7-5,3.4-10.5,5.1-15.9c0.4-1.3-0.1-3.5-1.1-4.6
			c-0.9-1-2.9-1.2-4.5-1.3c-2.4-0.2-4.8-0.1-7.4-0.1c1.5-5.2,2.7-9.3,3.9-13.5c-0.6-0.3-1.2-0.6-1.8-0.9c-2,2.4-4.1,4.7-6.8,7.9
			c-0.3-2.3-0.4-3.4-0.5-4.4c-0.8-5.2,5.6-11.5-2.5-15.5c-0.1,0-0.1-0.3-0.1-0.5c1.1-4.8,0.2-9.2-0.8-14.1c-1.4-6.5-0.1-13.6,0-20.5
			c0-1.8-0.4-3.6-0.6-5.9c-2.6,10.8-4.9,20.7-7.3,30.8c-1.6-0.1-3-0.2-4.5-0.3c-0.3,4,6,9.2-2.6,10.3c0.2,5.7,0.5,11.1,0.7,16.5
			c-2.2-0.1-2.6,1.8-1.2,4.6c1.3,2.6,0.9,4.2-2.2,5.1c-1.7,0.5-3.1,2-4.4,2.9c-2.2-0.8-4.2-1.5-6.2-2.3c-0.4,0.4-0.8,0.8-1.2,1.2
			c3.5,6.4,7,12.8,10.5,19.2c-3.3,1.2-5.8,2.2-8.3,3.1c0.1,0.3,0.2,0.7,0.2,1c-1.9-0.7-3.8-1.4-5.9-2.1c-0.2,6.8-0.9,7.1-6.3,3.9
			c-1.2-0.7-2.5-1.2-4.3-1.9c3.3,8.5,6.2,16,9.3,24h-8.8c2.4,3.7,4.2,6.5,6.2,9.5H765c-0.7,2.2-1.2,4-1.6,5.4
			c1.7,5.2,9.8,4.3,9.3,11.9c-0.3,4.6,6,8.9,1.2,14.2c-13.2-5.1-15.3-4.9-14.9-10.7c2.3,0.1,4.6,0.2,7,0.3c0.3-0.4,0.5-0.8,0.8-1.2
			c-3.4-3.2-7.1-6.1-10-9.7c-3.1-3.7-7.4-7.8-7.7-12c-0.3-3.7-1.6-6.8-2.2-10.3c0-0.3,0.3-0.6,0.5-1h3.8c-3-5.7-5.7-10.8-8.6-16.5
			c2.6-0.2,3.8-0.3,5.4-0.4c-4.1-8.5-8-16.6-12-24.7c2.5-1.2,4-1.9,5.7-2.7c-1.5-3-2.8-5.6-4.4-8.8c5.2-0.6,4-3.4,3.1-6.4
			c-2.1-6.5-4.3-13.1-5.7-19.8c-0.8-3.6-0.1-7.5-0.1-11.2c-0.2,0-0.5,0.1-0.7,0.1c-4.9,13.8-9.8,27.6-14.8,41.9
			c6.9,2.4-1.2,6.8,0.4,10.6c2,5-2.6,7.6-5.5,10.7c-2.9,3.2-6,6.3-9,9.4c0.2,0.4,0.4,0.8,0.6,1.1c2.4-0.5,4.9-0.9,8.4-1.6
			c-2.6,12.3-9.5,20-19.2,24.9c0,1.9-0.3,3.4,0.1,4.9c0.4,1.6,1.2,3,2.2,5.3c-4.2,2.9-8.8,6.1-13.8,9.5c6.9,2.2,12.5-0.3,18.1-3.4
			c1.1,10.1-3.4,14-24.1,20.7c0.9-5.8,3.9-12.3,1.8-15.6c-3.9-6.4,2.1-10.2,2.3-16.8c-7,6.1-12.8,11.1-18.6,16.1
			c-0.6-0.3-1.1-0.6-1.7-0.9c1.2-9.6,2.3-19.3,3.5-29.1h-4.5c1.3-4.7,2.5-8.9,3.8-13.4c-6.6-2.7,0.2-9.5-2.7-13.4
			c-1.8,4.2-4.6,8.2-4.9,12.4c-0.3,4.2-1.1,6.2-6.2,5.8c1.9,4.5,3.5,8.3,5.2,12.4c-2.6-0.4-4.2-0.6-5.7-0.8c0.5,2.2,1,4.5,1.4,6.7
			c-3.7,0.6-2.5,2.6-1.4,5.2c2,4.6,3.4,9.4,5,14.1c-0.6,0.4-1.2,0.7-1.9,1.1c-4.8-2.7-9.6-5.5-14.5-8c-1.4-0.7-3.2-0.4-4.8-0.6
			c0,1-0.3,2.5,0.2,2.8c5.3,3.5,1.4,12.2,8.3,14.7c0.3,0.1-0.1,1.6,0.2,2.4c0.5,1.8,0.9,3.8,1.9,5.4c1.1,1.7,3.2,2.9,4.2,4.7
			c0.7,1.3,0.5,3.1,0.7,4.7c-1.9,0.2-4.3,1.1-5.7,0.3c-3.7-2-6.9-4.8-10.4-7.3c1-1.6,2.1-3.4,3.7-6c-7.4-0.7-11.6,3.5-15.9,6.8
			c-4.3,3.2-8.2,6.9-12.3,10.4c-0.4-1.7-0.1-2.7,0.5-3.5c2.2-3.2,4.6-6.3,6.5-9.7c0.8-1.5,0.7-3.5,1-5.3c-1.7,0.2-3.7,0-5.2,0.7
			c-3.6,1.8-7,4.2-10.6,6c-1.5,0.8-3.4,0.9-5.2,1.3c0.2-1.9,0.3-3.8,0.4-5.7c0.1-1.1,0.2-2.3,0.3-3.4c-1.3-0.1-2.7-0.5-3.9-0.1
			c-2.7,0.9-5.4,2.2-8.5,3.5c4.7-9.7,9.1-18.6,13.9-28.4c-4.1-0.3-8-0.5-13.2-0.9c2.6-2.6,4.5-4.6,6.5-6.4c3.6-3.3,7.8-6.2,10.9-9.9
			c2.3-2.8,4.9-6.8,4.7-10.1c-0.3-4.3,1.5-6.5,4.2-8.7c3.8-3.1,7.6-6.2,11.3-9.6c0.8-0.7,0.8-2.4,1.1-3.6c-1.3-0.1-2.8-0.6-3.9-0.2
			c-3.3,1.3-6.4,3.1-9.6,4.4c-3.1,1.2-6.3,2.1-9.5,3.1c0.9-3.7,4.5-6.6-2.1-8.4c8.1-7.6,15.4-14.4,22.7-21.2
			c-0.3-0.5-0.6-0.9-0.9-1.4c-3.1,1.5-6.1,3.2-9.3,4.4c-1.6,0.6-3.5,0.2-5.2,0.3c0.7-1.5,1.1-3.1,2-4.3c1.8-2.3,4-4.4,6-6.5
			c-0.4-0.5-0.8-1.1-1.2-1.6c-1.8,0.7-3.8,1.1-5.4,2.1c-4.4,2.7-8.4,5.9-12.9,8.3c-4.7,2.4-9.8,4.2-14.8,5.9
			c-0.9,0.3-2.3-0.7-4.3-1.4c5.5-7.1,10.5-13.4,15.4-19.8c-0.3-0.4-0.5-0.9-0.8-1.3c-5.9,1.9-11.8,3.8-17.8,5.7
			c-0.4-0.6-0.9-1.3-1.3-1.9c5.7-7,11.3-14.1,17-21.1c-0.4-0.6-0.9-1.2-1.3-1.8c-4.1,2.1-8.2,4.1-12.7,6.4c0.3-2.1,0.6-3.7,1.1-6.9
			c-5.4,2.6-9.8,4.6-15.5,7.4c1.8-2.7,2.6-4.2,3.6-5.5c3.8-4.8,7.8-9.5,11.6-14.4c4-5.3,3.8-6-1.7-9c4.8-8,4.8-8-0.7-11.8
			c4.3-7,4.1-7.6-3.7-9.9c3-4,5.9-7.9,9.2-12.3c-6.2-2.2-9.4,2.3-13.2,4.4c-4,2.2-7.8,4.8-11.7,7.2c-0.4-0.4-0.9-0.9-1.3-1.3
			c1.6-3,3.4-5.9,4.9-8.9c1.1-2.3,1.8-4.7,2.7-7c-2.4-0.1-4.8-0.2-7.3-0.4c-0.3,0-0.6-0.3-1.5-0.7c1.4-4.4,4.4-8.6,2.7-13.9
			c-1.1-3.6-2.5-3.9-5.1-2.2c-1.5,0.9-2.7,2.3-4,3.5c-0.6-0.2-1.2-0.4-1.9-0.6c0.8-10.6,1.5-21.2,2.3-31.8
			c-6.9,8.8-5.4,19.5-7.4,29.2c-2.9-1-5.2-1.8-8.6-3c1,4.1,1.8,6.9,2.5,9.8c-0.4-0.1-0.7-0.3-1.1-0.4c-1.3,2.1-2.6,4.3-4.2,6.9
			c-1.8-0.3-4.5-0.7-7.1-1.1c1.8,4,3.3,7.4,5,11c-6.8,0.3-12.6,0.7-18.4,0.8c-1.1,0-2.3-0.9-3.4-1.3c-1.3-0.4-2.7-1-4.1-0.9
			c-1.2,0.1-3.1,0.7-3.5,1.6c-0.3,0.9,0.6,3.2,1.4,3.5c7,2.3,5,9.5,8.1,13.5c-1.7,1.2-3.1,2.1-4.4,3c1.3,1.2,2.5,2.7,4,3.6
			c4.4,2.8,8.9,5.5,14.1,8.6c-4.9,0.6-5.6,2.9-3.7,6.6c1.3,2.5,2,5.2,3,7.8c0.9,2.3,1.9,4.7,2.8,7c-0.4,0.3-0.7,0.6-1.1,0.9
			c-1.9-1.1-3.7-2.2-5.7-3.2c-1.3-0.6-2.7-0.9-4.1-1.3c0.2,1.6,0.1,3.4,0.8,4.7c2.1,3.8,4.6,7.3,6.9,10.9c-0.3,0.5-0.5,0.9-0.8,1.4
			c-8.4-2.4-16.8-4.9-25.2-7.3c-0.3,0.4-0.6,0.9-0.9,1.3c5.2,3.7,10.4,7.3,15.6,10.9c-0.1,0.2-0.2,0.5-0.3,0.7
			c-8.1-1.7-16.2-3.4-24.3-5.1c3.5,8.2,11.2,8.9,17.5,11.9c-0.1,0.5-0.1,1-0.2,1.5l-16,2c-0.2,0.5-0.4,1-0.6,1.5
			c6.5,5,13,10,20.7,15.9c-5-1-8.6-1.8-12.2-2.5c-0.2,0.5-0.4,1-0.7,1.5c3.1,1.9,6.2,3.9,8.9,5.6c-1.2,2.1-2.2,3.9-3.5,6.4
			c-7.9-3-16.2-6.2-25-9.6c-2.6,4.9,3.2,8.2,3,12.9c-11.7-1.3-20.5,3.6-27.7,12.6c-4.4,5.6-12.2,6.6-20.3,2.7
			c6.9-6.5,13.5-12.7,20-18.9c-0.3-0.4-0.6-0.9-0.9-1.3c-3.6,1.2-7.3,2.5-11.4,3.8c0.7-2.2,2-4,1.6-4.8c-2.7-4.4-0.3-7.3,2.4-10.3
			c2.8-3,5.6-5.8,8.3-8.9c0.9-1,2-2.8,1.6-3.5c-0.7-1.1-2.5-2.4-3.6-2.3c-3.1,0.3-6,1.3-9,2c0.1-0.3,0.2-0.6,0.4-0.9
			c-2.5-1-5-2.1-7.8-3.2c-0.9-6.8,7.4-7.6,10-13.4c-3.4-0.5-6.4-0.9-9.5-1.3c0.6-2.4,1.1-4.4,1.5-6.2c-9.2-2.8-3.3-11.7-8.2-17.8
			c-0.6,7.9-1,14.4-1.5,21.3c-4.4-1.1-8.2-2.1-12-3c-0.4,0.4-0.7,0.7-1.1,1.1c5.2,7,7.1,14.5,3.8,22.7H402c5.7,9.5,5,18.6,1.1,27.6
			c-1.3-0.1-3.3-0.3-5.8-0.5c2.2,6.9,4.1,13,6,19.1c-0.4,0.1-0.9,0.3-1.3,0.4c-6.9-4.2-13.9-8.3-20.8-12.5c-0.3,0.3-0.7,0.6-1,1
			c0.8,1.8,1.3,4,2.5,5.5c4,5.1,8.5,9.9,12.4,15c2.4,3.1,4.1,6.7,6,9.8c-4.8-0.3-8.9-1.7-12-0.5c-3.6,1.4-4.9,0.3-5.4-2.3
			c-1.3-6.8-6-7.7-11.5-7.2c-4.4,0.4-7.8-1-10.7-4.4c-1.2-1.4-3.1-2-5.1-3.2c0.7,3.3,2.1,6,1.4,7.9c-1.1,2.9,0.1,4.3,1.9,5.7
			c5.6,4.4,11.3,8.8,17.2,13.3c-2.6,3.6-1.2,5.2,3.3,6.3c6.3,1.5,10,6.3,12,12.9c-5.5-1.9-11.1-3.8-17.7-6.1
			c1.1,3.5,1.7,5.4,2.3,7.4h-30.1c2.6,8,9.1,10.2,14.8,13.3c4.2,2.3,7.8,5.1,8,10.3c0.2,3.7,2,5.5,5.3,6.9
			c7.2,3.1,9.9,9.8,12.7,16.2c-0.4,0.5-0.7,1-1,1.6c-5.5-2.4-11-4.7-16.7-7.2c-0.4,2.3-0.7,3.7-1,5.2c-9-2.5-17.8-5-26.5-7.4
			c-0.3,0.7-0.7,1.3-1,2c7.5,7,14.9,14.1,23,21.6c-10.4,3.9-17.4-2.2-25.6-4.2c0.9,2.5,2.1,4.4,3.7,5.7c5.7,4.3,11.8,8,17.3,12.5
			c3.6,2.9,6.4,6.8,9.7,10.5c-1,0.7-1.6,1.1-2.2,1.4c-6.2,2.7-11.6,1-16.9-2.6c-1.3-0.9-3.5-0.7-5.2-1c-0.2,1.9-1.1,4.1-0.5,5.5
			c1.7,3.8,3.5,7.6,8.4,8.8c2.3,0.6,4.2,2.6,6.2,4c-0.3,0.5-0.6,0.9-0.8,1.4c-4.8-1.6-9.6-3.3-14.4-4.9c-0.2,0.4-0.3,0.8-0.5,1.2
			c2.7,2.2,5.3,4.3,8,6.5c-8.2,1.8-15.4,1.8-22.2-3.4c2.6-1.2,4.6-2,6.3-2.8c-5.8-3.8-11.6-7.6-17.6-11.6c5.6-1.5,10.1-2.8,16-4.4
			c-4.9-3.6-8.4-6.2-12.1-8.9c1.7-1.2,2.8-1.9,4.1-2.9c-1.8-1.3-3.2-2.4-5.3-4c2.1-0.7,3.6-1.1,5.9-1.9c-2.5-1.4-4.1-2.3-5.7-3.1
			c0.4-0.3,0.7-0.6,1.1-0.9c-1.9-3.2-3.7-6.4-5.8-9.9c3.4-0.2,6.6-0.3,9.7-0.5c0.2-0.4,0.3-0.9,0.5-1.4c-1.6-1.3-3.7-2.4-4.6-4.1
			c-0.9-1.8-1.1-4.2-0.9-6.3c0.2-1.8,1.4-3.5,2.4-5.8c2.6-0.2,6.2-0.4,9.9-0.6c0-0.4,0-0.7,0-1.1c-6.5-2.3-13-4.6-20.4-7.2
			c2.4-1.5,3.8-2.3,5.6-3.4c-3.3-2.1-6.2-3.9-9.4-5.9c2.2-1,3.8-1.7,4.7-2.2c-3.2-4.5-6.2-8.8-9.7-13.7c3.3-0.3,5.5-0.6,7.6-0.8
			c-3.4-4.4-6.5-8.4-10.1-12.9c2.8-0.6,4-0.8,4.6-0.9c-2-6.4-4-12.5-6-19c2.8,0.7,4.6,1.1,6.4,1.5c-9.9-12.3-12.9-26.3-12.9-41.6
			c-2.7,7.9-5.1,14.9-7.3,21.9c-0.3,1,0.6,2.4,0.9,3.6c0.8,4.2,2.8,8.5,2.2,12.5c-0.7,4.4-3.7,8.4-5.8,12.8c3.9,5.8,4,8.7-0.4,13.6
			c-2.9,3.2-5.5,7.9-11.6,4.2c2.9-4.3,5.7-8.5,8.6-12.6c-0.6-0.6-1.1-1.2-1.7-1.8c-3.4,2-6.8,4.1-9.3,5.6c-2.9-0.6-5.1-1.1-7.9-1.7
			c1.8-8.2,3.7-16.6,5.7-25.6c-2.7,1.9-4.9,3.4-7.1,4.9c-0.4-0.2-0.9-0.5-1.3-0.7c4.2-11.6,8.5-23.2,12.9-35.3
			c-5.4-0.3-11.7,6.5-15.9-0.6c0.8-3.3,1.5-6,2.2-8.7c-2.8-0.1-5.7-0.3-9.5-0.5c1.7-3.7,3.8-7.5,5.3-11.5c0.7-2,0.5-4.3,0.7-6.5
			c-0.6-0.2-1.2-0.4-1.8-0.5c1.9-3.1,6.1-7,5.4-9.1c-1.8-5.2,1.9-8.2,2.6-12.2c0.3-1.5-0.3-3.8-1.4-4.8c-1.2-1.1-3.4-1.6-5.2-1.7
			c-3-0.3-6.1-0.1-9.2-0.1c1.8-6,3.3-11,4.8-16c-0.7-0.4-1.5-0.8-2.2-1.2c-2.5,3-5,6-7.4,9c-0.5-0.2-1.1-0.4-1.6-0.7
			c0.6-4.7,1.5-9.5,1.8-14.2c0.1-2-0.5-5.8-1.2-5.9c-4.7-0.6-3.4-3.5-3-6.3c0.5-3.5,2.5-7.2-1.3-10.3c-0.6-0.5-0.3-2.3-0.3-3.5
			c0-8.5,0.1-16.9,0.1-25.4c0-1.6-0.4-3.2-0.7-5.8c-3.1,13.3-6,25.2-8.8,37.4c-1.7-0.4-3.3-0.7-6.2-1.3c1.3,3.4,3.2,6.1,2.9,8.4
			c-0.2,2-3,3.7-4.1,4.9c-0.7,2.9-2.1,5.5-1.8,7.9c0.4,4.1,1.8,8.1,2.8,12.3c-0.4,0-1.8,0.2-3.8,0.3c0.7,2.3,1.6,4.1,1.8,5.9
			c0.1,1.3-0.4,3.1-1.3,3.8c-2.2,1.7-4.9,2.8-7.4,4.2c-2.2-0.9-4.7-1.9-7.1-3c-0.4,0.4-0.9,0.7-1.3,1.1c0.9,2.3,1.6,4.7,2.8,6.8
			c2.6,4.8,5.5,9.4,8.2,14.2c1.9,3.5,0.2,4.5-3.1,4.2c-1-0.1-2-0.4-3.1-0.7c-0.4,1.5-0.8,2.8-1.2,4.3c-2.8-0.9-5.3-1.8-7.5-2.5
			c-0.6,2.7-1,4.6-1.5,6.5c-2-0.7-4.1-1.3-6.1-2.1c-1.6-0.6-3.2-1.5-4.8-2.2c-1.6,6.3,8,8.4,4,15c2.5,1.6,6.3,3,2.9,7.3
			c-0.2,0.3,0.7,1.9,1.5,2.5c1.2,0.9,2.7,1.5,4.1,2.2c-0.5,0.6-1,1.2-1.4,1.7c-1-0.2-2-0.5-3-0.5c-2.1,0.2-4.2,0.6-6.3,0.9
			c0.9,2.2,1.7,4.4,2.8,6.4c0.8,1.5,2.2,2.6,4.2,4.7c-3.3-0.4-5.1-0.6-6.8-0.8c-0.7,2.6-1.3,4.9-2,7.6c3.1,2.5,6.7,5.3,10.1,8.3
			c0.9,0.8,1.3,2.2,1.6,3.4c0.6,2.3,0.9,4.6,1.4,6.9c0.5,2.1,1.7,4.1,1.7,6.2c0,1.8-1.3,3.6-2.3,6.1c-10.1-4.7-20.6-9.5-31.8-14.7
			c1.5,8.5,8.9,11.1,12.7,16.1c-3.7,1.8-7.1,3.4-11.2,5.3c5.5,5.7,11,11.4,17.2,17.8c-4.1-0.3-7.1-0.6-9.5-0.8
			c3.7,7.7,7.2,15,10.5,21.9c-8.6-2-16.4-3.9-24.3-5.8c0.2-1.3,0.5-2.7,0.9-4.6c-3.2,0.2-5.9,0.4-8.5,0.6c0.8-3.2,1.6-6.2,2.4-9.2
			c-0.5-0.3-1-0.6-1.6-0.8c-5.7,3.7-11.4,7.5-17,11.2c-0.5-0.5-1-1-1.4-1.5c3.5-4.5,6.9-9,10.6-13.8c-2.9-0.7-5.3-1.4-6.6-1.7
			c-1.8-10.1,5.1-13.8,11-18.2c2.5-1.9,4.9-4,7.1-6.3c1.2-1.2,1.9-2.9,3.5-5.5c-4.1,0.2-6.9-0.3-9.2,0.7c-4.8,2-8,0.5-11-3.7
			c1.9-2.5,3.9-5,6.1-7.9c-2.5-0.2-4.3-0.4-7.1-0.7c3.8-4.5,7-8.2,10.2-12c-0.3-0.6-0.6-1.1-0.8-1.7c-2.3,0.5-4.8,0.7-7,1.6
			c-3.8,1.5-7.3,3.6-11,5.1c-1.6,0.6-4.8,1.1-5.1,0.6c-1.1-2.1-1.3-4.7-1.8-7.1c-0.2-1.4,0.1-2.9-0.4-4.1c-2.6-5.6-6.7-10.7-5-17.6
			c0.3-1.2-0.6-2.8-1.2-4c-0.8-1.7-2.6-3.1-2.9-4.8c-0.7-4.9-0.9-9.9-1.3-14.9c-1.7,4.7-3,9.2-3.9,13.8c-1.7,8-9,14.6-5.3,23.6
			c-1.9,0.9-3.4,1.6-5.4,2.5c1.1,2.2,2,4,3,6c-1,0.8-2,1.6-2.9,2.3c2,3,3.7,5.6,6.2,9.3c-4.8,0.5-8.2,0.9-11.5,1.3
			c3.4,4.2,6.5,7.9,9.3,11.8c0.9,1.2,1.4,3.3,0.9,4.6c-0.3,0.8-2.8,1.2-4.2,1.1c-4.5-0.6-9-1.5-13.5-2.3c-2.9-0.5-5.9-1-8.8-1.5
			c-0.6,0.9-1.2,1.8-1.8,2.7c1.8,1,3.7,1.9,5.4,3.1c1.3,0.9,3.5,2.3,3.3,3.1c-0.9,4.8,3.2,6.2,5.3,8.9c1.4,1.8,3.1,3.4,4.7,5.3
			c-4.9,0.5-9,1-14.3,1.5c2.2,3.1,3.5,4.9,4.7,6.6c-0.2,0.4-0.2,0.7-0.4,0.7c-2.6,1.5-5.3,3-8,4.5c1.7,2.7,4,5.2,5,8.2
			c0.9,2.8,1.3,6.4,0.3,9.1c-0.4,1.2-4.6,1.5-7.1,1.6c-6.8,0.1-8.1-6.5-12.2-10c0.9-0.6,1.6-1.1,1.7-1.2
			c-3.8-9.7-7.4-18.9-10.6-27.1c-2.6,6-5.7,12.8-8.5,19.8c-0.4,1.1,0.3,2.6,0.5,4.1c-1.4,0.8-2.9,1.5-4.6,2.5
			c1.3,1.1,2.2,1.8,3.3,2.8c-2.6,2.2-5.1,4.3-7.8,6.6c1.8,0.9,3.1,1.5,5.2,2.4c-6,7.1-11.5,13.6-17.9,21.2c5-0.4,9.5-0.7,14.9-1.1
			c-2.8,2.1-5,3.8-7.6,5.8c1.9,0.5,3.2,0.8,5.7,1.5c-3.6,2.4-6.2,4.2-9.8,6.6h11.7c-5.3,9.4-14.2,13.9-21.8,19.6
			c0.1,0.4,0.3,0.9,0.4,1.3c3.3,0.2,6.6,0.4,10,0.5c0.4,0.4,0.7,0.7,1.1,1.1c-3,2.4-6,4.8-9.9,8h9c-6.1,6.1-11.4,11.5-17.5,17.5h7.7
			c-1.5,2.4-2.8,4.4-4.1,6.4c0.2,0.5,0.4,0.9,0.6,1.4c4.8-1.2,9.7-2.3,15.7-3.8c-6.7,8.2-12.8,15.6-18.9,23.1c0.3,0.3,0.6,0.7,0.9,1
			c4.5-1.8,8.9-3.6,13-5.3c0.2,1.9,0.5,3.7,0.8,6c-1.1,1-2.7,2.5-4.5,4c1.6,0.7,2.8,1.2,4.1,1.7c-1.4,2.1-2.6,3.7-4.2,6.1h9.8
			c-4.8,5.1-8.6,9.1-12.4,13.3c0.8,0.3,1.8,0.7,3.2,1.3c-7,6-13.5,11.6-20.1,17.3c0.2,0.4,0.4,0.9,0.6,1.4
			c5.1-0.7,10.2-1.4,15.3-2.2c0.5,0.5,1,1,1.5,1.5c-4.1,3.2-8.2,6.3-13.3,10.3c3.8,0.4,5.7,0.5,7.6,0.7c0,0,0.1,0,0.1,0
			c0,0.6-0.1,1.2-0.1,1.8v0.4h974.1C978.3,429.3,974.7,424.5,969.9,419.5z M154.1,281.5c-0.4-0.4-0.7-0.9-1.1-1.3
			c1.7-2.4,3.5-4.7,5.1-7.2c1.5-2.5,2.8-5.2,4.8-8.8c3.5,4.3,6.5,8,10,12.4c-1.6,0.3-3.6,1-3.7,0.6c-4.4-7.6-7-0.8-10.2,1.1
			C157.4,279.4,155.8,280.5,154.1,281.5z M187.8,301.8c-3.3-1.1-6.6-2.2-10.2-3.4c-0.3,1.9-0.6,3.2-0.9,5.1c-2-0.4-3.8-0.7-5.8-1.1
			c-2.8,6.5-6.8,1.2-11.1,1.1c3.7-6.2,7.2-11.8,10.9-18c6.2,5.3,12,10.2,17.7,15.2C188.2,301,188,301.4,187.8,301.8z M466.9,237.6
			c-1,0.5-2.6-0.3-4-0.4c-2.1-0.1-4.3-0.2-6.4-0.3c-0.1,0.4-0.3,0.9-0.4,1.3c1,1.2,2.1,2.3,4.4,4.9c-12.2-1.8-22.7-0.6-32.2,6
			c-1.8-8.1-0.7-11.1,5.5-14.4c4.8-2.6,9.9-4.6,14.8-6.9c1.8-0.9,3.7-1.8,5.5-2.6c0-0.5,0-1.1,0-1.6c-2.5-0.8-4.9-1.5-7.6-2.4
			c-0.1-0.1-0.2-0.4-0.1-0.5c1.4-2.1,2.8-4.2,4.2-6.3c-2.4,0.1-4.8,0.3-7.2,0.3c-3.6,0-7.1-0.2-10.6-0.2c-0.1-0.7-0.2-1.4-0.4-2
			c6.3-3.9,12.6-7.9,19-11.7c0.7-0.4,1.8-0.5,2.5-0.1c8.2,3.9,16.5,7.8,24.6,12c1.5,0.8,2.6,2.6,3.8,4c-0.2,0.4-0.4,0.7-0.6,1.1
			c-3.6-0.5-7.3-1.1-11.9-1.8c2.3,7.8,11.9,5.6,13.7,12C478,231.2,472.6,234.6,466.9,237.6z M641.9,280.4c-5.9-5.6-15.7-4-20.6-12.2
			c3-3.2,4.4-6.3,2.5-10.9c-0.6-1.3,3.4-4.5,5.1-6.6c2.8,4.9,5.4,9.1,7.6,13.5c2.4,4.8,4.3,9.9,6.4,14.8
			C642.6,279.5,642.3,280,641.9,280.4z M840.9,324.8c2.4-2.8,4.1-4.9,6.8-8.1c-4.6,0.6-7.7,0.9-12.1,1.4c6.2-6.8,11.5-12.6,16-17.6
			c0.3-3.5-0.1-6.7,1.1-9.2c0.7-1.6,3.7-2.2,5.7-3.3c0.3,0.6,0.7,1.1,1,1.7c-1.9,2.2-3.9,4.3-5.8,6.5c0.2,0.3,0.4,0.6,0.5,0.9
			c2.6-1.4,5.1-2.8,7.7-4.2C866.1,301.4,854.3,320.2,840.9,324.8z"/>
	</g>
	<g>
		<path d="M1816.6-913.5c5.1,1.4,2.3,3.6,1.6,6.4c2.4-0.8,4.9-1.5,7.2-2.4c2.5-1,4.8-2.4,7.3-3.3c0.8-0.3,1.9,0.1,2.9,0.1
			c-0.3,0.9-0.2,2.2-0.9,2.8c-2.8,2.5-5.7,4.9-8.6,7.3c-2.1,1.7-3.4,3.3-3.2,6.7c0.2,2.5-1.8,5.6-3.6,7.7c-2.4,2.9-5.5,5-8.3,7.6
			c-1.5,1.4-2.9,2.9-5,4.9c4,0.3,6.9,0.5,10,0.7c-3.6,7.4-7,14.3-10.6,21.7c2.4-1,4.4-2,6.5-2.7c0.9-0.3,2,0,3,0.1
			c-0.1,0.9-0.2,1.7-0.2,2.6c-0.1,1.4-0.2,2.9-0.3,4.3c1.3-0.3,2.8-0.4,4-1c2.7-1.4,5.3-3.2,8.1-4.6c1.1-0.6,2.6-0.4,3.9-0.6
			c-0.2,1.4-0.1,2.9-0.8,4c-1.5,2.6-3.3,4.9-4.9,7.4c-0.4,0.6-0.7,1.3-0.4,2.6c3.1-2.6,6.1-5.4,9.4-7.9c3.3-2.5,6.5-5.7,12.1-5.2
			c-1.2,2-2.1,3.3-2.9,4.6c2.6,1.9,5.1,4,7.9,5.6c1.1,0.6,2.9-0.1,4.3-0.3c-0.2-1.2,0-2.6-0.5-3.6c-0.8-1.3-2.3-2.2-3.2-3.6
			c-0.8-1.2-1.1-2.7-1.5-4.1c-0.2-0.6,0.1-1.8-0.1-1.8c-5.3-1.9-2.3-8.6-6.3-11.2c-0.4-0.2-0.1-1.4-0.1-2.1c1.2,0.1,2.6-0.1,3.7,0.4
			c3.8,1.9,7.4,4.1,11.1,6.1c0.5-0.3,0.9-0.5,1.4-0.8c-1.2-3.6-2.3-7.3-3.8-10.8c-0.8-2-1.7-3.5,1.1-4c-0.4-1.7-0.7-3.4-1.1-5.1
			c1.2,0.2,2.4,0.3,4.4,0.6c-1.3-3.1-2.5-6.1-4-9.5c3.9,0.4,4.5-1.2,4.8-4.4c0.2-3.2,2.4-6.3,3.7-9.5c2.2,3-3,8.2,2.1,10.2
			c-1,3.4-1.9,6.7-2.9,10.2c2,0,2.8,0,3.5,0c-0.9,7.5-1.8,14.9-2.6,22.2c0.4,0.2,0.9,0.5,1.3,0.7c4.4-3.8,8.8-7.6,14.2-12.3
			c-0.1,5.1-4.7,7.9-1.7,12.8c1.6,2.6-0.8,7.5-1.4,11.9c15.8-5.1,19.2-8,18.4-15.8c-4.2,2.4-8.5,4.3-13.8,2.6
			c3.8-2.6,7.3-5,10.6-7.3c-0.8-1.7-1.4-2.9-1.7-4c-0.2-1.1-0.1-2.3-0.1-3.7c7.4-3.7,12.7-9.6,14.7-19c-2.7,0.5-4.6,0.9-6.4,1.3
			c-0.2-0.3-0.3-0.6-0.5-0.9c2.3-2.4,4.6-4.7,6.9-7.2c2.1-2.3,5.7-4.4,4.2-8.2c-1.2-2.9,5-6.3-0.3-8.1c3.8-10.8,7.6-21.4,11.3-31.9
			c0.2,0,0.4,0,0.6-0.1c0,2.9-0.5,5.8,0.1,8.6c1.1,5.1,2.8,10.1,4.4,15.1c0.7,2.3,1.6,4.4-2.3,4.9c1.2,2.4,2.2,4.4,3.4,6.7
			c-1.3,0.6-2.4,1.2-4.3,2.1c3,6.2,6,12.4,9.1,18.8c-1.2,0.1-2.2,0.2-4.1,0.3c2.3,4.3,4.3,8.3,6.6,12.6c-1.3,0-2.1,0-2.9,0
			c-0.2,0.3-0.4,0.6-0.4,0.8c0.5,2.6,1.5,5,1.7,7.8c0.3,3.2,3.5,6.3,5.9,9.2c2.3,2.7,5.1,4.9,7.6,7.4c-0.2,0.3-0.4,0.6-0.6,0.9
			c-1.8-0.1-3.5-0.2-5.3-0.3c-0.3,4.4,1.3,4.2,11.3,8.1c3.7-4-1.1-7.3-0.9-10.8c0.4-5.8-5.8-5.1-7.1-9.1c0.3-1,0.7-2.4,1.2-4.1
			c1,0,2.2,0,3.6,0c-1.5-2.4-2.9-4.4-4.7-7.3c3,0,4.8,0,6.7,0c-2.3-6.1-4.6-11.8-7.1-18.3c1.4,0.6,2.4,0.9,3.3,1.5
			c4.1,2.5,4.6,2.2,4.8-3c1.6,0.6,3,1.1,4.5,1.6c-0.1-0.3-0.1-0.5-0.2-0.8c1.9-0.7,3.8-1.4,6.3-2.4c-2.7-4.9-5.3-9.8-8-14.6
			c0.3-0.3,0.6-0.6,0.9-0.9c1.5,0.6,3.1,1.1,4.8,1.7c1-0.7,2.1-1.8,3.3-2.2c2.3-0.7,2.7-1.9,1.7-3.9c-1.1-2.2-0.8-3.6,0.9-3.5
			c-0.2-4.1-0.4-8.3-0.6-12.6c6.5-0.9,1.8-4.9,2-7.9c1.2,0.1,2.2,0.1,3.4,0.2c1.8-7.7,3.6-15.3,5.6-23.5c0.2,1.8,0.5,3.1,0.5,4.5
			c0,5.2-1,10.6,0,15.6c0.8,3.7,1.4,7.1,0.6,10.7c0,0.1,0,0.3,0.1,0.4c6.1,3,1.3,7.9,1.9,11.8c0.1,0.8,0.2,1.5,0.4,3.3
			c2.1-2.4,3.7-4.2,5.2-6c0.5,0.2,0.9,0.4,1.4,0.7c-0.9,3.2-1.8,6.3-3,10.3c2,0,3.8-0.1,5.6,0c1.2,0.1,2.7,0.2,3.4,1
			c0.7,0.8,1.1,2.4,0.8,3.5c-1.2,4.1-4.4,8.3-3.9,12.1c0.7,5.3-3.3,8.7-3.3,13.1c1.9,0,3.6,0,5.4,0c-0.3,1.7-0.5,3.4-0.9,6
			c0.9,0.4,2.6,1.6,4.2,1.6c1.8,0,3.6-1.1,5.9-1.9c-2.9,8-5.7,15.4-8.4,22.7c0.3,0.2,0.6,0.4,0.9,0.6c1.3-0.9,2.7-1.8,4.4-2.9
			c-1.3,5.7-2.4,10.9-3.4,15.4c4.7,4.6,7.3-0.7,10.8-1.5c0.3,0.3,0.6,0.5,0.9,0.8c-1.6,2.7-3.3,5.3-5.7,9.2c2.9-0.5,5-0.5,6.8-1.2
			c2.5-0.9,4-5.4,7.7-2.1c0.1,0.1,1.7-1,1.6-1.4c-0.3-1.2-0.8-2.4-1.6-3.3c-0.4-0.4-1.5-0.2-1.9-0.2c3.1-4.6,8-8.8,9-13.9
			c2.2-10.4,8.2-19.7,8.6-30.5c0-0.5,0.3-1,1.1-1.5c1.5,6.6,2.8,13.2,4.8,19.6c0.7,2.2,3.1,3.9,4.8,6c-1.8,2.7-1.3,9.6,1.3,13
			c-1.5,0.4-2.8,0.9-4.4,1.3c3.3,5.5,9.3,7,15.6,10c-3.5,1.1-6,1.9-8.8,2.8c0.7,1.2,1.2,2.2,2,3.5c-4.3,0.8-1.2,2.7,0.1,4.5
			c-2.1,0.2-3.5,0.3-5.8,0.5c3.3,3.5,6,6.4,9.2,9.7c-1.7,0.2-2.9,0.4-4.4,0.6c0.6,1.2,1,2.3,1.6,3.5c-0.7,0.5-1.5,0.9-2.4,1.5
			c2.4,2.1,4.6,4.1,7.4,6.6c-2.8,0-4.7,0-7.5,0c1.3,1.8,2.2,3.1,2.7,3.8c0.2,2.6,0.3,4.5,0.4,6.7c-0.4,0-1.6,0.1-2.7,0.2
			c-0.2,0.3-0.4,0.6-0.5,0.9c3.7,2.4,7.4,4.8,11.1,7c0.5,0.3,1.8-0.2,2.5-0.7c2.9-2.2,5.7-4.5,8.5-6.7c-0.4-0.5-0.8-1-1.2-1.5
			c-0.8-0.1-1.7-0.2-2.9-0.4c1.5-2.1,2.8-3.9,4.5-6.3c-4.2,0.5-7.7,0.9-11.1,1.3c-0.1-0.3-0.2-0.6-0.3-0.9c1.9-1.5,3.9-3,5.8-4.6
			c-0.3-0.4-0.5-0.8-0.8-1.2c-1.2-0.2-2.3-0.4-4-0.6c2.8-2.1,5.2-3.9,8.3-6.2c-2.9-0.6-4.8-1-7.3-1.5c2.7-2.2,5-3.8,6.9-5.8
			c1.7-1.9,4.3-3.8,2.2-6.8c1.4-1.9,2.7-3.8,4.6-6.4c-2.4,0.2-3.6,0.4-5.2,0.5c1.3-1.5,2.3-2.7,3.7-4.3c-1.2-0.3-2-0.6-1.9-0.5
			c2.3-7.9,4.5-15.8,6.8-23.6c2.1,5.7,0.2,13,5.7,18c-0.9,0.7-1.6,1.2-2.5,1.9c1.9,1.5,3.6,2.8,5.4,4.3c-0.7,0.5-1.4,1-2.3,1.6
			c0.5,1,1.1,2,1.7,3.3c-1.7,0-3.2,0-5.1,0c2.6,6.4,7.4,9.2,13.9,11c-1.6,0.7-3.2,1.4-5.4,2.3c2.5,1.8,4.8,3.4,8.1,5.8
			c-3.3,0.7-5.8,1.3-9.1,2c1.8,2.2,3.6,4.3,5.6,6.7c-1.7,0.5-3.4,1-5.4,1.6c0.7,1.1,1.3,2.1,2.3,3.5c-1.9,0.5-3.4,0.9-5.2,1.4
			c2.8,7.4,10.2,8,16.7,11.4c-2.1,1.2-3.5,2-5.2,3c3.9,5.8,11.4,5.4,16.5,10.2c-3.8,0.8-7.6,1.5-11.7,2.4c0.1,0.4,0.3,1.2,0.5,2.2
			c-1.1,0.4-2.1,0.8-4.2,1.5c4.6,2.4,8.3,4.3,12.6,6.5c-5.2,1.3-9.8,2.4-14.2,3.5c1.6,8.2,9.8,8.9,16.1,12.4c-0.7,0.6-1.2,1-1.9,1.6
			c0.8,0.7,1.5,1.4,2.9,2.7c-3.5,0.2-6.3,0.4-9.9,0.7c2.3,2,4,3.5,6,5.2c-0.5,0.6-1.1,1.4-1.9,2.3c3.1,1.8,6.1,3.5,9.6,5.5
			c-1.9,0.7-3.2,1.2-5.8,2.1c5.5,2.6,10.2,4.7,15.4,7.2c-6,0.9-11.3,1.7-17.2,2.6c0.8,1.2,1.3,2,2,3.2c-2.6,0.2-4.8,0.4-7.8,0.6
			c3.7,3.8,6.4,7.5,12.2,7.5c21-0.2,42-0.1,63-0.1c1.5,0,2.9,0,4.7,0c0,8.9,0,17.5,0,26.4c-295.2,0-590.3,0-885.6,0
			c0-8.6,0-17.2,0-26.5c24.9,0,49.9,0,74.9,0c0-0.5,0-0.9,0.1-1.4c-1.5-0.1-2.9-0.3-5.9-0.6c3.9-3,7-5.4,10.2-7.8
			c-0.4-0.4-0.8-0.8-1.2-1.1c-3.9,0.6-7.8,1.1-11.7,1.7c-0.2-0.3-0.3-0.7-0.5-1c5-4.3,10-8.6,15.3-13.2c-1.1-0.4-1.8-0.7-2.4-1
			c2.9-3.1,5.8-6.2,9.5-10.1c-3.1,0-5,0-7.4,0c1.2-1.8,2.1-3.1,3.2-4.6c-1.1-0.4-2-0.8-3.2-1.3c1.3-1.2,2.6-2.3,3.4-3.1
			c-0.2-1.7-0.4-3.1-0.6-4.6c-3.1,1.3-6.5,2.6-9.9,4c-0.2-0.2-0.4-0.5-0.7-0.7c4.6-5.7,9.3-11.3,14.4-17.6c-4.6,1.1-8.3,2-12,2.9
			c-0.2-0.4-0.3-0.7-0.5-1.1c1-1.5,1.9-3,3.1-4.9c-1.9,0-3.4,0-5.9,0c4.6-4.6,8.6-8.6,13.3-13.3c-2.7,0-4.2,0-6.9,0
			c3-2.4,5.2-4.2,7.5-6.1c-0.3-0.3-0.6-0.6-0.8-0.9c-2.5-0.1-5.1-0.3-7.6-0.4c-0.1-0.3-0.2-0.7-0.3-1c5.8-4.4,12.6-7.8,16.6-15
			c-3.1,0-5.6,0-8.9,0c2.7-1.9,4.8-3.2,7.5-5.1c-1.9-0.5-2.9-0.8-4.3-1.1c2-1.5,3.7-2.8,5.8-4.4c-4.1,0.3-7.5,0.6-11.3,0.9
			c4.9-5.8,9.1-10.8,13.6-16.2c-1.6-0.7-2.5-1.2-3.9-1.9c2.1-1.7,3.9-3.3,5.9-5c-0.8-0.7-1.5-1.3-2.5-2.1c1.3-0.7,2.4-1.3,3.5-1.9
			c-0.2-1.1-0.7-2.3-0.4-3.1c2.2-5.3,4.5-10.5,6.5-15.1c2.4,6.2,5.2,13.3,8.1,20.7c0.2-0.1-0.4,0.3-1.3,0.9c3.1,2.7,4.1,7.7,9.3,7.6
			c1.9,0,5.1-0.3,5.4-1.2c0.7-2,0.5-4.8-0.2-6.9c-0.7-2.3-2.5-4.2-3.8-6.2c2-1.1,4.1-2.3,6.1-3.4c0.1-0.1,0.1-0.2,0.3-0.6
			c-0.9-1.3-1.9-2.6-3.6-5c4-0.4,7.1-0.8,10.9-1.2c-1.2-1.4-2.5-2.6-3.6-4c-1.6-2.1-4.8-3.2-4.1-6.8c0.1-0.6-1.5-1.7-2.5-2.4
			c-1.3-0.9-2.7-1.6-4.1-2.4c0.4-0.7,0.9-1.4,1.3-2c2.2,0.4,4.5,0.8,6.7,1.2c3.4,0.6,6.8,1.3,10.3,1.8c1.1,0.1,3-0.2,3.2-0.8
			c0.3-1-0.1-2.6-0.7-3.5c-2.1-3-4.5-5.7-7.1-9c2.5-0.3,5.1-0.6,8.8-1c-1.8-2.8-3.2-4.8-4.7-7.1c0.7-0.5,1.4-1.1,2.2-1.7
			c-0.8-1.5-1.4-2.9-2.3-4.5c1.5-0.7,2.7-1.2,4.1-1.9c-2.8-6.9,2.8-11.9,4-18c0.7-3.5,1.7-7,3-10.5c0.3,3.8,0.4,7.6,1,11.4
			c0.2,1.3,1.6,2.4,2.2,3.6c0.5,1,1.1,2.2,0.9,3.1c-1.3,5.3,1.8,9.1,3.8,13.4c0.4,0.9,0.1,2.1,0.3,3.1c0.3,1.8,0.5,3.8,1.4,5.4
			c0.2,0.4,2.6,0.1,3.9-0.4c2.9-1.2,5.5-2.7,8.4-3.9c1.7-0.7,3.5-0.8,5.3-1.2c0.2,0.4,0.4,0.8,0.6,1.3c-2.4,2.9-4.9,5.8-7.8,9.2
			c2.1,0.2,3.5,0.3,5.4,0.5c-1.7,2.2-3.2,4.1-4.6,6c2.3,3.1,4.7,4.3,8.4,2.8c1.7-0.7,3.9-0.3,7-0.5c-1.3,2-1.8,3.3-2.7,4.2
			c-1.7,1.7-3.5,3.4-5.4,4.8c-4.5,3.3-9.8,6.2-8.4,13.9c1,0.3,2.8,0.7,5,1.3c-2.8,3.6-5.4,7.1-8.1,10.5c0.4,0.4,0.7,0.8,1.1,1.1
			c4.3-2.9,8.7-5.7,13-8.6c0.4,0.2,0.8,0.4,1.2,0.6c-0.6,2.3-1.2,4.5-1.8,7c2-0.1,4-0.3,6.5-0.4c-0.3,1.5-0.5,2.5-0.6,3.5
			c6,1.4,11.9,2.8,18.5,4.4c-2.5-5.3-5.2-10.9-8-16.7c1.9,0.2,4.1,0.3,7.3,0.6c-4.7-4.9-8.9-9.2-13.1-13.6c3.1-1.5,5.7-2.7,8.5-4
			c-2.9-3.8-8.6-5.8-9.7-12.3c8.5,3.9,16.5,7.6,24.2,11.2c0.8-1.9,1.7-3.3,1.8-4.7c0-1.6-0.9-3.1-1.3-4.7c-0.4-1.7-0.6-3.5-1.1-5.3
			c-0.2-0.9-0.6-2-1.2-2.6c-2.6-2.3-5.4-4.4-7.7-6.3c0.5-2.1,1-3.8,1.5-5.8c1.3,0.2,2.7,0.3,5.2,0.6c-1.5-1.6-2.5-2.5-3.2-3.6
			c-0.9-1.5-1.4-3.3-2.1-4.9c1.6-0.3,3.2-0.6,4.8-0.7c0.7-0.1,1.5,0.2,2.3,0.3c0.4-0.4,0.7-0.9,1.1-1.3c-1.1-0.5-2.2-1-3.2-1.7
			c-0.6-0.4-1.3-1.7-1.1-1.9c2.6-3.3-0.3-4.3-2.2-5.5c3.1-5-4.2-6.7-3-11.4c1.3,0.6,2.4,1.2,3.7,1.7c1.5,0.6,3.1,1,4.6,1.6
			c0.3-1.5,0.7-2.9,1.1-4.9c1.7,0.6,3.6,1.2,5.7,1.9c0.3-1.2,0.6-2.1,0.9-3.3c0.9,0.2,1.6,0.5,2.4,0.6c2.5,0.3,3.8-0.5,2.3-3.2
			c-2-3.6-4.2-7.1-6.2-10.8c-0.9-1.6-1.4-3.5-2.1-5.2c0.3-0.3,0.6-0.5,1-0.8c1.9,0.8,3.8,1.6,5.4,2.3c2-1.1,4-1.9,5.7-3.2
			c0.7-0.5,1.1-2,1-2.9c-0.1-1.4-0.8-2.7-1.3-4.5c1.5-0.1,2.6-0.2,2.9-0.2c-0.8-3.2-1.8-6.2-2.1-9.4c-0.2-1.8,0.8-3.8,1.4-6
			c0.8-0.9,2.9-2.2,3.1-3.7c0.2-1.8-1.2-3.8-2.2-6.4c2.2,0.5,3.4,0.7,4.7,1c2.2-9.3,4.3-18.4,6.7-28.5c0.3,2.1,0.5,3.3,0.5,4.5
			c0,6.5-0.1,12.9-0.1,19.4c0,0.9-0.2,2.3,0.3,2.7c2.9,2.4,1.4,5.2,1,7.9c-0.3,2.1-1.3,4.3,2.3,4.8c0.5,0.1,1,3,0.9,4.5
			c-0.3,3.6-0.9,7.2-1.4,10.9c0.4,0.2,0.8,0.3,1.2,0.5c1.9-2.3,3.8-4.6,5.7-6.9c0.6,0.3,1.1,0.6,1.7,0.9c-1.2,3.8-2.3,7.7-3.7,12.2
			c2.3,0,4.7-0.1,7,0.1c1.4,0.1,3.1,0.4,4,1.3c0.8,0.8,1.3,2.5,1.1,3.7c-0.6,3.1-3.4,5.3-2,9.3c0.6,1.7-2.6,4.6-4.1,7
			c0.5,0.1,0.9,0.3,1.4,0.4c-0.2,1.7,0,3.4-0.5,4.9c-1.1,3-2.7,5.9-4,8.8c2.9,0.1,5.1,0.3,7.2,0.4c-0.5,2.1-1,4.1-1.7,6.6
			c3.2,5.4,8,0.2,12.1,0.4c-3.4,9.2-6.6,18.1-9.8,26.9c0.3,0.2,0.7,0.4,1,0.6c1.7-1.2,3.3-2.3,5.4-3.8c-1.5,6.9-2.9,13.2-4.3,19.5
			c2.1,0.5,3.8,0.8,6,1.3c1.9-1.2,4.5-2.7,7.1-4.3c0.4,0.4,0.8,0.9,1.3,1.3c-2.1,3.2-4.3,6.3-6.5,9.6c4.6,2.8,6.6-0.8,8.8-3.2
			c3.4-3.7,3.3-5.9,0.3-10.4c1.6-3.4,3.9-6.4,4.5-9.8c0.5-3-1-6.4-1.6-9.5c-0.2-0.9-0.9-2-0.7-2.7c1.7-5.4,3.5-10.6,5.6-16.7
			c0,11.6,2.3,22.3,9.9,31.7c-1.4-0.3-2.8-0.7-4.9-1.2c1.6,5,3.1,9.6,4.6,14.5c-0.4,0.1-1.4,0.3-3.5,0.7c2.7,3.5,5.1,6.5,7.7,9.9
			c-1.6,0.2-3.3,0.3-5.8,0.6c2.6,3.7,4.9,7,7.4,10.4c-0.7,0.3-2,0.9-3.6,1.6c2.4,1.5,4.6,2.9,7.2,4.5c-1.4,0.8-2.4,1.4-4.2,2.6
			c5.7,2,10.6,3.8,15.5,5.5c0,0.3,0,0.5,0,0.8c-2.8,0.2-5.6,0.3-7.5,0.5c-0.8,1.7-1.7,3-1.9,4.4c-0.2,1.6-0.1,3.5,0.6,4.8
			c0.7,1.3,2.3,2.1,3.5,3.1c-0.1,0.3-0.2,0.7-0.4,1c-2.4,0.1-4.8,0.2-7.4,0.4c1.6,2.7,3,5.1,4.5,7.6c-0.3,0.2-0.6,0.4-0.8,0.6
			c1.2,0.7,2.5,1.3,4.4,2.4c-1.8,0.6-2.9,0.9-4.5,1.4c1.5,1.2,2.7,2,4,3c-1.1,0.7-1.9,1.3-3.2,2.2c2.9,2.1,5.5,4,9.2,6.8
			c-4.5,1.2-8,2.2-12.2,3.4c4.6,3,9,5.9,13.5,8.8c-1.3,0.6-2.8,1.2-4.8,2.1c5.2,3.9,10.6,3.9,16.9,2.6c-2-1.7-4.1-3.3-6.1-5
			c0.1-0.3,0.2-0.6,0.4-0.9c3.7,1.2,7.3,2.5,11,3.7c0.2-0.3,0.4-0.7,0.6-1c-1.6-1-3-2.6-4.7-3c-3.7-0.9-5.1-3.8-6.4-6.7
			c-0.5-1.1,0.2-2.8,0.3-4.2c1.3,0.2,3,0,4,0.7c4,2.7,8.2,4.1,12.9,2c0.5-0.2,0.9-0.5,1.7-1c-2.5-2.8-4.7-5.8-7.4-8
			c-4.2-3.4-8.8-6.3-13.2-9.5c-1.3-0.9-2.2-2.4-2.8-4.3c6.2,1.5,11.6,6.2,19.5,3.2c-6.1-5.8-11.8-11.1-17.5-16.5
			c0.3-0.5,0.5-1,0.8-1.5c6.7,1.9,13.3,3.7,20.2,5.7c0.2-1.1,0.4-2.2,0.8-4c4.3,1.9,8.5,3.7,12.7,5.5c0.3-0.4,0.5-0.8,0.8-1.2
			c-2.2-4.9-4.2-10-9.7-12.4c-2.5-1.1-3.9-2.4-4.1-5.3c-0.2-4-2.9-6.1-6.1-7.9c-4.3-2.4-9.2-4-11.3-10.1c7.7,0,15.2,0,22.9,0
			c-0.5-1.5-0.9-3-1.7-5.6c5.1,1.7,9.3,3.2,13.5,4.6c-1.6-5.1-4.4-8.7-9.2-9.9c-3.4-0.8-4.5-2-2.5-4.8c-4.5-3.5-8.8-6.8-13.1-10.2
			c-1.4-1.1-2.3-2.1-1.5-4.4c0.5-1.4-0.6-3.5-1.1-6c1.5,0.9,3,1.4,3.9,2.4c2.2,2.6,4.8,3.6,8.1,3.4c4.2-0.4,7.8,0.3,8.8,5.5
			c0.4,2,1.4,2.8,4.1,1.8c2.4-0.9,5.5,0.1,9.1,0.4c-1.4-2.4-2.8-5.1-4.6-7.5c-3-3.9-6.4-7.6-9.5-11.5c-0.9-1.2-1.3-2.8-1.9-4.2
			c0.3-0.2,0.5-0.5,0.8-0.7c5.3,3.2,10.6,6.4,15.9,9.5c0.3-0.1,0.7-0.2,1-0.3c-1.5-4.7-2.9-9.3-4.6-14.6c1.9,0.2,3.5,0.3,4.4,0.4
			c3-6.9,3.6-13.8-0.8-21c2.2,0,3.5,0,4.3,0c2.5-6.3,1.1-12-2.9-17.3c0.3-0.3,0.6-0.5,0.8-0.8c2.9,0.7,5.8,1.5,9.1,2.3
			c0.4-5.2,0.7-10.2,1.2-16.2c3.7,4.7-0.8,11.5,6.2,13.6c-0.4,1.4-0.7,2.9-1.2,4.7c2.4,0.3,4.6,0.6,7.2,1c-2,4.5-8.3,5.1-7.6,10.2
			c2.1,0.9,4.1,1.7,6,2.4c-0.1,0.2-0.2,0.5-0.3,0.7c2.3-0.5,4.6-1.3,6.9-1.5c0.9-0.1,2.3,0.9,2.8,1.7c0.3,0.5-0.6,1.9-1.2,2.6
			c-2,2.3-4.2,4.5-6.3,6.7c-2.1,2.2-3.9,4.5-1.9,7.8c0.4,0.6-0.6,2-1.2,3.7c3.1-1.1,5.9-2,8.7-2.9c0.2,0.3,0.5,0.7,0.7,1
			c-5,4.7-10,9.4-15.3,14.4c6.2,2.9,12.1,2.2,15.5-2.1c5.5-6.9,12.2-10.6,21.1-9.6c0.2-3.6-4.3-6.1-2.3-9.8c6.7,2.6,13.1,5,19.1,7.3
			c1-1.9,1.8-3.3,2.7-4.9c-2.1-1.3-4.4-2.8-6.8-4.2c0.2-0.4,0.3-0.8,0.5-1.1c2.8,0.6,5.5,1.1,9.3,1.9c-5.8-4.5-10.8-8.3-15.8-12.1
			c0.1-0.4,0.3-0.8,0.4-1.1c4.1-0.5,8.1-1,12.2-1.5c0-0.4,0.1-0.8,0.1-1.2c-4.8-2.3-10.7-2.8-13.3-9c6.2,1.3,12.4,2.6,18.5,3.9
			c0.1-0.2,0.2-0.4,0.2-0.6c-4-2.8-7.9-5.6-11.9-8.4c0.2-0.3,0.5-0.6,0.7-1c6.4,1.9,12.8,3.7,19.2,5.6c0.2-0.4,0.4-0.7,0.6-1.1
			c-1.8-2.8-3.7-5.5-5.3-8.3c-0.6-1-0.4-2.4-0.6-3.6c1.1,0.3,2.2,0.5,3.1,1c1.5,0.7,2.9,1.6,4.4,2.4c0.3-0.2,0.6-0.5,0.8-0.7
			c-0.7-1.8-1.4-3.6-2.1-5.3c-0.8-2-1.4-4-2.3-5.9c-1.4-2.8-0.9-4.5,2.8-5c-3.9-2.4-7.4-4.4-10.7-6.6c-1.1-0.7-2-1.8-3-2.8
			c1-0.7,2.1-1.4,3.4-2.3c-2.4-3-0.8-8.5-6.1-10.3c-0.6-0.2-1.3-2-1.1-2.7c0.2-0.7,1.7-1.1,2.6-1.2c1-0.1,2.1,0.4,3.1,0.7
			c0.9,0.3,1.8,1,2.6,1c4.4-0.1,8.8-0.3,14-0.6c-1.3-2.8-2.4-5.3-3.8-8.4c2,0.3,4,0.6,5.4,0.8c1.2-2,2.2-3.6,3.2-5.3
			c0.3,0.1,0.5,0.2,0.8,0.3c-0.5-2.2-1.1-4.3-1.9-7.5c2.6,0.9,4.3,1.5,6.5,2.3c1.5-7.4,0.4-15.5,5.7-22.3
			c-0.6,8.1-1.2,16.2-1.8,24.3c0.5,0.2,0.9,0.3,1.4,0.5c1-0.9,1.9-2,3.1-2.7c2-1.2,3.1-1,3.9,1.7c1.3,4.1-1,7.2-2,10.6
			c0.7,0.3,0.9,0.5,1.1,0.5c1.8,0.1,3.7,0.2,5.5,0.3c-0.7,1.8-1.2,3.6-2,5.4c-1.1,2.3-2.5,4.5-3.7,6.8c0.3,0.3,0.7,0.7,1,1
			c3-1.8,5.9-3.8,8.9-5.5c2.9-1.6,5.3-5,10.1-3.4c-2.5,3.4-4.7,6.3-7,9.4c5.9,1.7,6.1,2.3,2.8,7.6c4.2,2.9,4.2,2.9,0.5,9
			c4.2,2.3,4.4,2.9,1.3,6.9c-2.9,3.7-5.9,7.3-8.8,11c-0.8,1-1.4,2.1-2.8,4.2c4.4-2.1,7.7-3.7,11.8-5.6c-0.4,2.4-0.6,3.6-0.9,5.2
			c3.4-1.7,6.6-3.3,9.7-4.9c0.3,0.4,0.7,0.9,1,1.3c-4.3,5.4-8.7,10.7-13,16.1c0.3,0.5,0.7,1,1,1.4c4.5-1.4,9-2.9,13.5-4.3
			c0.2,0.3,0.4,0.6,0.6,1c-3.8,4.8-7.5,9.7-11.7,15.1c1.5,0.5,2.6,1.3,3.3,1c3.8-1.3,7.7-2.7,11.3-4.5c3.4-1.8,6.5-4.3,9.8-6.3
			c1.2-0.8,2.7-1.1,4.1-1.6c0.3,0.4,0.6,0.8,0.9,1.2c-1.5,1.7-3.2,3.2-4.6,5c-0.7,0.9-1.1,2.2-1.6,3.3c1.3-0.1,2.8,0.2,4-0.2
			c2.4-0.9,4.7-2.2,7.1-3.3c0.2,0.3,0.5,0.7,0.7,1C1828.4-924.5,1822.8-919.3,1816.6-913.5z M1728.1-872.2c0.1-0.3,0.3-0.6,0.4-0.8
			c-1-1-1.7-2.4-2.9-3c-6.2-3.2-12.5-6.1-18.8-9.1c-0.5-0.2-1.4-0.2-1.9,0.1c-4.9,2.9-9.7,5.9-14.5,8.9c0.1,0.5,0.2,1,0.3,1.5
			c2.7,0.1,5.4,0.2,8.1,0.2c1.8,0,3.7-0.2,5.5-0.3c-1.1,1.6-2.2,3.2-3.2,4.8c-0.1,0.1,0.1,0.5,0.1,0.4c2,0.6,3.9,1.2,5.8,1.8
			c0,0.4,0,0.8,0,1.2c-1.4,0.7-2.8,1.4-4.2,2c-3.8,1.8-7.7,3.3-11.3,5.3c-4.7,2.5-5.5,4.8-4.2,11c7.2-5,15.3-6,24.6-4.6
			c-1.7-2-2.5-2.8-3.3-3.7c0.1-0.3,0.2-0.7,0.3-1c1.6,0.1,3.3,0.1,4.9,0.2c1,0.1,2.3,0.7,3,0.3c4.3-2.3,8.5-4.9,12.7-7.4
			c-1.3-4.9-8.7-3.3-10.4-9.2C1722.5-873,1725.3-872.6,1728.1-872.2z M2016.2-817.2c-0.3-0.4-0.5-0.8-0.8-1.3
			c-1.5,0.8-3.7,1.3-4.3,2.5c-0.9,1.9-0.6,4.3-0.8,7c-3.4,3.8-7.5,8.2-12.2,13.4c3.4-0.4,5.7-0.7,9.2-1.1c-2,2.4-3.4,4-5.2,6.2
			c10.2-3.5,19.2-17.8,16-24.4c-2,1.1-3.9,2.2-5.9,3.2c-0.1-0.2-0.3-0.4-0.4-0.7C2013.2-814,2014.7-815.6,2016.2-817.2z
			 M1850.2-824.3c0.3-0.3,0.5-0.7,0.8-1c-1.6-3.8-3.1-7.6-4.9-11.3c-1.6-3.4-3.7-6.6-5.8-10.3c-1.3,1.6-4.3,4.1-3.9,5.1
			c1.5,3.5,0.4,5.9-1.9,8.3C1838.3-827.4,1845.7-828.5,1850.2-824.3z M1496.1-810.6c2.8,0.9,5.3,1.8,7.8,2.6
			c0.2-0.3,0.3-0.6,0.5-0.9c-4.4-3.8-8.8-7.5-13.5-11.6c-2.9,4.7-5.4,9-8.3,13.7c3.3,0.1,6.3,4.1,8.5-0.8c1.6,0.3,3,0.6,4.5,0.9
			C1495.7-808.1,1495.8-809.1,1496.1-810.6z M1477.4-824.4c0.3,0.3,0.6,0.7,0.8,1c1.2-0.8,2.5-1.6,3.7-2.4c2.4-1.5,4.5-6.7,7.8-0.9
			c0.1,0.3,1.6-0.3,2.9-0.5c-2.7-3.4-5-6.2-7.7-9.5c-1.5,2.8-2.5,4.8-3.7,6.7C1480.1-828,1478.7-826.3,1477.4-824.4z"/>
		<path class="st1" d="M1728.1-872.2c-2.8-0.4-5.5-0.8-9.1-1.3c1.8,5.9,9.1,4.3,10.4,9.2c-4.2,2.5-8.4,5.1-12.7,7.4
			c-0.7,0.4-2-0.2-3-0.3c-1.6-0.1-3.3-0.2-4.9-0.2c-0.1,0.3-0.2,0.7-0.3,1c0.8,0.9,1.6,1.8,3.3,3.7c-9.3-1.4-17.3-0.4-24.6,4.6
			c-1.3-6.2-0.5-8.5,4.2-11c3.6-2,7.5-3.5,11.3-5.3c1.4-0.7,2.8-1.3,4.2-2c0-0.4,0-0.8,0-1.2c-1.9-0.6-3.8-1.2-5.8-1.8
			c0,0.1-0.2-0.3-0.1-0.4c1-1.6,2.1-3.2,3.2-4.8c-1.8,0.1-3.7,0.3-5.5,0.3c-2.7,0-5.4-0.1-8.1-0.2c-0.1-0.5-0.2-1-0.3-1.5
			c4.8-3,9.6-6,14.5-8.9c0.5-0.3,1.4-0.4,1.9-0.1c6.3,3,12.6,6,18.8,9.1c1.2,0.6,1.9,2,2.9,3
			C1728.4-872.7,1728.2-872.5,1728.1-872.2z"/>
		<path class="st1" d="M2016.2-817.2c-1.5,1.6-3,3.3-4.4,4.9c0.1,0.2,0.3,0.4,0.4,0.7c2-1.1,3.9-2.1,5.9-3.2
			c3.2,6.6-5.8,20.9-16,24.4c1.8-2.2,3.2-3.7,5.2-6.2c-3.5,0.4-5.9,0.7-9.2,1.1c4.7-5.2,8.8-9.6,12.2-13.4c0.2-2.7,0-5.1,0.8-7
			c0.6-1.2,2.8-1.7,4.3-2.5C2015.6-818.1,2015.9-817.7,2016.2-817.2z"/>
		<path class="st1" d="M1850.2-824.3c-4.5-4.3-11.9-3.1-15.7-9.3c2.3-2.4,3.4-4.8,1.9-8.3c-0.4-1,2.6-3.4,3.9-5.1
			c2.1,3.8,4.1,7,5.8,10.3c1.8,3.7,3.3,7.5,4.9,11.3C1850.8-825,1850.5-824.6,1850.2-824.3z"/>
		<path class="st1" d="M1496.1-810.6c-0.3,1.4-0.4,2.4-0.7,3.9c-1.5-0.3-2.9-0.6-4.5-0.9c-2.2,4.9-5.2,1-8.5,0.8
			c2.9-4.7,5.5-9,8.3-13.7c4.8,4.1,9.1,7.8,13.5,11.6c-0.2,0.3-0.3,0.6-0.5,0.9C1501.4-808.8,1498.9-809.6,1496.1-810.6z"/>
		<path class="st1" d="M1477.4-824.4c1.3-1.8,2.7-3.6,3.9-5.5c1.2-1.9,2.2-3.9,3.7-6.7c2.7,3.3,4.9,6.1,7.7,9.5
			c-1.2,0.2-2.7,0.7-2.9,0.5c-3.3-5.8-5.4-0.6-7.8,0.9c-1.2,0.8-2.5,1.6-3.7,2.4C1477.9-823.8,1477.6-824.1,1477.4-824.4z"/>
	</g>
</g>
<g id="Layer_3">
	<rect x="1285" y="382" class="st4" width="887.1" height="26.3"/>
	<g>
		<g>
			<path class="st1" d="M1808.4,179.2c5.1,1.4,2.3,3.6,1.6,6.4c2.4-0.8,4.9-1.5,7.2-2.4c2.5-1,4.8-2.4,7.3-3.3
				c0.8-0.3,1.9,0.1,2.9,0.1c-0.3,0.9-0.2,2.2-0.9,2.8c-2.8,2.5-5.7,4.9-8.6,7.3c-2.1,1.7-3.4,3.3-3.2,6.7c0.2,2.5-1.8,5.6-3.6,7.7
				c-2.4,2.9-5.5,5-8.3,7.6c-1.5,1.4-2.9,2.9-5,4.9c4,0.3,6.9,0.5,10,0.7c-3.6,7.4-7,14.3-10.6,21.7c2.4-1,4.4-2,6.5-2.7
				c0.9-0.3,2,0,3,0.1c-0.1,0.9-0.2,1.7-0.2,2.6c-0.1,1.4-0.2,2.9-0.3,4.3c1.3-0.3,2.8-0.4,4-1c2.7-1.4,5.3-3.2,8.1-4.6
				c1.1-0.6,2.6-0.4,3.9-0.6c-0.2,1.4-0.1,2.9-0.8,4c-1.5,2.6-3.3,4.9-4.9,7.4c-0.4,0.6-0.7,1.3-0.4,2.6c3.1-2.6,6.1-5.4,9.4-7.9
				c3.3-2.5,6.5-5.7,12.1-5.2c-1.2,2-2.1,3.3-2.9,4.6c2.6,1.9,5.1,4,7.9,5.6c1.1,0.6,2.9-0.1,4.3-0.3c-0.2-1.2,0-2.6-0.5-3.6
				c-0.8-1.3-2.3-2.2-3.2-3.6c-0.8-1.2-1.1-2.7-1.5-4.1c-0.2-0.6,0.1-1.8-0.1-1.8c-5.3-1.9-2.3-8.6-6.3-11.2
				c-0.4-0.2-0.1-1.4-0.1-2.1c1.2,0.1,2.6-0.1,3.7,0.4c3.8,1.9,7.4,4.1,11.1,6.1c0.5-0.3,0.9-0.5,1.4-0.8c-1.2-3.6-2.3-7.3-3.8-10.8
				c-0.8-2-1.7-3.5,1.1-4c-0.4-1.7-0.7-3.4-1.1-5.1c1.2,0.2,2.4,0.3,4.4,0.6c-1.3-3.1-2.5-6.1-4-9.5c3.9,0.4,4.5-1.2,4.8-4.4
				c0.2-3.2,2.4-6.3,3.7-9.5c2.2,3-3,8.2,2.1,10.2c-1,3.4-1.9,6.7-2.9,10.2c2,0,2.8,0,3.5,0c-0.9,7.5-1.8,14.9-2.6,22.2
				c0.4,0.2,0.9,0.5,1.3,0.7c4.4-3.8,8.8-7.6,14.2-12.3c-0.1,5.1-4.7,7.9-1.7,12.8c1.6,2.6-0.8,7.5-1.4,11.9
				c15.8-5.1,19.2-8,18.4-15.8c-4.2,2.4-8.5,4.3-13.8,2.6c3.8-2.6,7.3-5,10.6-7.3c-0.8-1.7-1.4-2.9-1.7-4c-0.2-1.1-0.1-2.3-0.1-3.7
				c7.4-3.7,12.7-9.6,14.7-19c-2.7,0.5-4.6,0.9-6.4,1.3c-0.2-0.3-0.3-0.6-0.5-0.9c2.3-2.4,4.6-4.7,6.9-7.2c2.1-2.3,5.7-4.4,4.2-8.2
				c-1.2-2.9,5-6.3-0.3-8.1c3.8-10.8,7.6-21.4,11.3-31.9c0.2,0,0.4,0,0.6-0.1c0,2.9-0.5,5.8,0.1,8.6c1.1,5.1,2.8,10.1,4.4,15.1
				c0.7,2.3,1.6,4.4-2.3,4.9c1.2,2.4,2.2,4.4,3.4,6.7c-1.3,0.6-2.4,1.2-4.3,2.1c3,6.2,6,12.4,9.1,18.8c-1.2,0.1-2.2,0.2-4.1,0.3
				c2.3,4.3,4.3,8.3,6.6,12.6c-1.3,0-2.1,0-2.9,0c-0.2,0.3-0.4,0.6-0.4,0.8c0.5,2.6,1.5,5,1.7,7.8c0.3,3.2,3.5,6.3,5.9,9.2
				c2.3,2.7,5.1,4.9,7.6,7.4c-0.2,0.3-0.4,0.6-0.6,0.9c-1.8-0.1-3.5-0.2-5.3-0.3c-0.3,4.4,1.3,4.2,11.3,8.1c3.7-4-1.1-7.3-0.9-10.8
				c0.4-5.8-5.8-5.1-7.1-9.1c0.3-1,0.7-2.4,1.2-4.1c1,0,2.2,0,3.6,0c-1.5-2.4-2.9-4.4-4.7-7.3c3,0,4.8,0,6.7,0
				c-2.3-6.1-4.6-11.8-7.1-18.3c1.4,0.6,2.4,0.9,3.3,1.5c4.1,2.5,4.6,2.2,4.8-3c1.6,0.6,3,1.1,4.5,1.6c-0.1-0.3-0.1-0.5-0.2-0.8
				c1.9-0.7,3.8-1.4,6.3-2.4c-2.7-4.9-5.3-9.8-8-14.6c0.3-0.3,0.6-0.6,0.9-0.9c1.5,0.6,3.1,1.1,4.8,1.7c1-0.7,2.1-1.8,3.3-2.2
				c2.3-0.7,2.7-1.9,1.7-3.9c-1.1-2.2-0.8-3.6,0.9-3.5c-0.2-4.1-0.4-8.3-0.6-12.6c6.5-0.9,1.8-4.9,2-7.9c1.2,0.1,2.2,0.1,3.4,0.2
				c1.8-7.7,3.6-15.3,5.6-23.5c0.2,1.8,0.5,3.1,0.5,4.5c0,5.2-1,10.6,0,15.6c0.8,3.7,1.4,7.1,0.6,10.7c0,0.1,0,0.3,0.1,0.4
				c6.1,3,1.3,7.9,1.9,11.8c0.1,0.8,0.2,1.5,0.4,3.3c2.1-2.4,3.7-4.2,5.2-6c0.5,0.2,0.9,0.4,1.4,0.7c-0.9,3.2-1.8,6.3-3,10.3
				c2,0,3.8-0.1,5.6,0c1.2,0.1,2.7,0.2,3.4,1c0.7,0.8,1.1,2.4,0.8,3.5c-1.2,4.1-4.4,8.3-3.9,12.1c0.7,5.3-3.3,8.7-3.3,13.1
				c1.9,0,3.6,0,5.4,0c-0.3,1.7-0.5,3.4-0.9,6c0.9,0.4,2.6,1.6,4.2,1.6c1.8,0,3.6-1.1,5.9-1.9c-2.9,8-5.7,15.4-8.4,22.7
				c0.3,0.2,0.6,0.4,0.9,0.6c1.3-0.9,2.7-1.8,4.4-2.9c-1.3,5.7-2.4,10.9-3.4,15.4c4.7,4.6,7.3-0.7,10.8-1.5c0.3,0.3,0.6,0.5,0.9,0.8
				c-1.6,2.7-3.3,5.3-5.7,9.2c2.9-0.5,5-0.5,6.8-1.2c2.5-0.9,4-5.4,7.7-2.1c0.1,0.1,1.7-1,1.6-1.4c-0.3-1.2-0.8-2.4-1.6-3.3
				c-0.4-0.4-1.5-0.2-1.9-0.2c3.1-4.6,8-8.8,9-13.9c2.2-10.4,8.2-19.7,8.6-30.5c0-0.5,0.3-1,1.1-1.5c1.5,6.6,2.8,13.2,4.8,19.6
				c0.7,2.2,3.1,3.9,4.8,6c-1.8,2.7-1.3,9.6,1.3,13c-1.5,0.4-2.8,0.9-4.4,1.3c3.3,5.5,9.3,7,15.6,10c-3.5,1.1-6,1.9-8.8,2.8
				c0.7,1.2,1.2,2.2,2,3.5c-4.3,0.8-1.2,2.7,0.1,4.5c-2.1,0.2-3.5,0.3-5.8,0.5c3.3,3.5,6,6.4,9.2,9.7c-1.7,0.2-2.9,0.4-4.4,0.6
				c0.6,1.2,1,2.3,1.6,3.5c-0.7,0.5-1.5,0.9-2.4,1.5c2.4,2.1,4.6,4.1,7.4,6.6c-2.8,0-4.7,0-7.5,0c1.3,1.8,2.2,3.1,2.7,3.8
				c0.2,2.6,0.3,4.5,0.4,6.7c-0.4,0-1.6,0.1-2.7,0.2c-0.2,0.3-0.4,0.6-0.5,0.9c3.7,2.4,7.4,4.8,11.1,7c0.5,0.3,1.8-0.2,2.5-0.7
				c2.9-2.2,5.7-4.5,8.5-6.7c-0.4-0.5-0.8-1-1.2-1.5c-0.8-0.1-1.7-0.2-2.9-0.4c1.5-2.1,2.8-3.9,4.5-6.3c-4.2,0.5-7.7,0.9-11.1,1.3
				c-0.1-0.3-0.2-0.6-0.3-0.9c1.9-1.5,3.9-3,5.8-4.6c-0.3-0.4-0.5-0.8-0.8-1.2c-1.2-0.2-2.3-0.4-4-0.6c2.8-2.1,5.2-3.9,8.3-6.2
				c-2.9-0.6-4.8-1-7.3-1.5c2.7-2.2,5-3.8,6.9-5.8c1.7-1.9,4.3-3.8,2.2-6.8c1.4-1.9,2.7-3.8,4.6-6.4c-2.4,0.2-3.6,0.4-5.2,0.5
				c1.3-1.5,2.3-2.7,3.7-4.3c-1.2-0.3-2-0.6-1.9-0.5c2.3-7.9,4.5-15.8,6.8-23.6c2.1,5.7,0.2,13,5.7,18c-0.9,0.7-1.6,1.2-2.5,1.9
				c1.9,1.5,3.6,2.8,5.4,4.3c-0.7,0.5-1.4,1-2.3,1.6c0.5,1,1.1,2,1.7,3.3c-1.7,0-3.2,0-5.1,0c2.6,6.4,7.4,9.2,13.9,11
				c-1.6,0.7-3.2,1.4-5.4,2.3c2.5,1.8,4.8,3.4,8.1,5.8c-3.3,0.7-5.8,1.3-9.1,2c1.8,2.2,3.6,4.3,5.6,6.7c-1.7,0.5-3.4,1-5.4,1.6
				c0.7,1.1,1.3,2.1,2.3,3.5c-1.9,0.5-3.4,0.9-5.2,1.4c2.8,7.4,10.2,8,16.7,11.4c-2.1,1.2-3.5,2-5.2,3c3.9,5.8,11.4,5.4,16.5,10.2
				c-3.8,0.8-7.6,1.5-11.7,2.4c0.1,0.4,0.3,1.2,0.5,2.2c-1.1,0.4-2.1,0.8-4.2,1.5c4.6,2.4,8.3,4.3,12.6,6.5
				c-5.2,1.3-9.8,2.4-14.2,3.5c1.6,8.2,9.8,8.9,16.1,12.4c-0.7,0.6-1.2,1-1.9,1.6c0.8,0.7,1.5,1.4,2.9,2.7c-3.5,0.2-6.3,0.4-9.9,0.7
				c2.3,2,4,3.5,6,5.2c-0.5,0.6-1.1,1.4-1.9,2.3c3.1,1.8,6.1,3.5,9.6,5.5c-1.9,0.7-3.2,1.2-5.8,2.1c5.5,2.6,10.2,4.7,15.4,7.2
				c-6,0.9-11.3,1.7-17.2,2.6c0.8,1.2,1.3,2,2,3.2c-2.6,0.2-4.8,0.4-7.8,0.6c3.7,3.8,6.4,7.5,12.2,7.5c21-0.2,42-0.1,63-0.1
				c1.5,0,2.9,0,4.7,0c0,8.9,0,17.5,0,26.4c-295.2,0-590.3,0-885.6,0c0-8.6,0-17.2,0-26.5c24.9,0,49.9,0,74.9,0c0-0.5,0-0.9,0.1-1.4
				c-1.5-0.1-2.9-0.3-5.9-0.6c3.9-3,7-5.4,10.2-7.8c-0.4-0.4-0.8-0.8-1.2-1.1c-3.9,0.6-7.8,1.1-11.7,1.7c-0.2-0.3-0.3-0.7-0.5-1
				c5-4.3,10-8.6,15.3-13.2c-1.1-0.4-1.8-0.7-2.4-1c2.9-3.1,5.8-6.2,9.5-10.1c-3.1,0-5,0-7.4,0c1.2-1.8,2.1-3.1,3.2-4.6
				c-1.1-0.4-2-0.8-3.2-1.3c1.3-1.2,2.6-2.3,3.4-3.1c-0.2-1.7-0.4-3.1-0.6-4.6c-3.1,1.3-6.5,2.6-9.9,4c-0.2-0.2-0.4-0.5-0.7-0.7
				c4.6-5.7,9.3-11.3,14.4-17.6c-4.6,1.1-8.3,2-12,2.9c-0.2-0.4-0.3-0.7-0.5-1.1c1-1.5,1.9-3,3.1-4.9c-1.9,0-3.4,0-5.9,0
				c4.6-4.6,8.6-8.6,13.3-13.3c-2.7,0-4.2,0-6.9,0c3-2.4,5.2-4.2,7.5-6.1c-0.3-0.3-0.6-0.6-0.8-0.9c-2.5-0.1-5.1-0.3-7.6-0.4
				c-0.1-0.3-0.2-0.7-0.3-1c5.8-4.4,12.6-7.8,16.6-15c-3.1,0-5.6,0-8.9,0c2.7-1.9,4.8-3.2,7.5-5.1c-1.9-0.5-2.9-0.8-4.3-1.1
				c2-1.5,3.7-2.8,5.8-4.4c-4.1,0.3-6.7,1.6-11.8,0.1c8-7.1,9.6-10.1,14.1-15.5c-1.6-0.7-2.5-1.2-3.9-1.9c2.1-1.7,3.9-3.3,5.9-5
				c-0.8-0.7-2.8-1.4-3.8-2.3c1.3-0.7,4.8-1.2,5.9-1.8c-0.2-1.1-3.4-0.9-2.9-1.6c4.5-6.5,5.4-9,8.1-19c4.7,22.2,6.8,16.2,9.7,23.6
				c0.2-0.1-2.1-0.2-3,0.5c3.1,2.7,4.1,7.7,9.3,7.6c1.9,0,5.1-0.3,5.4-1.2c0.7-2,0.5-4.8-0.2-6.9c-0.7-2.3-3.7-4.2-5-6.2
				c2-1.1,5.3-2.3,7.3-3.4c0.1-0.1,0.1-0.2,0.3-0.6c-0.9-1.3-1.9-2.6-3.6-5c4-0.4,7.1-0.8,10.9-1.2c-1.2-1.4-2.5-2.6-3.6-4
				c-1.6-2.1-4.8-3.2-4.1-6.8c0.1-0.6-1.3-2.4-2.5-2.4c-1.2,0-0.5-0.1-2-2.1c-0.3-1.1-1.2-1.6-0.8-2.3c2.2,0.4,4.5,0.8,6.7,1.2
				c3.4,0.6,6.8,1.3,10.3,1.8c1.1,0.1,3-0.2,3.2-0.8c0.3-1-0.1-2.6-0.7-3.5c-2.1-3-5.3-5.4-7.9-8.7c2.5-0.3,5.9-0.9,9.6-1.3
				c-1.8-2.8-3.2-4.8-4.7-7.1c0.7-0.5,1.4-1.1,2.2-1.7c-0.8-1.5-1.4-2.9-2.3-4.5c1.5-0.7,2.7-1.2,4.1-1.9c-2.8-6.9,2.8-11.9,4-18
				c0.7-3.5,1.7-7,3-10.5c0.3,3.8,0.4,7.6,1,11.4c0.2,1.3,1.6,2.4,2.2,3.6c0.5,1,1.1,2.2,0.9,3.1c-1.3,5.3,1.8,9.1,3.8,13.4
				c0.4,0.9,0.1,2.1,0.3,3.1c0.3,1.8,0.5,3.8,1.4,5.4c0.2,0.4,2.6,0.1,3.9-0.4c2.9-1.2,5.5-2.7,8.4-3.9c1.7-0.7,3.5-0.8,5.3-1.2
				c0.2,0.4,0.4,0.8,0.6,1.3c-2.4,2.9-4.9,5.8-7.8,9.2c2.1,0.2,3.5,0.3,5.4,0.5c-1.7,2.2-3.2,4.1-4.6,6c2.3,3.1,4.7,4.3,8.4,2.8
				c1.7-0.7,3.9-0.3,7-0.5c-1.3,2-1.8,3.3-2.7,4.2c-1.7,1.7-3.5,3.4-5.4,4.8c-4.5,3.3-9.8,6.2-8.4,13.9c1,0.3,2.8,0.7,5,1.3
				c-2.8,3.6-5.4,7.1-8.1,10.5c0.4,0.4,0.7,0.8,1.1,1.1c4.3-2.9,8.7-5.7,13-8.6c0.4,0.2,0.8,0.4,1.2,0.6c-0.6,2.3-1.2,4.5-1.8,7
				c2-0.1,4-0.3,6.5-0.4c-0.3,1.5-0.5,2.5-0.6,3.5c6,1.4,11.9,2.8,18.5,4.4c-2.5-5.3-5.2-10.9-8-16.7c1.9,0.2,4.1,0.3,7.3,0.6
				c-4.7-4.9-8.9-9.2-13.1-13.6c3.1-1.5,5.7-2.7,8.5-4c-2.9-3.8-8.6-5.8-9.7-12.3c8.5,3.9,16.5,7.6,24.2,11.2
				c0.8-1.9,1.7-3.3,1.8-4.7c0-1.6-0.9-3.1-1.3-4.7c-0.4-1.7-0.6-3.5-1.1-5.3c-0.2-0.9-0.6-2-1.2-2.6c-2.6-2.3-5.4-4.4-7.7-6.3
				c0.5-2.1,1-3.8,1.5-5.8c1.3,0.2,2.7,0.3,5.2,0.6c-1.5-1.6-2.5-2.5-3.2-3.6c-0.9-1.5-1.4-3.3-2.1-4.9c1.6-0.3,3.2-0.6,4.8-0.7
				c0.7-0.1,1.5,0.2,2.3,0.3c0.4-0.4,0.7-0.9,1.1-1.3c-1.1-0.5-2.2-1-3.2-1.7c-0.6-0.4-1.3-1.7-1.1-1.9c2.6-3.3-0.3-4.3-2.2-5.5
				c3.1-5-4.2-6.7-3-11.4c1.3,0.6,2.4,1.2,3.7,1.7c1.5,0.6,3.1,1,4.6,1.6c0.3-1.5,0.7-2.9,1.1-4.9c1.7,0.6,3.6,1.2,5.7,1.9
				c0.3-1.2,0.6-2.1,0.9-3.3c0.9,0.2,1.6,0.5,2.4,0.6c2.5,0.3,3.8-0.5,2.3-3.2c-2-3.6-4.2-7.1-6.2-10.8c-0.9-1.6-1.4-3.5-2.1-5.2
				c0.3-0.3,0.6-0.5,1-0.8c1.9,0.8,3.8,1.6,5.4,2.3c2-1.1,4-1.9,5.7-3.2c0.7-0.5,1.1-2,1-2.9c-0.1-1.4-0.8-2.7-1.3-4.5
				c1.5-0.1,2.6-0.2,2.9-0.2c-0.8-3.2-1.8-6.2-2.1-9.4c-0.2-1.8,0.8-3.8,1.4-6c0.8-0.9,2.9-2.2,3.1-3.7c0.2-1.8-1.2-3.8-2.2-6.4
				c2.2,0.5,3.4,0.7,4.7,1c2.2-9.3,4.3-18.4,6.7-28.5c0.3,2.1,0.5,3.3,0.5,4.5c0,6.5-0.1,12.9-0.1,19.4c0,0.9-0.2,2.3,0.3,2.7
				c2.9,2.4,1.4,5.2,1,7.9c-0.3,2.1-1.3,4.3,2.3,4.8c0.5,0.1,1,3,0.9,4.5c-0.3,3.6-0.9,7.2-1.4,10.9c0.4,0.2,0.8,0.3,1.2,0.5
				c1.9-2.3,3.8-4.6,5.7-6.9c0.6,0.3,1.1,0.6,1.7,0.9c-1.2,3.8-2.3,7.7-3.7,12.2c2.3,0,4.7-0.1,7,0.1c1.4,0.1,3.1,0.4,4,1.3
				c0.8,0.8,1.3,2.5,1.1,3.7c-0.6,3.1-3.4,5.3-2,9.3c0.6,1.7-2.6,4.6-4.1,7c0.5,0.1,0.9,0.3,1.4,0.4c-0.2,1.7,0,3.4-0.5,4.9
				c-1.1,3-2.7,5.9-4,8.8c2.9,0.1,5.1,0.3,7.2,0.4c-0.5,2.1-1,4.1-1.7,6.6c3.2,5.4,8,0.2,12.1,0.4c-3.4,9.2-6.6,18.1-9.8,26.9
				c0.3,0.2,0.7,0.4,1,0.6c1.7-1.2,3.3-2.3,5.4-3.8c-1.5,6.9-2.9,13.2-4.3,19.5c2.1,0.5,3.8,0.8,6,1.3c1.9-1.2,4.5-2.7,7.1-4.3
				c0.4,0.4,0.8,0.9,1.3,1.3c-2.1,3.2-4.3,6.3-6.5,9.6c4.6,2.8,6.6-0.8,8.8-3.2c3.4-3.7,3.3-5.9,0.3-10.4c1.6-3.4,3.9-6.4,4.5-9.8
				c0.5-3-1-6.4-1.6-9.5c-0.2-0.9-0.9-2-0.7-2.7c1.7-5.4,3.5-10.6,5.6-16.7c0,11.6,2.3,22.3,9.9,31.7c-1.4-0.3-2.8-0.7-4.9-1.2
				c1.6,5,3.1,9.6,4.6,14.5c-0.4,0.1-1.4,0.3-3.5,0.7c2.7,3.5,5.1,6.5,7.7,9.9c-1.6,0.2-3.3,0.3-5.8,0.6c2.6,3.7,4.9,7,7.4,10.4
				c-0.7,0.3-1.9,0.9-3.6,1.6c2.4,1.5,4.6,2.9,7.2,4.5c-1.4,0.8-2.4,1.4-4.2,2.6c5.7,2,10.6,3.8,15.5,5.5c0,0.3,0,0.5,0,0.8
				c-2.8,0.2-5.6,0.3-7.5,0.5c-0.8,1.7-1.7,3-1.9,4.4c-0.2,1.6-0.1,3.5,0.6,4.8c0.7,1.3,2.3,2.1,3.5,3.1c-0.1,0.3-0.2,0.7-0.4,1
				c-2.4,0.1-4.8,0.2-7.4,0.4c1.6,2.7,3,5.1,4.5,7.6c-0.3,0.2-0.6,0.4-0.8,0.6c1.2,0.7,2.5,1.3,4.4,2.4c-1.8,0.6-2.9,0.9-4.5,1.4
				c1.5,1.2,2.7,2,4,3c-1.1,0.7-1.9,1.3-3.2,2.2c2.9,2.1,5.5,4,9.2,6.8c-4.5,1.2-8,2.2-12.2,3.4c4.6,3,9,5.9,13.5,8.8
				c-1.3,0.6-2.8,1.2-4.8,2.1c5.2,3.9,10.6,3.9,16.9,2.6c-2-1.7-4.1-3.3-6.1-5c0.1-0.3,0.2-0.6,0.4-0.9c3.7,1.2,7.3,2.5,11,3.7
				c0.2-0.3,0.4-0.7,0.6-1c-1.6-1-3-2.6-4.7-3c-3.7-0.9-5.1-3.8-6.4-6.7c-0.5-1.1,0.2-2.8,0.3-4.2c1.3,0.2,3,0,4,0.7
				c4,2.7,8.2,4.1,12.9,2c0.5-0.2,0.9-0.5,1.7-1c-2.5-2.8-4.7-5.8-7.4-8c-4.2-3.4-8.8-6.3-13.2-9.5c-1.3-0.9-2.2-2.4-2.8-4.3
				c6.2,1.5,11.6,6.2,19.5,3.2c-6.1-5.8-11.8-11.1-17.5-16.5c0.3-0.5,0.5-1,0.8-1.5c6.7,1.9,13.3,3.7,20.2,5.7
				c0.2-1.1,0.4-2.2,0.8-4c4.3,1.9,8.5,3.7,12.7,5.5c0.3-0.4,0.5-0.8,0.8-1.2c-2.2-4.9-4.2-10-9.7-12.4c-2.5-1.1-3.9-2.4-4.1-5.3
				c-0.2-4-2.9-6.1-6.1-7.9c-4.3-2.4-9.2-4-11.3-10.1c7.7,0,15.2,0,22.9,0c-0.5-1.5-0.9-3-1.7-5.6c5.1,1.7,9.3,3.2,13.5,4.6
				c-1.6-5.1-4.4-8.7-9.2-9.9c-3.4-0.8-4.5-2-2.5-4.8c-4.5-3.5-8.8-6.8-13.1-10.2c-1.4-1.1-2.3-2.1-1.5-4.4c0.5-1.4-0.6-3.5-1.1-6
				c1.5,0.9,3,1.4,3.9,2.4c2.2,2.6,4.8,3.6,8.1,3.4c4.2-0.4,7.8,0.3,8.8,5.5c0.4,2,1.4,2.8,4.1,1.8c2.4-0.9,5.5,0.1,9.1,0.4
				c-1.4-2.4-2.8-5.1-4.6-7.5c-3-3.9-6.4-7.6-9.5-11.5c-0.9-1.2-1.3-2.8-1.9-4.2c0.3-0.2,0.5-0.5,0.8-0.7c5.3,3.2,10.6,6.4,15.9,9.5
				c0.3-0.1,0.7-0.2,1-0.3c-1.5-4.7-2.9-9.3-4.6-14.6c1.9,0.2,3.5,0.3,4.4,0.4c3-6.9,3.6-13.8-0.8-21c2.2,0,3.5,0,4.3,0
				c2.5-6.3,1.1-12-2.9-17.3c0.3-0.3,0.6-0.5,0.8-0.8c2.9,0.7,5.8,1.5,9.1,2.3c0.4-5.2,0.7-10.2,1.2-16.2c3.7,4.7-0.8,11.5,6.2,13.6
				c-0.4,1.4-0.7,2.9-1.2,4.7c2.4,0.3,4.6,0.6,7.2,1c-2,4.5-8.3,5.1-7.6,10.2c2.1,0.9,4.1,1.7,6,2.4c-0.1,0.2-0.2,0.5-0.3,0.7
				c2.3-0.5,4.6-1.3,6.9-1.5c0.9-0.1,2.3,0.9,2.8,1.7c0.3,0.5-0.6,1.9-1.2,2.6c-2,2.3-4.2,4.5-6.3,6.7c-2.1,2.2-3.9,4.5-1.9,7.8
				c0.4,0.6-0.6,2-1.2,3.7c3.1-1.1,5.9-2,8.7-2.9c0.2,0.3,0.5,0.7,0.7,1c-5,4.7-10,9.4-15.3,14.4c6.2,2.9,12.1,2.2,15.5-2.1
				c5.5-6.9,12.2-10.6,21.1-9.6c0.2-3.6-4.3-6.1-2.3-9.8c6.7,2.6,13.1,5,19.1,7.3c1-1.9,1.8-3.3,2.7-4.9c-2.1-1.3-4.4-2.8-6.8-4.2
				c0.2-0.4,0.3-0.8,0.5-1.1c2.8,0.6,5.5,1.1,9.3,1.9c-5.8-4.5-10.8-8.3-15.8-12.1c0.1-0.4,0.3-0.8,0.4-1.1c4.1-0.5,8.1-1,12.2-1.5
				c0-0.4,0.1-0.8,0.1-1.2c-4.8-2.3-10.7-2.8-13.3-9c6.2,1.3,12.4,2.6,18.5,3.9c0.1-0.2,0.2-0.4,0.2-0.6c-4-2.8-7.9-5.6-11.9-8.4
				c0.2-0.3,0.5-0.6,0.7-1c6.4,1.9,12.8,3.7,19.2,5.6c0.2-0.4,0.4-0.7,0.6-1.1c-1.8-2.8-3.7-5.5-5.3-8.3c-0.6-1-0.4-2.4-0.6-3.6
				c1.1,0.3,2.2,0.5,3.1,1c1.5,0.7,2.9,1.6,4.4,2.4c0.3-0.2,0.6-0.5,0.8-0.7c-0.7-1.8-1.4-3.6-2.1-5.3c-0.8-2-1.4-4-2.3-5.9
				c-1.4-2.8-0.9-4.5,2.8-5c-3.9-2.4-7.4-4.4-10.7-6.6c-1.1-0.7-2-1.8-3-2.8c1-0.7,2.1-1.4,3.4-2.3c-2.4-3-0.8-8.5-6.1-10.3
				c-0.6-0.2-1.3-2-1.1-2.7c0.2-0.7,1.7-1.1,2.6-1.2c1-0.1,2.1,0.4,3.1,0.7c0.9,0.3,1.8,1,2.6,1c4.4-0.1,8.8-0.3,14-0.6
				c-1.3-2.8-2.4-5.3-3.8-8.4c2,0.3,4,0.6,5.4,0.8c1.2-2,2.2-3.6,3.2-5.3c0.3,0.1,0.5,0.2,0.8,0.3c-0.5-2.2-1.1-4.3-1.9-7.5
				c2.6,0.9,4.3,1.5,6.5,2.3c1.5-7.4,0.4-15.5,5.7-22.3c-0.6,8.1-1.2,16.2-1.8,24.3c0.5,0.2,0.9,0.3,1.4,0.5c1-0.9,1.9-2,3.1-2.7
				c2-1.2,3.1-1,3.9,1.7c1.3,4.1-1,7.2-2,10.6c0.7,0.3,0.9,0.5,1.1,0.5c1.8,0.1,3.7,0.2,5.5,0.3c-0.7,1.8-1.2,3.6-2,5.4
				c-1.1,2.3-2.5,4.5-3.7,6.8c0.3,0.3,0.7,0.7,1,1c3-1.8,5.9-3.8,8.9-5.5c2.9-1.6,5.3-5,10.1-3.4c-2.5,3.4-4.7,6.3-7,9.4
				c5.9,1.7,6.1,2.3,2.8,7.6c4.2,2.9,4.2,2.9,0.5,9c4.2,2.3,4.4,2.9,1.3,6.9c-2.9,3.7-5.9,7.3-8.8,11c-0.8,1-1.4,2.1-2.8,4.2
				c4.4-2.1,7.7-3.7,11.8-5.6c-0.4,2.4-0.6,3.6-0.9,5.2c3.4-1.7,6.6-3.3,9.7-4.9c0.3,0.4,0.7,0.9,1,1.3c-4.3,5.4-8.7,10.7-13,16.1
				c0.3,0.5,0.7,1,1,1.4c4.5-1.4,9-2.9,13.5-4.3c0.2,0.3,0.4,0.6,0.6,1c-3.8,4.8-7.5,9.7-11.7,15.1c1.5,0.5,2.6,1.3,3.3,1
				c3.8-1.3,7.7-2.7,11.3-4.5c3.4-1.8,6.5-4.3,9.8-6.3c1.2-0.8,2.7-1.1,4.1-1.6c0.3,0.4,0.6,0.8,0.9,1.2c-1.5,1.7-3.2,3.2-4.6,5
				c-0.7,0.9-1.1,2.2-1.6,3.3c1.3-0.1,2.8,0.2,4-0.2c2.4-0.9,4.7-2.2,7.1-3.3c0.2,0.3,0.5,0.7,0.7,1
				C1820.2,168.3,1814.6,173.5,1808.4,179.2z M1719.9,220.6c0.1-0.3,0.3-0.6,0.4-0.8c-1-1-1.7-2.4-2.9-3c-6.2-3.2-12.5-6.1-18.8-9.1
				c-0.5-0.2-1.4-0.2-1.9,0.1c-4.9,2.9-9.7,5.9-14.5,8.9c0.1,0.5,0.2,1,0.3,1.5c2.7,0.1,5.4,0.2,8.1,0.2c1.8,0,3.7-0.2,5.5-0.3
				c-1.1,1.6-2.2,3.2-3.2,4.8c-0.1,0.1,0.1,0.5,0.1,0.4c2,0.6,3.9,1.2,5.8,1.8c0,0.4,0,0.8,0,1.2c-1.4,0.7-2.8,1.4-4.2,2
				c-3.8,1.8-7.7,3.3-11.3,5.3c-4.7,2.5-5.5,4.8-4.2,11c7.2-5,15.3-6,24.6-4.6c-1.7-2-2.5-2.8-3.3-3.7c0.1-0.3,0.2-0.7,0.3-1
				c1.6,0.1,3.3,0.1,4.9,0.2c1,0.1,2.3,0.7,3,0.3c4.3-2.3,8.5-4.9,12.7-7.4c-1.3-4.9-8.7-3.3-10.4-9.2
				C1714.3,219.7,1717.1,220.2,1719.9,220.6z M2007.9,275.5c-0.3-0.4-0.5-0.8-0.8-1.3c-1.5,0.8-3.7,1.3-4.3,2.5
				c-0.9,1.9-0.6,4.3-0.8,7c-3.4,3.8-7.5,8.2-12.2,13.4c3.4-0.4,5.7-0.7,9.2-1.1c-2,2.4-3.4,4-5.2,6.2c10.2-3.5,19.2-17.8,16-24.4
				c-2,1.1-3.9,2.2-5.9,3.2c-0.1-0.2-0.3-0.4-0.4-0.7C2005,278.8,2006.5,277.2,2007.9,275.5z M1842,268.5c0.3-0.3,0.5-0.7,0.8-1
				c-1.6-3.8-3.1-7.6-4.9-11.3c-1.6-3.4-3.7-6.6-5.8-10.3c-1.3,1.6-4.3,4.1-3.9,5.1c1.5,3.5,0.4,5.9-1.9,8.3
				C1830.1,265.4,1837.5,264.2,1842,268.5z M1487.9,282.2c2.8,0.9,5.3,1.8,7.8,2.6c0.2-0.3,0.3-0.6,0.5-0.9
				c-4.4-3.8-8.8-7.5-13.5-11.6c-2.9,4.7-5.4,9-8.3,13.7c3.3,0.1,6.3,4.1,8.5-0.8c1.6,0.3,3,0.6,4.5,0.9
				C1487.5,284.6,1487.6,283.6,1487.9,282.2z M1469.2,268.3c0.3,0.3,0.6,0.7,0.8,1c1.2-0.8,2.5-1.6,3.7-2.4c2.4-1.5,4.5-6.7,7.8-0.9
				c0.1,0.3,1.6-0.3,2.9-0.5c-2.7-3.4-5-6.2-7.7-9.5c-1.5,2.8-2.5,4.8-3.7,6.7C1471.9,264.7,1470.5,266.5,1469.2,268.3z"/>
		</g>
		<g>
			<g>
				<polygon points="1356.1,685.8 1381.5,719.1 1407.9,714.7 1418.9,719.1 1431.7,739.9 1424,745.7 1413.1,742.5 1382.3,753.4 
					1431.7,794.5 1456.8,784.2 1469,786.8 1486.3,803.5 1479.9,809.2 1469,809.2 1440.7,825.9 1497.2,854.8 1519.7,839.4 
					1531.3,840.1 1552,851.8 1547.1,858.9 1536,862.5 1512.9,884.7 1574.3,899.9 1592.9,879.8 1606.3,877.6 1627.6,885.6 
					1624.5,893.6 1614.5,898.2 1596.1,925.8 1660.5,925.8 1673.8,902.3 1686.2,898.2 1709.1,901 1706.8,910.2 1698.8,916.6 
					1687.5,946.8 1749.4,933.6 1757.4,907.2 1768.3,900.4 1790.9,897.8 1790.9,908.3 1784.9,914.7 1780.8,948.7 1838.9,920.8 
					1840.1,893.5 1848.7,883.9 1870.7,876.7 1873.1,886.3 1868.6,895.2 1871.3,927.4 1922.1,888.3 1917.6,860.3 1924.5,850.3 
					1943.2,837.9 1948.4,846.2 1945.6,857.2 1955.6,887.3 1995.7,838.2 1985.7,813 1989.5,799.9 2005.7,784 2012.3,791.6 
					2012.3,802.3 2029.2,829.9 2057.5,772.6 2041.7,750.1 2042,739.4 2055.1,718.7 2062.7,723.9 2065.1,734.6 2087.6,757 
					2102.5,695.6 2092.1,685.8 				"/>
			</g>
			<g>
				<path class="st1" d="M2002.5,722.9c-51.7,84.9-151.4,142.4-266,142.4c-114.6,0-214.4-57.5-266-142.4c58.8,81.1,156,134,266,134
					S1943.7,804,2002.5,722.9z"/>
			</g>
			<g>
				<rect x="1285" y="659.4" width="887.1" height="26.3"/>
			</g>
			<g>
				<path class="st1" d="M1944.5,751.8c-46.6,53.9-122.4,88.9-208,88.9c-85.6,0-161.4-35.1-208-88.9c46.6,48.8,122.4,80.5,208,80.5
					C1822.1,832.3,1897.9,800.6,1944.5,751.8z"/>
			</g>
		</g>
	</g>
	<path class="st4" d="M1530.3,73.2v27.7h3.2l-1.6,12.3h3.5v16.4l6.6-8.2c0,0,1.9,4.1-3.2,12.9c0,0,2.2,2.8,8.8,0l3.8,4.1l-3.6,8.1
		l1.5,2.5c0,0-3.9,4.6-4.6,8.7h2.9c0,0-5.6,9.7-5.6,14.3c0,0,4.6-3.1,6.4-1.2c0,0,1.7,0.6-1.9,6.6c0,0,3.8,1.3,4,3.4
		c0,0,7.4-3.8,9.3-2.4c0,0,0.8,0.8-5.4,10.9v4.7l-3.2,4.2v3.9c0,0-2.4,3.6-0.1,3.9l4.5-4.9c0,0,2.9,0.6-2.9,10.5
		c0,0,2.1,3.8-1.1,10.6"/>
	<g id="zAVAq3_00000141456706812030615210000016905060124286174348_">
		
			<image style="overflow:visible;" width="2376" height="1960" id="zAVAq3_00000049213980760191699500000018443699019737175689_" xlink:href="33A6B71EFF148D0D.jpg"  transform="matrix(0.5102 0 0 0.5102 2267.4314 0)">
		</image>
	</g>
	<g id="Wap7Ml_00000029037068670940446830000003426014035629222561_">
		
			<image style="overflow:visible;" width="1000" height="997" id="Wap7Ml_00000008116849502866286960000006991947761279353998_" xlink:href="33A6B71EFF148D0F.jpg"  transform="matrix(1 0 0 1 3606.1611 1.5)">
		</image>
	</g>
</g>
<g id="Layer_4">
	<g>
		<path d="M3305.3,1556.4l50.1,32.3l-28.7-96l-33.7-14.4c-0.4-3.8-0.9-7.5-1.5-11.2l9.1-8.8l56.7,18.3l-52.6-85.3l-35.4-5
			c-0.8-2.1-1.7-4.2-2.5-6.2c-0.7-1.7-1.5-3.4-2.2-5.1l6.1-10.1l59.5,3l-72.8-68.8l-34.7,4.2c-2.6-3.5-5.3-6.9-8.1-10.3l3-10.6
			l58.3-12.5l-88.2-47.6L3156,1235c-3.6-2.9-7.3-5.6-11-8.3l0.2-10.4l53.1-27.2l-97.5-23.1l-27.1,20.3c-0.3-0.1-0.6-0.3-0.9-0.4
			c-4.1-1.7-8.3-3.4-12.5-5l-2.4-9.6l44.2-40l-100.1,2.9l-20.8,26.5c-4.8-0.7-9.6-1.3-14.5-1.7l-4.7-8.5l32.3-50.1l-96,28.7
			l-13.2,31c-4.8,0.6-9.6,1.3-14.4,2.1l-6.8-7l18.3-56.7l-85.3,52.6l-4.8,33.5c-1.2,0.5-2.4,1-3.6,1.5c-3.2,1.4-6.4,2.8-9.6,4.2
			l-8.6-5.1l3-59.5l-68.8,72.8l4.1,34.1c-3.6,2.8-7.2,5.6-10.8,8.6l-10.1-2.9l-12.5-58.3l-47.6,88.2l13,32.5
			c-2.6,3.5-5.3,6.9-7.8,10.5l-11.2-0.2l-27.2-53.1l-23.2,97.5l21.4,28.5c-1.5,3.8-3,7.6-4.5,11.4l-11.6,2.9l-40-44.2l2.9,100.1
			l28.8,22.6c-0.5,3.7-0.8,7.4-1.2,11.1l-11.3,6.3l-50.1-32.3l28.7,96l34.5,14.7c0.5,3.4,1,6.7,1.5,10.1l-9.9,9.6l-56.7-18.3
			l52.6,85.3l37.9,5.4c0,0,0,0,0,0c1.2,2.8,2.4,5.7,3.7,8.5l-7.5,12.6l-59.5-3l72.8,68.8l38.3-4.6l0-0.8c0.2,0.3,0.4,0.5,0.6,0.8
			h-0.6l2.8,2.8c1,1.2,2,2.5,3,3.7l-4.3,14.9l-58.3,12.5l88.2,47.6l35.8-14.4l-0.4-1.6c0.6,0.4,1.1,0.8,1.7,1.3l-1.2,0.3l7.2,4.2
			l-0.3,16.1l-53.1,27.2l97.5,23.1l30.8-23.2l-1.1-1.9c0.9,0.4,1.7,0.7,2.6,1.1l-1.5,0.8l8.1,2.2l3.9,15.6l-44.2,40l100.1-2.9
			l23.8-30.3l-1.9-1.8c1.1,0.1,2.2,0.3,3.2,0.4l-1.4,1.4l8.3,0l7.8,14.1l-32.3,50.1l96-28.7l15.1-35.5l-2.2-1.3
			c1.1-0.1,2.2-0.3,3.2-0.4l-1,1.7l8.1-2.2l11.2,11.6l-18.3,56.7l85.3-52.6l5.4-38.2l-2.2-0.6c0.9-0.4,1.7-0.7,2.6-1.1l-0.4,1.6
			l7.2-4.2l13.8,8.3l-3,59.5l68.8-72.8l-4.6-38.3l-1.7,0c0.6-0.4,1.1-0.8,1.7-1.3v1.3l5.7-5.7c0.1-0.1,0.2-0.1,0.2-0.2l15.5,4.4
			l12.5,58.3l47.6-88.2l-14.4-35.8l-0.7,0.2c0.2-0.3,0.4-0.5,0.6-0.8l0.1,0.6l1.8-3c1.1-1.4,2.1-2.8,3.2-4.2l15.4,0.3l27.2,53.1
			l23.1-97.5l-23-30.6c0-0.1,0.1-0.2,0.1-0.3c1.2-2.8,2.3-5.6,3.4-8.4l14.1-3.5l40,44.2l-2.9-100.1l-29.5-23.1
			c0.5-3.4,0.9-6.8,1.3-10.2L3305.3,1556.4z M2707.9,1299.4c59.5-59.5,138.6-92.3,222.7-92.3s163.2,32.8,222.7,92.3
			c59.5,59.5,92.3,138.6,92.3,222.7s-32.8,163.2-92.3,222.7c-59.5,59.5-138.6,92.3-222.7,92.3s-163.2-32.8-222.7-92.3
			c-59.5-59.5-92.3-138.6-92.3-222.7S2648.4,1358.9,2707.9,1299.4z"/>
		<path d="M2930.7,1823.2c80.4,0,156-31.3,212.8-88.2s88.2-132.4,88.2-212.8s-31.3-156-88.2-212.8s-132.4-88.2-212.8-88.2
			s-156,31.3-212.8,88.2s-88.2,132.4-88.2,212.8s31.3,156,88.2,212.8S2850.3,1823.2,2930.7,1823.2z M2726.3,1317.8
			c54.6-54.6,127.2-84.6,204.4-84.6s149.8,30.1,204.4,84.6s84.6,127.2,84.6,204.4s-30.1,149.8-84.6,204.4s-127.2,84.6-204.4,84.6
			s-149.8-30.1-204.4-84.6s-84.6-127.2-84.6-204.4S2671.7,1372.4,2726.3,1317.8z"/>
	</g>
	<line x1="2502" y1="1522.2" x2="3359.4" y2="1522.2"/>
	<line class="st3" x1="4527.6" y1="1663.8" x2="4513.9" y2="1663.8"/>
	<line class="st3" x1="4598.3" y1="1663.8" x2="4543.4" y2="1663.8"/>
	<line class="st3" x1="3980.2" y1="1663.8" x2="3922.3" y2="1663.8"/>
	<line class="st3" x1="4009.7" y1="1663.8" x2="3996" y2="1663.8"/>
	<g>
		<path d="M4598,1664.5c0-0.1,0.1-0.2,0.1-0.2c0.1-0.2,0.1-0.3,0.2-0.5h-55c-14.9,29.6-34.7,57-58.8,81.1
			c-59.5,59.5-138.6,92.3-222.7,92.3s-163.2-32.8-222.7-92.3c-24.1-24.1-43.9-51.5-58.8-81.1h-57.9l3.2,0.4c0,0,0,0,0,0.1
			c1.2,2.8,2.4,5.7,3.7,8.5l-7.5,12.6l-59.6-3l72.8,68.8l38.3-4.6l0-0.8c0.2,0.2,0.4,0.5,0.6,0.8h-0.6l2.8,2.8c1,1.2,2,2.5,3,3.7
			l-4.3,14.9l-58.3,12.5l88.2,47.6l35.8-14.4l-0.4-1.6c0.6,0.4,1.1,0.9,1.7,1.3l-1.2,0.3l7.2,4.2l-0.3,16.1l-53.1,27.2l97.5,23.1
			l30.8-23.2l-1.1-1.9c0.9,0.4,1.7,0.7,2.6,1.1l-1.5,0.8l8.1,2.2l3.9,15.6l-44.2,40l100.1-2.9l23.8-30.4l-1.9-1.8
			c1.1,0.1,2.1,0.3,3.2,0.4l-1.4,1.4h8.4l7.8,14.1l-32.3,50.1l96-28.7l15.1-35.5l-2.2-1.3c1.1-0.1,2.1-0.3,3.2-0.4l-1,1.7l8.1-2.2
			l11.2,11.6l-18.3,56.7l85.3-52.6l5.4-38.2l-2.2-0.6c0.9-0.4,1.7-0.7,2.6-1.1l-0.4,1.6l7.2-4.2l13.8,8.3l-3,59.5l68.8-72.8
			l-4.6-38.3l-1.7,0c0.6-0.4,1.1-0.9,1.7-1.3v1.3l5.7-5.7c0.1-0.1,0.2-0.1,0.2-0.2l15.5,4.4l12.5,58.3l47.6-88.2l-14.4-35.8
			l-0.7,0.2c0.2-0.2,0.4-0.5,0.6-0.8l0.1,0.6l1.8-3c1.1-1.4,2.1-2.8,3.2-4.2l15.4,0.3l27.2,53.1l23.1-97.5L4598,1664.5z"/>
		<path d="M4513.9,1663.8c-12.8,22.7-28.8,43.8-47.7,62.8c-54.6,54.6-127.2,84.6-204.4,84.6s-149.8-30.1-204.3-84.6
			c-18.9-18.9-34.9-40.1-47.7-62.8H3996c13.8,25.9,31.6,49.9,52.9,71.2c56.9,56.9,132.4,88.2,212.8,88.2s156-31.3,212.8-88.2
			c21.4-21.4,39.1-45.4,52.9-71.2H4513.9z"/>
	</g>
</g>
</svg>
