<?xml version="1.0" encoding="utf-8"?>
<!-- Generator: Adobe Illustrator 27.1.0, SVG Export Plug-In . SVG Version: 6.00 Build 0)  -->
<svg version="1.1" id="Layer_1" xmlns="http://www.w3.org/2000/svg" xmlns:xlink="http://www.w3.org/1999/xlink" x="0px" y="0px"
	 width="50px" height="50px" viewBox="0 0 50 50" style="enable-background:new 0 0 50 50;" xml:space="preserve">
<path id="Exclusion_1" d="M47.6,50H2.4C1.1,50,0,49,0,47.6V2.4C0,1.1,1.1,0,2.4,0h45.2C48.9,0,50,1,50,2.4v45.2C50,49,49,50,47.6,50
	z M8.4,35.5L8.4,35.5c3.1,2,6.8,3.1,10.4,3.1c2.9,0,5.8-0.6,8.4-1.8c2.4-1.1,4.4-2.7,6.1-4.5c0.8-1,1.5-2,2.2-3
	c0.6-1,1.2-2.1,1.5-3.3c0.4-1.1,0.8-2.2,1-3.5c0.2-1.1,0.3-2.3,0.3-3.5c0-0.3,0-0.6,0-0.9c1.3-1,2.5-2.1,3.4-3.5
	c-1.2,0.6-2.5,0.9-4,1.1c1.5-0.9,2.5-2.2,3-3.8c-1.3,0.8-2.8,1.4-4.3,1.6c-2.6-2.8-6.9-2.9-9.6-0.3c-1.4,1.3-2.1,3.1-2.1,5
	c0,0.5,0,1,0.2,1.5c-1.4,0-2.8-0.3-4.1-0.6c-1.3-0.4-2.6-0.9-3.8-1.5s-2.3-1.4-3.3-2.2c-1.1-0.9-2-1.8-2.8-2.8
	c-1.8,3.1-0.9,7.1,2.2,9.1c-1.1,0-2.1-0.3-3.1-0.9V21c0,3.2,2.3,6,5.5,6.7C14.6,27.9,14,28,13.4,28c-0.4,0-0.9,0-1.3-0.1
	c0.2,0.6,0.6,1.3,0.9,1.9c1.2,1.8,3.3,2.8,5.4,2.8c-2.4,1.9-5.4,3-8.5,3C9.4,35.5,8.9,35.5,8.4,35.5z"/>
</svg>
